<svg width="111" height="71" viewBox="0 0 111 71" fill="none" xmlns="http://www.w3.org/2000/svg">
<path d="M54.7877 70.668C53.7011 70.6571 52.3078 70.6205 51.4393 70.5803C51.3351 70.5756 51.119 70.5657 50.9592 70.5584C49.2181 70.4783 47.0877 70.3121 45.3216 70.1184C45.2104 70.1064 45.0656 70.0905 45.0004 70.0835C44.519 70.0316 43.4363 69.8997 42.9037 69.8279C42.4283 69.7641 42.1896 69.7312 41.8863 69.6877C41.5853 69.6445 41.4591 69.6262 41.076 69.569C40.9721 69.5538 40.4857 69.4786 40.2217 69.4371C40.1634 69.4281 39.9833 69.3989 39.8209 69.3723C39.6587 69.3454 39.4903 69.3178 39.4467 69.3108C38.2871 69.1221 36.4008 68.7665 35.1085 68.493C35.0286 68.476 34.8877 68.4464 34.7959 68.4268C34.3487 68.3325 33.8702 68.2264 33.1441 68.0613C33.0933 68.0496 32.9664 68.0201 32.8622 67.9955C32.7581 67.9709 32.6392 67.9433 32.598 67.934C32.2634 67.8582 30.9264 67.5276 30.4091 67.3926C29.1726 67.0703 28.2135 66.8048 27.1632 66.494C26.9089 66.4189 26.677 66.3505 26.648 66.3422C25.8867 66.1212 24.0712 65.5356 23.0762 65.1903C22.9623 65.1508 22.8137 65.0996 22.7458 65.076C22.6051 65.0278 22.1114 64.852 21.7857 64.7344C21.147 64.5041 20.77 64.3622 19.293 63.7965C19.0992 63.7224 18.8395 63.6234 18.716 63.5762C18.5925 63.5294 18.4478 63.4742 18.3945 63.4539C18.3412 63.4333 18.149 63.3602 17.9673 63.2911C17.7856 63.2216 17.6337 63.1621 17.6297 63.1588C17.622 63.1522 17.6071 61.348 17.5798 57.1098C17.5752 56.4013 17.5694 55.5745 17.5668 55.2721C17.5595 54.4117 17.5536 53.5659 17.5401 51.4427C17.5332 50.3596 17.5249 49.2138 17.5216 48.8967L17.5158 48.3205L17.6601 48.3398C17.7394 48.3504 17.8836 48.3693 17.9805 48.3823C18.1963 48.4105 18.2862 48.4285 18.4958 48.4853C18.7736 48.5604 19.4231 48.7628 19.7051 48.8618C19.7449 48.8758 19.8765 48.9217 19.9976 48.9632C20.4393 49.1157 20.7433 49.2254 21.2528 49.4162C23.1272 50.1177 25.0152 50.7504 26.943 51.3234C27.0084 51.3427 27.1214 51.3762 27.1941 51.3978C27.4171 51.4639 27.8982 51.6022 28.2951 51.7142C28.7502 51.8425 29.6178 52.0768 30.0744 52.1944C30.1519 52.2147 30.284 52.2486 30.3679 52.2705C30.4518 52.2921 30.5243 52.3087 30.5289 52.3071C30.5335 52.3057 30.3764 52.1502 30.1797 51.9621C29.6569 51.462 28.8853 50.6916 28.3558 50.1416C27.722 49.483 27.3248 49.0533 26.2388 47.8516C25.8402 47.4102 25.6597 47.2112 25.6252 47.174C25.605 47.152 25.5027 47.0394 25.398 46.9234L25.2074 46.7124L25.212 46.167C25.2145 45.8673 25.2186 44.7932 25.2212 43.7799C25.2291 40.6667 25.2411 36.514 25.2653 28.5948C25.2723 26.2904 25.2822 22.8896 25.2872 21.0374C25.3053 14.3773 25.3218 9.95105 25.3286 9.9448C25.3324 9.94131 25.3732 9.93204 25.4192 9.9242C25.4652 9.91639 25.5564 9.89997 25.6218 9.88778C25.8803 9.83952 26.0828 9.8021 26.2384 9.77386C26.8225 9.66778 26.993 9.63361 27.2337 9.57443C28.2098 9.33439 29.12 8.93962 29.9876 8.37998C30.7671 7.87721 31.4949 7.22971 32.0926 6.50733C33.0875 5.30491 33.7422 3.89862 33.994 2.42308C34.0063 2.35054 34.0557 2.0168 34.1038 1.68142C34.1518 1.34605 34.1926 1.0702 34.1944 1.06842C34.2012 1.0616 36.0796 1.05464 41.2521 1.04226C44.1977 1.03521 47.9853 1.02538 49.6685 1.02043C60.5069 0.988536 66.6708 0.993662 70.9055 1.03809C71.3586 1.04284 71.8559 1.04894 72.0111 1.05165C72.623 1.06232 73.5771 1.08213 73.7023 1.08675C74.2376 1.10653 74.4963 1.12065 74.6068 1.13609C74.6857 1.14718 74.6954 1.15496 74.74 1.24485C74.8468 1.46083 74.9597 1.89257 75.0536 2.44525C75.1911 3.25249 75.4138 3.93326 75.7857 4.68283C76.1985 5.51431 76.7361 6.27796 77.4333 7.0217C78.6038 8.27048 79.8349 9.03476 81.3833 9.47357C81.7705 9.58333 81.902 9.61358 82.6693 9.76944C83.2829 9.89406 83.5752 9.95438 83.5779 9.9568C83.5809 9.95999 83.6025 16.7296 83.6248 24.7084C83.6295 26.3309 83.6355 28.2459 83.6381 28.9641C83.6408 29.6822 83.6468 31.7121 83.6514 33.4748C83.6558 35.2375 83.6618 37.3644 83.6648 38.2008C83.6741 41.0781 83.6861 45.1574 83.6877 46.0198L83.6894 46.8838L83.6155 46.9659C83.5745 47.0108 83.454 47.1421 83.3475 47.2577C83.241 47.373 83.1278 47.4956 83.0965 47.5299C83.0648 47.5644 82.952 47.6871 82.8455 47.8027C82.7389 47.9184 82.5585 48.1144 82.4446 48.2384C81.7352 49.0097 81.3653 49.4092 81.2205 49.5611C81.1835 49.5999 81.0767 49.7126 80.9825 49.8116C80.03 50.8166 78.8322 51.9927 77.8091 52.9278C77.7036 53.0242 77.6177 53.1066 77.6177 53.111C77.6177 53.1153 77.625 53.1166 77.634 53.1139C77.6433 53.111 77.7472 53.087 77.8654 53.0608C78.1753 52.992 78.44 52.9322 78.6614 52.8807C78.7679 52.8561 78.9324 52.8178 79.0269 52.7959C79.4953 52.6876 80.6226 52.4114 81.1409 52.2778C81.4828 52.1897 82.0335 52.0455 82.2156 51.9963C83.2033 51.7301 83.9271 51.5261 84.7877 51.2709C84.8336 51.2572 84.9308 51.2287 85.0034 51.2071C85.1842 51.1536 85.4638 51.0681 85.8357 50.9532C86.0078 50.9 86.1783 50.8475 86.2145 50.8362C86.2944 50.8119 86.5678 50.7252 86.884 50.6238C88.1298 50.2247 89.3659 49.7997 90.6363 49.3341C91.9077 48.8678 93.1122 48.481 93.5969 48.3833C93.7018 48.3624 93.7241 48.361 93.9738 48.361H94.2391V55.636V62.9112L93.9991 63.0515C93.8669 63.1289 93.7181 63.2123 93.6685 63.2372C92.779 63.6826 89.3243 64.9301 86.144 65.954C85.0007 66.3222 83.8172 66.6778 82.7176 66.9835C82.6281 67.0085 82.5199 67.0387 82.4776 67.0503C82.4353 67.0623 82.3657 67.0816 82.3234 67.0935C81.8917 67.2138 81.0048 67.4481 80.4099 67.599C78.977 67.9622 77.8358 68.2264 76.2877 68.5531C74.5649 68.9167 72.308 69.3221 70.6811 69.5607C70.6182 69.5697 70.4733 69.5913 70.3595 69.6079C68.6363 69.8625 66.8046 70.0818 65.0305 70.2456C63.3546 70.4008 61.6924 70.5122 59.9832 70.5843C59.6926 70.5966 59.6017 70.5999 59.2874 70.6112C59.2218 70.6135 59.113 70.6172 59.045 70.6198C57.9774 70.6594 56.0764 70.681 54.7877 70.668ZM56.9913 70.1672C59.4685 70.142 61.2243 70.0931 62.238 70.0213C62.775 69.9834 63.2704 69.9452 63.6652 69.9117C64.0201 69.8814 64.4652 69.8419 64.6034 69.8283C64.676 69.8213 64.8601 69.8037 65.0129 69.789C66.7187 69.6252 68.5178 69.4042 70.3418 69.134C71.4961 68.9629 73.1273 68.688 74.2086 68.4823C74.3225 68.4607 74.4793 68.4312 74.5565 68.4162C74.995 68.3331 75.9002 68.1517 76.3273 68.0609C77.0707 67.9034 77.4343 67.824 78.0315 67.6884C79.0442 67.4581 80.3599 67.1371 81.1849 66.9184C82.2009 66.6492 82.388 66.598 83.2463 66.3551C83.5905 66.2577 83.7373 66.2152 84.1139 66.1049C84.6658 65.9427 85.4632 65.6988 86.0032 65.5273C86.2092 65.4618 86.4309 65.3914 86.4965 65.3704C86.914 65.2378 87.8026 64.9424 88.2403 64.7905C88.3009 64.7696 88.4101 64.732 88.4827 64.7068C88.5553 64.6819 88.7477 64.6144 88.9098 64.5572C89.0723 64.5001 89.2448 64.4393 89.293 64.4223C89.4861 64.3542 89.6532 64.2937 90.2312 64.0827C90.3777 64.0292 90.7791 63.879 91.2662 63.6955C91.9963 63.421 92.7637 63.1329 93.1688 62.9813C93.3772 62.9036 93.55 62.8375 93.553 62.8348C93.5563 62.8318 93.5633 62.1309 93.569 61.2775C93.5743 60.4241 93.5866 58.7126 93.5963 57.4747C93.6056 56.2365 93.6172 54.6104 93.6222 53.8607C93.6272 53.1113 93.6352 52.0272 93.6399 51.4517C93.6582 49.1659 93.6599 48.7389 93.6519 48.7389C93.6475 48.7389 93.5846 48.7611 93.5121 48.7877C93.3273 48.8562 93.2224 48.8947 93.0147 48.9708C92.9155 49.0071 92.6914 49.0888 92.517 49.153C91.9157 49.373 91.8022 49.4145 91.4733 49.5348C91.2915 49.6013 91.0518 49.6893 90.9403 49.7302C89.7891 50.1526 88.3156 50.6614 87.2363 51.0093C86.6989 51.1825 86.0761 51.3782 85.6333 51.5131C85.4951 51.555 85.3327 51.6045 85.2721 51.6231C85.2115 51.6414 85.0727 51.6829 84.9638 51.7152C84.8549 51.7474 84.7201 51.787 84.6642 51.8036C84.25 51.9262 83.4896 52.1436 83.0965 52.2516C82.6827 52.3655 82.5645 52.3978 82.4183 52.4367C82.3334 52.4593 82.2382 52.4849 82.2069 52.4938C82.122 52.5181 81.4552 52.6919 81.1013 52.7823C80.1352 53.0292 78.8481 53.3359 77.9789 53.5267C77.8987 53.5443 77.7342 53.5802 77.613 53.6068C77.4922 53.6337 77.2998 53.6749 77.1859 53.6992C77.072 53.7231 76.9176 53.756 76.8423 53.7723C76.7674 53.7886 76.6526 53.8125 76.587 53.8254C76.5217 53.8384 76.4205 53.8587 76.3623 53.8703C76.3043 53.8823 76.1459 53.9139 76.01 53.9408C75.8745 53.9677 75.7397 53.9949 75.7108 54.0019C75.6475 54.0162 74.9887 54.1435 74.6228 54.2116C73.643 54.3947 72.6216 54.5699 71.6718 54.7181C71.5144 54.7427 71.3739 54.7663 71.3592 54.7709C71.3446 54.7752 71.2893 54.7849 71.236 54.7922C71.1828 54.7995 70.9747 54.8294 70.7736 54.8587C70.2846 54.9298 70.1601 54.9474 70.1128 54.9517C70.0912 54.9537 70.0019 54.9657 69.915 54.978C69.8278 54.9903 69.7289 55.0039 69.6947 55.0082C69.6607 55.0129 69.5139 55.0321 69.3687 55.0517C68.4589 55.1734 67.4794 55.2903 66.5676 55.3861C64.2518 55.6293 61.9058 55.7968 59.6749 55.8782C59.4109 55.8879 59.1373 55.8982 59.067 55.9008C58.9968 55.9035 58.7867 55.9095 58.6003 55.9141C58.4138 55.9188 58.0689 55.9274 57.8339 55.9334C57.2523 55.9483 54.3506 55.9487 53.7514 55.9337C51.5574 55.8792 50.0653 55.8088 48.211 55.6719C46.2088 55.5243 44.0988 55.3053 42.1859 55.0471C42.0601 55.0301 41.9292 55.0125 41.8953 55.0082C41.6562 54.977 40.7627 54.848 40.4331 54.7975C40.3362 54.7825 40.1921 54.7606 40.1125 54.7487C39.8638 54.7111 39.0036 54.5712 38.6493 54.511C38.4629 54.4791 38.2965 54.4512 38.2795 54.4486C38.2625 54.4459 38.2329 54.4386 38.2132 54.4319C38.1939 54.4253 38.1087 54.4077 38.0241 54.3931C37.9392 54.3784 37.7904 54.3525 37.6935 54.3356C37.5967 54.3183 37.4262 54.2884 37.315 54.2691C37.2035 54.2495 37.0713 54.2259 37.0211 54.2163C36.9711 54.207 36.9115 54.197 36.8892 54.1947C36.8356 54.1884 36.1292 54.0528 35.6588 53.9581C34.8398 53.7936 33.9505 53.6045 33.2587 53.4473C33.1399 53.4203 32.9913 53.3868 32.9283 53.3725C32.8653 53.3582 32.7583 53.3329 32.6905 53.3163C32.2434 53.2077 31.6194 53.0571 31.4441 53.0162C31.0458 52.9229 30.2315 52.7178 29.7353 52.5859C28.757 52.326 28.0674 52.1349 27.3177 51.9166C26.4669 51.669 25.4757 51.3679 24.9039 51.1835C24.8458 51.1649 24.6733 51.1094 24.5207 51.0605C23.5763 50.7571 22.3395 50.337 21.4995 50.0343C21.4389 50.0127 21.314 49.9678 21.222 49.9349C21.0129 49.8601 20.5761 49.7006 20.3323 49.6096C20.2306 49.5717 20.0621 49.5092 19.958 49.4707C19.8538 49.4318 19.6814 49.368 19.5748 49.3281C19.4683 49.2885 19.3275 49.2364 19.2621 49.2124C19.1967 49.1882 19.0124 49.1197 18.8526 49.0602C18.1768 48.809 18.009 48.7475 18.0069 48.7498C18.0057 48.7512 18.0001 49.4388 17.9944 50.2779C17.9887 51.117 17.9763 52.7766 17.9669 53.9664C17.9264 59.0865 17.9589 62.5663 18.0491 62.754C18.0617 62.7803 18.1137 62.8079 18.3064 62.8903C18.5959 63.0142 19.4616 63.3522 20.1606 63.6141C21.7318 64.2033 22.9909 64.6506 24.3137 65.0893C24.849 65.2671 25.0436 65.3302 25.7054 65.5409C26.3472 65.7453 27.2011 66.0042 28.0441 66.2504C29.3568 66.6333 31.2261 67.1291 32.5187 67.4372C32.9546 67.5409 33.2537 67.6113 33.4744 67.6618C33.6004 67.6904 33.7134 67.7163 33.7255 67.7193C34.5728 67.9164 35.9904 68.2141 37.064 68.4209C39.949 68.9762 43.0285 69.4308 45.9428 69.7315C46.4492 69.7837 46.635 69.802 47.1936 69.8545C48.0785 69.9373 49.2124 70.027 50.1442 70.0878C50.7711 70.1287 51.7652 70.1553 53.214 70.1699C53.8456 70.1762 56.2655 70.1745 56.9913 70.1672ZM35.6368 66.4425C35.6198 66.4405 35.5626 66.4349 35.5093 66.4299C35.0312 66.3844 34.5855 66.2192 34.21 65.9477C33.6639 65.5529 33.237 64.9208 33.0033 64.1611C32.8379 63.6231 32.756 63.0515 32.7419 62.337C32.7291 61.6833 32.7885 61.0303 32.9107 60.4819C33.2175 59.1051 33.953 58.1477 34.9783 57.7908C35.6388 57.5608 36.4541 57.5787 37.2644 57.8406C37.3553 57.8702 37.3739 57.8795 37.3843 57.8994C37.3949 57.9204 37.3826 58.0294 37.2711 58.8931C37.2022 59.4265 37.1419 59.8661 37.1379 59.8698C37.1296 59.8771 36.9928 59.908 36.9884 59.9037C36.9868 59.9024 36.9238 59.5511 36.8483 59.1231C36.773 58.6953 36.7078 58.3391 36.7038 58.3321C36.6871 58.3022 36.3196 58.1935 36.1258 58.161C35.0931 57.9878 34.3254 58.5491 33.9146 59.7784C33.7419 60.2952 33.6499 60.8618 33.6198 61.5942C33.585 62.443 33.6631 63.2648 33.8397 63.9079C34.0259 64.5858 34.3334 65.1381 34.7233 65.4954C35.2023 65.9341 35.8608 66.0653 36.5167 65.8526L36.6166 65.8201L36.6122 64.4918C36.6076 63.0495 36.6099 63.1083 36.5593 63.0425C36.5407 63.0179 36.4917 62.9917 36.2873 62.8959C36.1498 62.8318 36.0286 62.7736 36.018 62.767C35.999 62.7547 35.998 62.7494 35.998 62.6311V62.5081L36.238 62.5148C36.547 62.5237 37.4362 62.5237 37.7172 62.5148L37.9346 62.5081L37.9402 62.5457C37.9432 62.5663 37.9462 62.6241 37.9472 62.6743L37.9492 62.7653L37.7162 62.8677C37.5008 62.9624 37.4808 62.973 37.4548 63.0073C37.4392 63.0275 37.4219 63.0631 37.4162 63.0864C37.4086 63.1173 37.4046 63.5174 37.4016 64.623C37.3979 65.8812 37.3953 66.1208 37.3849 66.1371C37.3759 66.1511 37.3363 66.1683 37.2381 66.2003C36.8849 66.3159 36.5666 66.3884 36.2444 66.4262C36.1332 66.4392 35.709 66.4508 35.6368 66.4425ZM54.0816 66.4382C53.4957 66.3794 53.0256 66.1644 52.6354 65.7765C52.0372 65.1823 51.65 64.2126 51.5318 63.0143C51.5035 62.7238 51.4992 62.6341 51.4945 62.2177C51.4885 61.6823 51.5025 61.3885 51.5541 60.9698C51.6943 59.8273 52.0891 58.8951 52.685 58.3009C52.9204 58.0663 53.1471 57.9094 53.4341 57.7828C53.764 57.6372 54.0969 57.5724 54.5134 57.5724C54.803 57.5724 54.9622 57.591 55.2045 57.6522C55.6706 57.7698 56.0791 58.0264 56.3984 58.4016C56.8754 58.9629 57.1867 59.7628 57.3092 60.7411C57.4144 61.5826 57.3871 62.6045 57.2386 63.3918C57.1371 63.9295 56.9876 64.3888 56.7759 64.8121C56.5692 65.2259 56.3801 65.4921 56.1017 65.7622C55.7152 66.1371 55.2734 66.3488 54.7158 66.4259C54.594 66.4428 54.2031 66.4502 54.0816 66.4382ZM54.6848 65.9553C55.0887 65.9105 55.396 65.7646 55.6586 65.4927C56.1047 65.0308 56.3627 64.2229 56.4506 63.0143C56.4823 62.5789 56.4922 61.7627 56.4703 61.3962C56.4237 60.6208 56.3321 60.0715 56.165 59.5674C55.8441 58.599 55.3147 58.1171 54.5074 58.058C54.0184 58.0221 53.5772 58.1606 53.256 58.4511C52.6707 58.9802 52.3731 60.138 52.3731 61.8843C52.3731 63.4579 52.6311 64.6018 53.1401 65.2847C53.2247 65.398 53.4301 65.6014 53.5356 65.6758C53.6402 65.75 53.8196 65.8403 53.9408 65.8799C54.04 65.9128 54.1775 65.9424 54.2844 65.9543C54.3789 65.965 54.5923 65.9653 54.6848 65.955V65.9553ZM62.6525 66.3727C62.3073 66.3335 62.0133 66.2554 61.5565 66.0816C61.4786 66.052 61.476 66.1451 61.5882 64.9883L61.6877 63.964L61.7746 63.9438C61.8222 63.9325 61.8625 63.9242 61.8638 63.9258C61.8655 63.9275 61.9304 64.3123 62.0083 64.7816C62.1242 65.4788 62.1528 65.6363 62.1654 65.6459C62.2044 65.6748 62.4201 65.7726 62.5157 65.8048C62.7687 65.8895 63.0377 65.9131 63.291 65.8719C63.6822 65.8088 63.9808 65.5845 64.1543 65.2232C64.2711 64.9796 64.3197 64.7277 64.3207 64.3638C64.3214 64.0099 64.2718 63.7736 64.1413 63.5064C64.0517 63.3233 63.9539 63.1927 63.7784 63.0226C63.615 62.8637 63.4312 62.7258 62.9921 62.4317C62.4597 62.0748 62.2337 61.8843 62.0063 61.6012C61.8299 61.3812 61.691 61.106 61.6042 60.8053C61.4557 60.2898 61.457 59.5328 61.6075 59.0254C61.7383 58.5827 61.964 58.2464 62.2943 58.0005C62.493 57.8522 62.6958 57.7569 62.9465 57.6934C63.3639 57.588 63.9505 57.6153 64.5551 57.7685C64.7742 57.824 64.8474 57.8499 64.8624 57.8762C64.874 57.8968 64.8641 57.9858 64.7585 58.821C64.6943 59.3281 64.639 59.7508 64.635 59.7601C64.6304 59.7724 64.6077 59.7824 64.5541 59.7967C64.5135 59.8073 64.4795 59.8156 64.4789 59.815C64.4782 59.8143 64.4196 59.4813 64.3484 59.0749C64.2775 58.6688 64.2175 58.3305 64.2152 58.3228C64.2059 58.2912 63.874 58.166 63.7032 58.1294C63.5933 58.1061 63.3666 58.0968 63.2581 58.1115C62.78 58.1749 62.4364 58.5069 62.3086 59.028C62.265 59.2058 62.2527 59.3221 62.252 59.5584C62.2513 59.9166 62.2996 60.1479 62.4318 60.4201C62.5247 60.6119 62.6285 60.7534 62.806 60.9306C62.9668 61.0907 63.1369 61.2194 63.5973 61.5271C64.0235 61.8122 64.2142 61.9575 64.3833 62.1259C64.669 62.4101 64.8408 62.6882 64.9593 63.0585C65.0528 63.3502 65.0894 63.6862 65.0738 64.1043C65.0478 64.7819 64.8817 65.3016 64.5661 65.6915C64.5028 65.7696 64.343 65.9264 64.2685 65.9829C64.0088 66.1806 63.7045 66.3046 63.3423 66.3601C63.1815 66.3847 62.816 66.3913 62.6525 66.3727ZM76.3936 66.3727C76.0483 66.3335 75.7544 66.2554 75.2976 66.0816C75.2197 66.052 75.217 66.1451 75.3292 64.9883L75.4288 63.964L75.5157 63.9438C75.5633 63.9325 75.6036 63.9242 75.6049 63.9258C75.6066 63.9275 75.6715 64.3123 75.7494 64.7816C75.8652 65.4788 75.8939 65.6363 75.9065 65.6459C75.9455 65.6748 76.1612 65.7726 76.2567 65.8048C76.5098 65.8895 76.7788 65.9131 77.0321 65.8719C77.4233 65.8088 77.7219 65.5845 77.8953 65.2232C78.0122 64.9796 78.0608 64.7277 78.0618 64.3638C78.0625 64.0099 78.0129 63.7736 77.8824 63.5064C77.7928 63.3233 77.6949 63.1927 77.5195 63.0226C77.356 62.8637 77.1723 62.7258 76.7331 62.4317C76.2008 62.0748 75.9748 61.8843 75.7474 61.6012C75.5709 61.3812 75.4321 61.106 75.3452 60.8053C75.1967 60.2898 75.1981 59.5328 75.3485 59.0254C75.4794 58.5827 75.7051 58.2464 76.0353 58.0005C76.2341 57.8522 76.4368 57.7569 76.6875 57.6934C77.105 57.588 77.6916 57.6153 78.2962 57.7685C78.5152 57.824 78.5885 57.8499 78.6035 57.8762C78.6151 57.8968 78.6051 57.9858 78.4996 58.821C78.4353 59.3281 78.3801 59.7508 78.3761 59.7601C78.3714 59.7724 78.3488 59.7824 78.2952 59.7967C78.2542 59.8073 78.2206 59.8156 78.2199 59.815C78.2193 59.8143 78.1607 59.4813 78.0894 59.0749C78.0185 58.6688 77.9586 58.3305 77.9563 58.3228C77.9469 58.2912 77.615 58.166 77.4442 58.1294C77.3344 58.1061 77.1077 58.0968 76.9991 58.1115C76.5211 58.1749 76.1775 58.5069 76.0497 59.028C76.0061 59.2058 75.9937 59.3221 75.9931 59.5584C75.9924 59.9166 76.0407 60.1479 76.1728 60.4201C76.2657 60.6119 76.3696 60.7534 76.547 60.9306C76.7078 61.0907 76.878 61.2194 77.3384 61.5271C77.7645 61.8122 77.9553 61.9575 78.1244 62.1259C78.41 62.4101 78.5818 62.6882 78.7003 63.0585C78.7939 63.3502 78.8305 63.6862 78.8149 64.1043C78.7889 64.7819 78.6228 65.3016 78.3072 65.6915C78.2439 65.7696 78.0841 65.9264 78.0095 65.9829C77.7499 66.1806 77.4456 66.3046 77.0837 66.3601C76.9226 66.3847 76.557 66.3913 76.3936 66.3727ZM46.5348 66.2431C46.5254 66.2275 45.7058 64.7071 44.7137 62.8647C43.7216 61.022 42.9043 59.5086 42.8973 59.5012C42.887 59.4903 42.8857 59.9276 42.8887 62.5394C42.8917 65.2448 42.8937 65.5961 42.9057 65.6406C42.9306 65.7343 42.9346 65.737 43.2246 65.8636L43.4853 65.9769V66.1115V66.2464L43.43 66.2395C43.3588 66.2302 41.9778 66.2302 41.8893 66.2391L41.8217 66.2458L41.817 66.1906C41.8144 66.1604 41.8097 66.1019 41.807 66.0607L41.8024 65.9859L42.0597 65.8719C42.2125 65.8041 42.3297 65.747 42.3477 65.731C42.3647 65.7164 42.3866 65.6868 42.3966 65.6649L42.4149 65.6253L42.4173 62.1127C42.4186 60.143 42.4163 58.5498 42.4119 58.4857C42.4036 58.364 42.39 58.3212 42.3474 58.2823C42.336 58.2716 42.2119 58.2098 42.0714 58.1444L41.816 58.0254L41.8084 57.9011C41.8044 57.8326 41.803 57.7745 41.8054 57.7721C41.808 57.7698 41.9172 57.7722 42.0484 57.7778C42.3773 57.7918 42.7901 57.7921 42.9027 57.7788C42.9533 57.7728 42.9972 57.7712 43.0009 57.7751C43.0045 57.7791 43.7716 59.2008 44.7057 60.9346C45.6396 62.6683 46.4069 64.0907 46.4113 64.0953C46.4153 64.1 46.4176 62.8315 46.4162 61.2463C46.4142 58.8854 46.4116 58.383 46.4019 58.3537C46.3783 58.2833 46.3373 58.2573 46.0787 58.148C45.9482 58.0928 45.8386 58.0453 45.8353 58.0427C45.8323 58.0397 45.8267 57.9762 45.823 57.9018L45.8167 57.7665L45.9305 57.7725C46.3736 57.7954 46.9449 57.7954 47.3797 57.7728L47.4909 57.7668L47.4972 57.8918C47.5009 57.9606 47.5005 58.0201 47.4962 58.0244C47.4919 58.0284 47.3834 58.0795 47.2552 58.1384C46.9536 58.2763 46.9539 58.276 46.9233 58.3384L46.8983 58.3889L46.8926 58.6661C46.8897 58.8183 46.8867 60.582 46.886 62.5856C46.8857 64.5888 46.8823 66.2278 46.8787 66.2278C46.875 66.2278 46.8011 66.2378 46.7142 66.2498C46.6273 66.2621 46.5554 66.2717 46.5541 66.2717C46.5531 66.2717 46.5441 66.2591 46.5348 66.2431ZM69.1044 66.1182C69.1011 66.0474 69.0994 65.9882 69.1011 65.9866C69.1031 65.9852 69.2212 65.9321 69.3641 65.8683C69.654 65.7393 69.6693 65.729 69.6963 65.6416C69.7113 65.5928 69.712 65.4313 69.712 62.0206C69.712 59.1297 69.71 58.4411 69.7006 58.4012C69.6943 58.374 69.678 58.3341 69.6647 58.3128C69.6407 58.2753 69.6311 58.2696 69.3897 58.157C69.2522 58.0928 69.1307 58.0344 69.1197 58.0277C69.1007 58.0154 69.1001 58.0101 69.1001 57.8908V57.7665L69.2079 57.7725C69.6344 57.7957 70.5679 57.7957 70.9994 57.7725L71.1065 57.7668L71.1119 57.8363C71.1149 57.8742 71.1195 57.9317 71.1219 57.9636L71.1265 58.0217L70.8732 58.1341C70.7333 58.1959 70.6072 58.2534 70.5925 58.2623C70.5486 58.2889 70.5266 58.3388 70.5173 58.4355C70.512 58.489 70.5096 59.8515 70.5113 62.0688L70.5136 65.6167L70.5379 65.6665C70.5516 65.6938 70.5752 65.7257 70.5909 65.7377C70.6065 65.7496 70.7307 65.8101 70.8668 65.8726L71.1145 65.9862L71.1202 66.1129C71.1235 66.1823 71.1249 66.2401 71.1239 66.2411C71.1225 66.2421 71.0043 66.2395 70.8615 66.2348C70.6048 66.2265 69.2179 66.2325 69.1473 66.2421L69.1111 66.2471L69.1044 66.1182ZM57.5476 55.3767C58.1775 55.3701 59.2418 55.3545 59.6 55.3468C60.1367 55.3352 60.2662 55.3322 60.7452 55.3203C63.1133 55.2604 64.7882 55.1727 65.8671 55.0521C66.3735 54.9956 66.9255 54.9298 67.3822 54.8713C67.5154 54.8543 67.6722 54.8344 67.7301 54.8274C68.2718 54.7603 69.3135 54.6147 70.1877 54.4841C70.9061 54.3768 70.9351 54.3715 70.969 54.3479C70.985 54.3366 71.1092 54.2445 71.2447 54.1432C72.7861 52.9906 74.3128 51.7052 75.8822 50.2387C76.6276 49.5424 77.3357 48.8466 78.3401 47.8247C78.6038 47.5561 78.9227 47.2318 79.0489 47.1035C79.4248 46.722 80.2544 45.8786 80.3989 45.731L80.533 45.5938V29.094C80.533 15.9045 80.531 12.5923 80.522 12.5854C80.516 12.5807 80.2417 12.487 79.9121 12.3773C79.5829 12.2677 79.2586 12.1567 79.1924 12.1307C78.0445 11.6829 76.7331 10.8396 75.6096 9.82706C75.2823 9.53192 74.8994 9.14782 74.6974 8.91217C74.0898 8.20242 73.369 7.08156 72.8347 6.01492C72.5364 5.42009 72.3566 4.98083 72.2395 4.56176C72.2112 4.45984 72.1865 4.4188 72.1313 4.38128C71.9685 4.27061 71.4288 4.21002 70.3155 4.17748C68.7775 4.13252 67.7028 4.12535 61.0755 4.11589C53.1861 4.10462 43.7236 4.11929 41.4328 4.14634C40.0023 4.16323 38.8095 4.18694 38.3454 4.20773C38.2921 4.21012 38.1893 4.21435 38.1163 4.21714C37.6266 4.23593 37.1269 4.2804 36.9688 4.31929C36.9149 4.33246 36.8419 4.36446 36.8293 4.38025C36.824 4.38709 36.817 4.41238 36.814 4.43651C36.7794 4.69994 36.0936 6.21126 35.6388 7.02609C34.9603 8.24157 34.102 9.28919 33.0911 10.1356C32.4874 10.6412 31.8098 11.0941 31.047 11.5019C30.9221 11.5688 30.2621 11.8953 30.117 11.9621C30.0581 11.9892 29.9635 12.0332 29.9069 12.0599C29.8503 12.0865 29.8027 12.1083 29.8012 12.1083C29.7997 12.1083 29.7694 12.1219 29.7339 12.1384C29.5885 12.2061 29.1745 12.3824 29.0482 12.4305C28.8888 12.4912 28.7562 12.5325 28.6558 12.5526C28.614 12.561 28.575 12.6786 28.5466 12.8821C28.5079 13.1598 28.4853 13.5266 28.4539 14.3812C28.4421 14.7029 28.4249 15.5955 28.4097 16.6718C28.3814 18.6699 28.3703 23.9748 28.3701 35.4914V45.4439L28.5571 45.6383C28.6599 45.7453 28.794 45.8845 28.855 45.9473C28.916 46.0102 29.0567 46.1567 29.1676 46.2727C29.2785 46.3887 29.4171 46.5332 29.4755 46.5937C29.6489 46.7728 29.7319 46.8592 30.4179 47.5741C31.259 48.4504 32.1707 49.3543 33.0034 50.1373C34.3617 51.4148 35.9078 52.7304 37.2358 53.739L37.3064 53.7926L37.5131 53.8298C38.0358 53.9235 38.2152 53.9554 38.3544 53.9796C38.4369 53.9936 38.5498 54.0135 38.6054 54.0232C39.1351 54.1162 40.3805 54.318 40.9661 54.4057C41.017 54.4133 41.1379 54.4316 41.2348 54.4462C41.869 54.5409 42.7742 54.6686 43.3574 54.7447C43.435 54.755 43.5878 54.7749 43.6967 54.7892C44.0389 54.8337 44.8672 54.9357 45.2251 54.9773C45.4138 54.9992 45.6003 55.0208 45.6389 55.0258C45.7371 55.0378 46.3716 55.1076 46.6739 55.1395C47.2762 55.2033 47.8964 55.2432 48.9993 55.2893C49.3552 55.3043 50.2887 55.3322 50.9106 55.3465C51.2934 55.3551 52.2229 55.3701 52.7912 55.3767C53.5236 55.3851 56.7756 55.3851 57.5479 55.3767H57.5476ZM55.5225 54.1658C55.4795 54.085 55.369 53.8786 55.2771 53.7068C55.1849 53.5353 55.0367 53.2582 54.9475 53.0913C54.8583 52.9245 54.7824 52.7856 54.7791 52.7823C54.7757 52.7793 54.6815 52.9275 54.5693 53.1119C54.4575 53.2967 54.3613 53.4476 54.3559 53.4476C54.3509 53.4476 54.3176 53.4233 54.2824 53.3941C54.2471 53.3645 53.8932 53.0721 53.496 52.7441C52.8049 52.1731 52.71 52.0947 52.3684 51.8122C51.9609 51.4749 51.8458 51.3799 51.7086 51.2665C51.627 51.1991 51.5258 51.1153 51.4842 51.0808C51.4359 51.0409 51.4073 51.0223 51.4056 51.0299C51.403 51.0416 51.4702 51.5188 51.4805 51.5607C51.4845 51.5769 51.4829 51.5809 51.4732 51.5773C51.4662 51.5746 51.2585 51.5141 51.0118 51.443C50.7648 51.3719 50.4675 51.2862 50.3513 51.2526C50.2351 51.219 50.029 51.1595 49.8932 51.1207C49.7577 51.0818 49.5952 51.0346 49.532 51.0163C49.4691 50.9977 49.3046 50.9505 49.1665 50.9106C49.0286 50.8711 48.7966 50.8043 48.6508 50.7621L48.3864 50.6856L48.1401 50.5185C47.6713 50.2001 47.4856 50.0755 47.4806 50.0755C47.4779 50.0755 47.4746 50.23 47.4733 50.4185L47.4709 50.7614L47.3158 50.6318C47.0827 50.4367 46.4269 49.8861 46.1666 49.6667C46.0401 49.5604 45.8047 49.3623 45.6432 49.2271C45.4818 49.0915 45.2441 48.8917 45.1145 48.7831C44.9854 48.6741 44.783 48.5039 44.6648 48.4049C44.2237 48.0347 43.8305 47.7043 43.7449 47.6326C43.6967 47.5917 43.6188 47.5262 43.5718 47.4873L43.4866 47.4162L43.2462 46.9061C43.1144 46.6253 42.9759 46.3325 42.9393 46.2551C42.9023 46.1776 42.8088 45.9789 42.7315 45.8138C42.6543 45.6483 42.5877 45.514 42.5834 45.515C42.5767 45.517 42.339 45.8875 42.0734 46.3102C42.0238 46.389 41.9752 46.4638 41.9652 46.4764L41.9469 46.4993L41.8317 46.1617C41.7231 45.8437 41.6715 45.6938 41.3709 44.8174C41.3037 44.6217 41.1995 44.317 41.1389 44.1405C41.0786 43.964 40.9295 43.5287 40.8076 43.1731C40.6858 42.8178 40.5583 42.446 40.5243 42.3466C40.4904 42.2476 40.3892 41.9528 40.2993 41.6916C40.2094 41.4304 40.1068 41.1316 40.0719 41.0279C40.0366 40.9239 39.96 40.7003 39.9018 40.5311C39.8438 40.3616 39.7443 40.0708 39.6807 39.8847C39.6171 39.6986 39.5602 39.5365 39.5542 39.5242C39.5459 39.5069 39.5426 39.0336 39.5389 37.3534L39.5346 35.2043L39.2263 35.0115C39.0568 34.9052 38.6803 34.6699 38.3897 34.4881C38.0987 34.3063 37.7415 34.083 37.5953 33.9916L37.3293 33.8254L37.4146 33.703C37.4615 33.6357 37.5534 33.5033 37.6186 33.4088C37.6842 33.3144 37.7911 33.1601 37.8567 33.0659C37.9219 32.9717 38.0291 32.8174 38.0944 32.7229C38.16 32.6283 38.2352 32.5196 38.2618 32.4813C38.3694 32.3265 38.4819 32.1638 38.5588 32.0519L38.6397 31.9338L38.3694 31.7475C38.2205 31.6451 37.9362 31.4493 37.7378 31.3125C37.5391 31.1757 37.3713 31.0586 37.3646 31.0524C37.353 31.0413 37.5627 30.7331 38.5085 29.3729C38.5738 29.2788 38.7039 29.0912 38.7975 28.956C38.891 28.8208 39.0575 28.5802 39.1674 28.4214C39.2772 28.2627 39.3741 28.1223 39.3824 28.1096L39.3974 28.0864L38.933 27.763C38.6776 27.5851 38.3897 27.3845 38.2928 27.3171C38.1956 27.2498 38.1153 27.1936 38.1137 27.1922C38.112 27.1908 38.1297 27.1626 38.1526 27.1295C38.1756 27.0963 38.2249 27.0257 38.2618 26.9725C38.2988 26.9193 38.355 26.8382 38.3867 26.7923C38.4183 26.7463 38.4636 26.6808 38.4875 26.6466C38.5112 26.6124 38.6257 26.4471 38.7419 26.2792C38.8581 26.1113 39.0089 25.8939 39.0768 25.7962C39.1451 25.6984 39.2799 25.5037 39.3771 25.3634C39.474 25.2232 39.741 24.8379 39.9703 24.5071C40.1994 24.1764 40.3875 23.8999 40.3882 23.8926C40.3888 23.8813 39.9946 23.6445 39.3302 23.2574L39.2403 23.205L39.3128 23.1016C39.3528 23.0447 39.423 22.9437 39.469 22.877C39.5146 22.8104 39.5915 22.6997 39.6394 22.6309C39.6874 22.5621 39.7872 22.4179 39.8615 22.3105C39.9357 22.2032 40.0096 22.0963 40.0259 22.0732C40.0423 22.05 40.265 21.7283 40.5213 21.3583C40.7777 20.9884 41.0114 20.6512 41.0403 20.6091C41.0696 20.567 41.282 20.2607 41.5121 19.9283C41.9745 19.2605 42.7322 18.167 42.9127 17.9072C43.0861 17.6572 43.2865 17.3679 43.4367 17.151C43.5102 17.0446 43.6464 16.8473 43.7396 16.7126C43.8328 16.578 43.9071 16.4656 43.9041 16.4629C43.9014 16.4602 43.8208 16.4762 43.7253 16.4985C43.6294 16.5208 43.464 16.5593 43.3574 16.5839C43.2509 16.6086 43.133 16.6359 43.0954 16.6447C43.0461 16.6561 43.0252 16.6578 43.0195 16.6507C43.0099 16.6382 42.8334 16.2974 42.8334 16.2912C42.8334 16.2886 42.9017 16.2254 42.9852 16.1508C43.159 15.9957 44.229 15.0381 44.3615 14.9189C44.4101 14.8754 44.4833 14.8095 44.5246 14.7724C44.6112 14.6946 44.787 14.5372 45.0793 14.2757C45.3386 14.0439 45.8743 13.5638 45.9914 13.4585C46.04 13.4147 46.1905 13.28 46.3257 13.1591C46.7538 12.7762 46.8807 12.6615 46.8827 12.6552C46.884 12.6518 46.7155 12.5661 46.5085 12.4646C46.3014 12.3632 45.8763 12.154 45.564 11.9998C45.2514 11.8456 44.9404 11.6926 44.8725 11.6599C44.8046 11.6271 44.5429 11.4985 44.2913 11.374C44.0392 11.2496 43.722 11.0934 43.5865 11.0269C43.2785 10.8759 42.8467 10.6634 42.3444 10.4157C42.1313 10.3106 41.8816 10.1879 41.7894 10.1431C41.6975 10.0984 41.4042 9.95398 41.1379 9.82224C40.8712 9.69051 40.5859 9.55004 40.5037 9.51009C40.4211 9.47011 40.1478 9.33582 39.8958 9.21163C39.6438 9.08744 39.2889 8.91247 39.1068 8.82287L38.7758 8.6599L40.3246 7.88691L41.8736 7.11392L44.4211 7.11618L46.9689 7.11841L47.2552 7.20894C47.4127 7.25872 47.5851 7.31279 47.6384 7.3291C47.6916 7.34542 47.8441 7.39241 47.9773 7.43352C48.1108 7.47463 48.2336 7.51212 48.2506 7.51684C48.2782 7.52455 49.6272 7.93862 50.2587 8.13333C50.3969 8.17587 51.2155 8.42734 52.0778 8.6921L53.6455 9.17354L53.7137 9.25948C53.773 9.33416 53.7863 9.34619 53.8153 9.3513C53.8622 9.35968 54.8656 9.55735 54.8906 9.56316C54.9019 9.56582 54.9099 9.56426 54.9082 9.55971C54.9066 9.55515 54.8576 9.50879 54.7994 9.45669C54.7414 9.40458 54.6006 9.27826 54.4868 9.17597C54.3729 9.07368 54.1768 8.89748 54.0507 8.78446C53.9248 8.67143 53.784 8.54478 53.738 8.50304C53.6921 8.4613 53.2383 8.05374 52.7296 7.59736C52.2209 7.14094 51.7475 6.71593 51.6776 6.65282C51.6074 6.58971 51.5082 6.50052 51.4566 6.45456C51.0171 6.06328 50.8334 5.89266 50.8557 5.89642C50.869 5.89864 50.9552 5.90639 51.0471 5.9136C51.2668 5.93081 51.7039 5.96607 52.0338 5.99316C52.179 6.00509 52.4187 6.02466 52.5665 6.03662C53.0376 6.07478 53.3828 6.10282 53.6565 6.12516C53.8033 6.13712 54.045 6.15679 54.1938 6.16892C54.3429 6.18102 54.562 6.19897 54.6805 6.20874C54.7994 6.21851 55.0637 6.24014 55.2685 6.25682L55.6403 6.2871L55.916 6.42677C56.0674 6.50361 56.3934 6.66844 56.6404 6.79306C56.8874 6.91772 57.2483 7.09977 57.4421 7.1976C57.6358 7.29544 58.1968 7.57835 58.6885 7.8263C59.1802 8.07421 59.5907 8.28544 59.601 8.29564C59.6113 8.30588 59.7405 8.48041 59.888 8.68353C60.0358 8.88665 60.2795 9.221 60.4296 9.42654C60.5794 9.63205 60.8411 9.99013 61.0106 10.2223C61.18 10.4544 61.3551 10.6941 61.3997 10.7549L61.4806 10.8655L61.5932 10.8886C61.6548 10.9014 61.72 10.9143 61.738 10.9175C61.7706 10.9231 61.8159 10.9593 62.1721 11.2637C62.2157 11.301 62.4634 11.511 62.7228 11.7303C62.9818 11.9496 63.2314 12.1612 63.2777 12.2005C63.3946 12.3003 63.5314 12.4163 63.9822 12.7984C64.5055 13.2415 64.7975 13.4893 64.9426 13.6134L65.0628 13.716L65.1251 13.8948C65.1913 14.085 65.4576 14.8421 65.6424 15.3661C65.7423 15.6483 66.1927 16.9274 66.3256 17.3048C66.4384 17.6259 66.7187 18.4224 66.8492 18.7935L66.9881 19.1874L66.8978 19.5233C66.8482 19.708 66.7806 19.9601 66.7477 20.0834C66.6844 20.3209 66.6841 20.322 66.5886 20.6769C66.3562 21.5407 66.3166 21.6917 66.3166 21.708C66.3166 21.7181 66.3525 21.874 66.3968 22.0545C66.4411 22.235 66.494 22.4519 66.5146 22.5365C66.5353 22.6212 66.6355 23.0307 66.737 23.4466L66.9218 24.2028L66.9012 24.4798C66.8898 24.6321 66.8705 24.8952 66.8582 25.0645C66.8263 25.5078 66.8026 25.8257 66.7843 26.0669L66.7683 26.2779L66.6801 26.4625C66.6315 26.5641 66.5323 26.7718 66.4594 26.9241C66.3868 27.0765 66.2809 27.2981 66.224 27.4165C66.1674 27.535 66.0842 27.7091 66.0392 27.8034C65.9943 27.8977 65.932 28.0283 65.9008 28.0936C65.8695 28.1589 65.7989 28.3063 65.744 28.4213C65.6894 28.5363 65.6434 28.6292 65.6417 28.6277C65.6404 28.6263 65.5812 28.4927 65.5102 28.3308C65.4393 28.1689 65.3345 27.9296 65.2772 27.799C65.2199 27.6685 65.0655 27.3163 64.9333 27.0165C64.8015 26.7166 64.6813 26.4431 64.666 26.4085L64.6383 26.3457L64.0321 25.8078C63.6985 25.5119 63.4212 25.2717 63.4155 25.2738C63.4099 25.276 63.2707 25.4696 63.1059 25.704L62.8066 26.1303L62.1648 26.3139C61.8119 26.4149 61.5186 26.5004 61.5133 26.5037C61.5076 26.5071 61.5049 26.5117 61.5073 26.5138C61.5096 26.5158 61.6245 26.6004 61.7626 26.7015C62.0443 26.9081 62.5366 27.2698 62.6039 27.3197C62.6492 27.3536 62.779 27.4491 63.1176 27.6983C63.2258 27.7779 63.4042 27.9094 63.5141 27.9905C63.6236 28.0717 63.7511 28.1655 63.7974 28.199C63.9106 28.2815 64.946 29.0461 65.3694 29.3601C67.036 30.595 67.6103 31.0277 67.6635 31.0882C67.6895 31.1179 67.6905 31.1218 67.6905 31.202V31.2851L67.803 31.41C67.8646 31.4787 67.9845 31.6126 68.0694 31.7075C68.2175 31.8733 68.4692 32.1542 68.8224 32.5471C68.9136 32.6487 69.169 32.9334 69.3897 33.1799C69.6108 33.4264 69.8252 33.6655 69.8661 33.7113C69.9074 33.7571 69.9786 33.8367 70.0249 33.8881C70.0708 33.9395 70.2413 34.1294 70.4034 34.31C70.5659 34.4908 70.777 34.726 70.8725 34.8327L71.0466 35.0268V37.262V39.4972L70.9065 39.8997C70.467 41.1609 70.249 41.788 70.1507 42.0698C70.0902 42.2439 70.0232 42.4357 70.0026 42.4961C69.9816 42.5566 69.935 42.6912 69.8987 42.7952C69.7985 43.0824 69.4972 43.9477 69.2173 44.7516C69.0794 45.1481 68.9353 45.5615 68.8973 45.6705C68.859 45.7792 68.8124 45.9138 68.7931 45.9693C68.7372 46.1315 68.6074 46.5043 68.5824 46.5744C68.5687 46.6133 68.5574 46.6343 68.5538 46.6273C68.5504 46.621 68.4572 46.399 68.346 46.1341C68.2352 45.8692 68.1426 45.6529 68.1399 45.6532C68.1373 45.6532 68.1246 45.6762 68.1116 45.7038C68.0987 45.7313 67.9712 45.9912 67.8287 46.2813C67.6862 46.5715 67.4898 46.9712 67.3925 47.1696L67.2154 47.5299L66.8825 47.81C66.5216 48.1138 66.4038 48.2128 65.9554 48.5893C65.7929 48.7256 65.6164 48.8738 65.5632 48.9187C65.5099 48.9639 65.2742 49.1619 65.0392 49.359C64.8041 49.5564 64.4932 49.8176 64.3477 49.9399C63.309 50.8133 63.2341 50.8757 63.2294 50.8757C63.2268 50.8757 63.2248 50.7491 63.2248 50.5942C63.2248 50.4397 63.2228 50.3131 63.2205 50.3131C63.2181 50.3131 63.1019 50.3955 62.9624 50.4962C62.8226 50.5972 62.6988 50.686 62.6868 50.6936C62.6751 50.7013 62.5902 50.7239 62.498 50.7438C62.4061 50.7637 62.3069 50.7857 62.278 50.7927C62.2487 50.7996 61.9098 50.8747 61.5246 50.9595C61.1394 51.0442 60.7829 51.123 60.7319 51.1346C60.681 51.1462 60.4196 51.2041 60.1507 51.2632C59.7618 51.3486 59.6563 51.3746 59.6353 51.3908C59.6206 51.4018 59.4266 51.562 59.2038 51.7464C58.9808 51.9309 58.6795 52.1801 58.5343 52.3001C58.3889 52.42 58.1944 52.5809 58.1019 52.6577C57.4128 53.2279 57.1278 53.4622 57.1255 53.4596C57.1181 53.4509 56.6424 52.7687 56.6357 52.7574C56.6291 52.7457 56.6267 52.7457 56.6158 52.7574C56.6041 52.7693 56.42 53.0528 55.8274 53.9707C55.7136 54.1471 55.616 54.2964 55.6107 54.3023C55.6037 54.31 55.5811 54.2751 55.5225 54.1658ZM55.7845 53.2429C55.861 53.1232 55.9636 52.9641 56.0125 52.8893C56.0611 52.8142 56.1893 52.6165 56.2968 52.4496C56.4047 52.2828 56.8022 51.6683 57.1807 51.0841L57.8688 50.0217L57.9088 49.6684C57.9311 49.474 57.9667 49.1586 57.9884 48.9675C58.0097 48.7768 58.0513 48.4086 58.0806 48.15C58.1099 47.8911 58.1395 47.6279 58.1465 47.5651C58.1535 47.5023 58.1815 47.257 58.2084 47.0201C58.2634 46.5336 58.3063 46.1544 58.4015 45.3099C58.4378 44.9883 58.4778 44.636 58.4901 44.5273C58.5024 44.4186 58.5204 44.2601 58.5297 44.1757C58.5393 44.091 58.569 43.8278 58.5959 43.5908C58.6226 43.3539 58.6569 43.0531 58.6715 42.9225C58.6865 42.7919 58.6971 42.6753 58.6951 42.6633C58.6935 42.651 58.5154 42.4018 58.2996 42.1093C58.0842 41.8165 57.6305 41.2014 57.2916 40.7421C56.9527 40.2825 56.4416 39.5893 56.1557 39.2015C55.87 38.8133 55.6327 38.4969 55.628 38.4986C55.6237 38.4999 55.5325 38.6312 55.4256 38.7904C55.0507 39.349 54.4718 40.2104 54.1169 40.7375C53.7024 41.3536 53.3382 41.8953 53.0416 42.338L52.8322 42.65L52.8445 42.7381C52.8512 42.7863 52.8848 43.0415 52.9191 43.305C52.9956 43.8939 53.0406 44.2392 53.0812 44.5492C53.1305 44.9278 53.1381 44.9863 53.1664 45.1999C53.1811 45.3113 53.2007 45.4622 53.21 45.5353C53.2194 45.6087 53.2487 45.8344 53.2753 46.0367C53.3256 46.4196 53.3289 46.4445 53.3858 46.8838C53.4188 47.1377 53.4444 47.3325 53.4827 47.6223C53.492 47.6924 53.5117 47.8429 53.5263 47.9566C53.541 48.0702 53.5673 48.27 53.5842 48.4006C53.6894 49.2058 53.7157 49.4075 53.7683 49.8163C53.781 49.913 53.7933 50.002 53.796 50.014C53.7986 50.026 53.8985 50.2181 54.0174 50.4404C54.2534 50.8814 54.6779 51.6733 54.7381 51.7856C54.7591 51.8245 54.847 51.9887 54.9335 52.1505C55.5042 53.2176 55.6353 53.4609 55.64 53.4606C55.6426 53.4606 55.7079 53.3625 55.7845 53.2429ZM57.5006 52.5949C57.6525 52.4692 57.8579 52.2994 57.9574 52.2173C58.0566 52.1349 58.2071 52.0106 58.292 51.9405C58.4481 51.8112 58.5996 51.6859 58.827 51.4982C58.9948 51.3596 59.1709 51.214 59.358 51.0595C59.4425 50.9897 59.5774 50.8784 59.6573 50.8123C59.7372 50.7465 59.9359 50.5823 60.0984 50.4477C60.2612 50.3131 60.43 50.1739 60.4732 50.1383L60.5525 50.0732L60.8355 49.1799C60.9909 48.6884 61.1823 48.0845 61.2606 47.8379C61.3388 47.591 61.488 47.1201 61.5922 46.7915C61.7736 46.2189 61.8452 45.9932 62.032 45.4043C62.0782 45.2581 62.2034 44.864 62.3093 44.5286L62.5024 43.9188L62.227 43.5486C61.4317 42.4782 60.8967 41.7584 60.6573 41.4367C60.5458 41.2868 60.4246 41.1236 60.3884 41.0741C60.3521 41.0249 60.3191 40.9844 60.3151 40.9841C60.3111 40.9841 60.143 41.1409 59.9412 41.3333C59.7398 41.5254 59.4482 41.8036 59.2934 41.9511C59.1386 42.0984 59.0008 42.2283 58.9868 42.2396C58.9728 42.2509 58.9615 42.2642 58.9615 42.2692C58.9615 42.2745 59.0034 42.3356 59.055 42.4054L59.1486 42.5327L59.1169 42.8155C59.0757 43.1837 58.9848 43.9876 58.9572 44.2282C58.9455 44.3322 58.9215 44.5419 58.9045 44.6945C58.8876 44.8467 58.8579 45.1099 58.8386 45.279C58.8193 45.4482 58.7977 45.6403 58.7904 45.7054C58.7661 45.9211 58.6985 46.5209 58.6489 46.9586C58.6063 47.3338 58.54 47.922 58.4991 48.2863C58.4917 48.3491 58.4724 48.5212 58.4554 48.6688C58.4105 49.0636 58.3482 49.6159 58.3183 49.8864C58.3036 50.017 58.2887 50.1376 58.2847 50.1546C58.2807 50.1715 58.1069 50.4487 57.8985 50.7701C57.6901 51.0917 57.3918 51.5527 57.2356 51.7946C57.0792 52.0362 56.9344 52.2599 56.9137 52.2914L56.8761 52.3486L56.9127 52.4011C57.1464 52.7364 57.212 52.8281 57.218 52.8258C57.2217 52.8245 57.3488 52.7205 57.5006 52.5949ZM54.2764 52.764C54.289 52.7434 54.3533 52.6374 54.4192 52.5284L54.5397 52.3303L54.2524 51.7943C53.6035 50.5823 53.5856 50.5487 53.3895 50.1812C53.3832 50.1689 53.3658 50.0642 53.3509 49.9482C53.3362 49.8319 53.3102 49.6302 53.2929 49.4996C53.276 49.369 53.248 49.1553 53.231 49.0247C53.214 48.8941 53.1824 48.6528 53.1611 48.4883C53.1395 48.3241 53.1162 48.144 53.1088 48.0885C53.1015 48.0327 53.0719 47.8054 53.0426 47.5827C53.0136 47.3604 52.9837 47.1308 52.976 47.0729C52.9187 46.6323 52.8888 46.4026 52.8658 46.2242C52.8512 46.1105 52.8335 45.9763 52.8265 45.9254C52.8195 45.8746 52.8039 45.7559 52.7916 45.6615C52.7792 45.5672 52.7516 45.3535 52.73 45.1867C52.708 45.0198 52.6824 44.8221 52.6727 44.747C52.6451 44.5343 52.5429 43.7503 52.5176 43.5603C52.5053 43.4659 52.47 43.1987 52.4393 42.9667L52.3834 42.5447L52.475 42.4064C52.5252 42.3303 52.5605 42.2705 52.5532 42.2732C52.5412 42.2778 52.4643 42.2074 52.0735 41.8322C51.8974 41.6633 51.2448 41.0439 51.1996 41.0027L51.1583 40.9651L50.9882 41.1934C50.8946 41.3191 50.7185 41.556 50.597 41.7195C50.4755 41.883 50.2597 42.1731 50.1176 42.3642C49.9758 42.5553 49.833 42.7471 49.8007 42.7906C49.6455 43.0003 49.0449 43.8078 49.011 43.8527L48.9727 43.9035L49.0836 44.2528C49.1445 44.4449 49.2294 44.7128 49.2723 44.8483C49.3466 45.0833 49.5313 45.6662 49.7081 46.2242C49.9125 46.8682 50.0267 47.2281 50.2028 47.7851C50.4019 48.4139 50.5384 48.8439 50.7222 49.4228C50.7831 49.6149 50.8533 49.8362 50.8776 49.915L50.9223 50.0575L51.3987 50.451C51.9976 50.9455 52.1367 51.0605 52.3288 51.2194C52.4137 51.2895 52.6574 51.4912 52.8705 51.667C53.3432 52.0575 53.4184 52.12 54.054 52.6457C54.1572 52.7311 54.2444 52.8012 54.2477 52.8012C54.2511 52.8012 54.2637 52.7846 54.2764 52.764ZM50.9545 50.9635C50.9545 50.9532 50.9023 50.6102 50.8993 50.6019C50.8983 50.5989 50.824 50.5361 50.7345 50.4623C50.6449 50.3885 50.5667 50.3237 50.561 50.3184C50.555 50.3131 50.5101 50.1818 50.4612 50.0273C50.1532 49.0566 49.9288 48.3487 49.8579 48.1234C49.813 47.9808 49.7377 47.7436 49.6908 47.596C49.6439 47.4485 49.5203 47.0586 49.4161 46.73C49.2057 46.065 49.0749 45.6522 48.8655 44.9932C48.7879 44.749 48.6731 44.3861 48.6098 44.1867L48.4953 43.8238L48.5938 43.6905C48.6481 43.6174 48.694 43.5529 48.696 43.5476C48.698 43.5423 48.6175 43.4758 48.5169 43.3997C48.2253 43.1791 48.0013 43.0096 47.6647 42.7557C47.4919 42.6251 47.2685 42.4559 47.1683 42.3798C47.0684 42.3037 46.9839 42.2416 46.9809 42.2413C46.9775 42.2413 46.9396 42.2974 46.8963 42.3665C46.7858 42.542 46.375 43.194 46.0527 43.7051C45.5833 44.4496 45.5287 44.537 45.5287 44.5449C45.5287 44.5532 45.6196 44.7839 45.9382 45.5825C46.0434 45.846 46.1985 46.2358 46.2834 46.4485C46.368 46.6612 46.5278 47.063 46.6386 47.3411C46.7495 47.6189 46.9695 48.1709 47.1277 48.5677C47.2855 48.9642 47.4356 49.3407 47.4613 49.4045L47.5075 49.5208L47.5728 49.5677C47.6324 49.6102 47.7626 49.7039 48.2593 50.0622C48.3538 50.1303 48.465 50.2104 48.5066 50.2403C48.5905 50.3005 48.5389 50.2829 49.1182 50.4494C49.4361 50.5407 49.7018 50.6172 50.0034 50.7043C50.1269 50.7401 50.2994 50.7897 50.3866 50.8149C50.4738 50.8398 50.6303 50.8854 50.7345 50.9156C50.9316 50.9731 50.9545 50.9781 50.9545 50.9635ZM61.463 50.5321C62.008 50.4118 62.4624 50.3114 62.4724 50.3088C62.4824 50.3065 62.7301 50.1323 63.023 49.9216L63.555 49.5385L63.6043 49.4178C63.6316 49.3517 63.7341 49.0955 63.8324 48.8489C64.1822 47.9702 64.3703 47.4976 64.5415 47.0683C64.637 46.829 64.7639 46.5106 64.8234 46.3604C64.883 46.2105 65.0259 45.8526 65.1407 45.5648C65.2552 45.277 65.3911 44.9367 65.4417 44.8088C65.4926 44.6805 65.5359 44.5715 65.5379 44.5665C65.5402 44.5615 65.5242 44.53 65.5029 44.4961C65.4553 44.4206 65.2236 44.0534 64.7882 43.3622C64.6054 43.0721 64.374 42.7052 64.2741 42.5467C64.1743 42.3885 64.0894 42.2589 64.0854 42.2589C64.0784 42.2589 63.9299 42.3702 63.0676 43.0226C62.8416 43.1934 62.6492 43.3386 62.6399 43.3452C62.6219 43.3579 62.6209 43.3569 62.8749 43.6955L62.9798 43.8351L62.9668 43.8803C62.9594 43.9049 62.8915 44.1209 62.8153 44.3602C62.7394 44.5998 62.6419 44.9062 62.5992 45.0418C62.52 45.293 62.4158 45.622 62.269 46.0836C62.0902 46.6466 62.011 46.8968 61.8036 47.5521C61.6847 47.9267 61.5356 48.3976 61.472 48.5983C61.4084 48.799 61.2593 49.2696 61.1404 49.6441C61.0219 50.0187 60.9194 50.3291 60.913 50.3344C60.8488 50.3856 60.4639 50.7056 60.437 50.7302L60.4017 50.7624L60.437 50.7568C60.4563 50.7538 60.918 50.6527 61.463 50.5321ZM46.9672 49.48C46.8777 49.249 46.7259 48.8562 46.63 48.6073C46.5338 48.358 46.3973 48.0044 46.3264 47.821L46.1972 47.488L46.085 47.3508C46.0231 47.2753 45.4844 46.6113 44.8878 45.8756L43.8029 44.5376L43.5558 43.7344C43.42 43.2927 43.3052 42.9235 43.3008 42.9139C43.2908 42.8906 43.2955 42.8747 43.2166 43.1997C43.153 43.4622 43.0991 43.6815 42.8764 44.5871C42.8238 44.8015 42.7805 44.9819 42.7805 44.9879C42.7805 44.9942 42.9077 45.2581 43.0635 45.5745C43.2189 45.8909 43.3791 46.2169 43.419 46.2989C43.4593 46.3814 43.5692 46.605 43.6634 46.7961L43.8345 47.1437L43.9227 47.2182C43.9713 47.259 44.1687 47.4252 44.3618 47.587C44.5546 47.7492 44.8043 47.9589 44.9168 48.0533C45.029 48.1473 45.2527 48.3354 45.4142 48.4707C45.5753 48.6063 45.825 48.816 45.9685 48.9369C46.1123 49.0579 46.388 49.2892 46.581 49.4514C46.7745 49.6132 46.9722 49.7801 47.0212 49.8223C47.0698 49.8641 47.1144 49.8987 47.1197 49.899C47.1254 49.8994 47.0568 49.7106 46.9672 49.48ZM64.1589 49.5348C64.2568 49.4527 64.4662 49.2766 64.6244 49.1437C64.7822 49.0111 65.0265 48.8057 65.167 48.688C65.3075 48.5701 65.5036 48.4052 65.6031 48.3218C65.7686 48.1826 66.1827 47.835 66.6751 47.4215L66.8705 47.2574L66.9102 47.174C66.9318 47.1281 67.0297 46.928 67.1272 46.73C67.2251 46.5316 67.3416 46.2943 67.3866 46.2022C67.4312 46.1105 67.5713 45.8247 67.6982 45.5672L67.9285 45.0989L67.9019 44.9251C67.8873 44.8297 67.8613 44.6586 67.8443 44.5449C67.8273 44.4313 67.7994 44.2472 67.7824 44.1362C67.7654 44.0248 67.7378 43.8427 67.7208 43.7314C67.7038 43.6204 67.6765 43.4403 67.6599 43.3316C67.6436 43.2226 67.6283 43.1239 67.6266 43.1116L67.6233 43.0897L67.6123 43.1159C67.6063 43.1306 67.5051 43.4529 67.3879 43.8328L67.1745 44.523L67.0523 44.6812C66.8725 44.9135 66.7204 45.1102 66.4574 45.4505C66.3282 45.6173 66.0273 46.0072 65.7882 46.3166C65.2792 46.9756 65.1484 47.1447 64.9436 47.4089L64.7922 47.6047L64.6214 48.0334C64.4076 48.5711 64.1892 49.1191 64.0624 49.4368C64.0085 49.5717 63.9645 49.6837 63.9645 49.686C63.9645 49.6963 63.9915 49.6754 64.1589 49.5348ZM45.6382 46.0434C45.6162 45.9856 45.587 45.9088 45.5733 45.8726C45.5597 45.8364 45.4701 45.6047 45.3746 45.3581C45.1851 44.8699 45.1472 44.7716 45.0846 44.6081L45.043 44.5001L45.0596 44.4718C45.0746 44.4466 45.1818 44.2764 45.6748 43.4941C45.9432 43.0684 46.1003 42.8192 46.4762 42.2236C46.6227 41.9913 46.6573 41.9302 46.6896 41.8455C46.7109 41.79 47.0172 40.9754 47.3707 40.0356L48.0136 38.3268L47.96 38.0483C47.9307 37.8954 47.899 37.7306 47.8897 37.6821C47.8804 37.6339 47.8581 37.5169 47.8401 37.4229C47.8225 37.3285 47.8068 37.2504 47.8062 37.2494C47.8052 37.2481 47.7512 37.263 47.6863 37.2826C47.6211 37.3019 47.5282 37.3295 47.4799 37.3434C47.4313 37.3577 47.3244 37.389 47.2419 37.4132C47.1596 37.4375 46.8683 37.5229 46.5944 37.603C46.3207 37.6831 46.0174 37.7721 45.9205 37.8007C45.8237 37.8293 45.6948 37.8672 45.6346 37.8848C45.4122 37.9496 45.3536 37.9666 45.1895 38.0147C45.0976 38.042 44.8143 38.1251 44.5599 38.1995C44.3056 38.2743 43.9657 38.374 43.8045 38.4212L43.5116 38.5076V40.3181V42.1289L43.7017 42.7457C43.8062 43.0847 43.9307 43.4888 43.9783 43.6437C44.0262 43.7985 44.0932 44.0155 44.1271 44.1259C44.1614 44.2365 44.1927 44.3316 44.1974 44.3369C44.2193 44.3645 45.4608 45.8958 45.5587 46.0161C45.6206 46.0926 45.6732 46.1534 45.6752 46.1514C45.6768 46.1497 45.6605 46.1009 45.6382 46.0434ZM65.5242 45.9517C65.5935 45.8623 65.708 45.7137 65.7792 45.622C65.8502 45.5303 66.0506 45.2711 66.224 45.0461C66.3978 44.8211 66.5799 44.5858 66.6285 44.523C66.7737 44.3356 66.7896 44.3133 66.7993 44.2811C66.8043 44.2641 66.8482 44.1219 66.8968 43.9647C66.9451 43.8075 67.0939 43.324 67.2278 42.8903L67.4704 42.102L67.4681 40.2968L67.4658 38.4916L67.3999 38.4727C67.3636 38.462 67.2564 38.4308 67.1622 38.4032C67.0676 38.3753 66.9368 38.3371 66.8715 38.3182C66.762 38.2862 66.6485 38.253 66.246 38.1344C66.1661 38.1108 65.944 38.0456 65.7526 37.9898C65.2795 37.8516 65.0931 37.7967 64.9423 37.7519C64.872 37.7313 64.7512 37.6957 64.6736 37.6731C64.5381 37.6336 64.4845 37.6179 64.3124 37.5674C64.2688 37.5548 64.1816 37.5292 64.1187 37.5109C63.8244 37.4249 63.4112 37.3039 63.3017 37.2713C63.2351 37.2514 63.1778 37.2378 63.1748 37.2411C63.1679 37.2481 62.9701 38.271 62.9694 38.3022C62.9691 38.3142 63.0244 38.4707 63.0916 38.6495C63.1589 38.8283 63.4405 39.5773 63.7175 40.3138L64.2212 41.653L64.4772 42.0591C64.8601 42.666 65.1953 43.198 65.44 43.5865C65.7263 44.0411 65.9687 44.4253 65.9996 44.4738L66.0243 44.5127L66.0083 44.5529C65.8948 44.8374 65.6338 45.4931 65.5266 45.7622C65.4517 45.9503 65.3884 46.1082 65.3854 46.1128C65.3827 46.1175 65.3844 46.1195 65.3894 46.1178C65.3947 46.1158 65.4553 46.0411 65.5242 45.9517ZM42.2255 45.2637C42.3094 45.1318 42.3813 45.0142 42.3853 45.0022C42.3893 44.9899 42.403 44.8872 42.4153 44.7736C42.4359 44.5861 42.4446 44.5396 42.5088 44.2767C42.5907 43.9431 42.6766 43.5935 42.912 42.6351L43.0801 41.9521V40.335V38.7183L43.186 38.4757L43.2918 38.2327L43.2609 37.6366C43.2436 37.3085 43.2219 36.8858 43.2123 36.6974C43.2026 36.5086 43.1906 36.2793 43.1856 36.1873C43.1753 35.9969 43.158 35.6642 43.1327 35.1674C43.1234 34.9789 43.1094 34.7138 43.1021 34.5782C43.0948 34.4429 43.0788 34.1362 43.0665 33.8968C43.0545 33.6575 43.0365 33.3152 43.0272 33.1363C43.0179 32.9573 43.0075 32.7595 43.0045 32.6966C42.9776 32.1583 42.9603 31.8561 42.9563 31.8545C42.9519 31.8527 42.7149 32.1141 41.9182 33C41.7897 33.1426 41.6526 33.295 41.613 33.3385C41.5733 33.382 41.4824 33.4829 41.4109 33.5627C41.3393 33.6425 41.2644 33.7256 41.2444 33.7473C41.2244 33.7691 41.1389 33.8641 41.0543 33.9584C40.9701 34.0527 40.8789 34.1536 40.8519 34.1826C40.8249 34.2116 40.6505 34.4054 40.4637 34.6131C40.2773 34.8211 40.0902 35.0288 40.0479 35.0747L39.971 35.1587L39.9707 37.28L39.9703 39.4012L40.0313 39.5793C40.0649 39.677 40.1468 39.9156 40.213 40.1091C40.4531 40.8096 40.5466 41.0824 40.6618 41.4191C40.8219 41.8863 41.1166 42.7457 41.1682 42.8963C41.2148 43.0309 41.3926 43.549 41.5737 44.079C41.9529 45.1857 42.0627 45.5034 42.0677 45.5034C42.0707 45.5034 42.1416 45.3954 42.2255 45.2637ZM68.5348 45.4C68.5398 45.3867 68.6436 45.089 68.7655 44.7383C69.0202 44.0062 69.3288 43.1189 69.3804 42.971C69.4 42.9152 69.4619 42.7374 69.5182 42.5752C69.5745 42.4134 69.6381 42.2313 69.659 42.1708C69.6803 42.1103 69.7479 41.9166 69.8092 41.7401C69.8704 41.5633 69.9503 41.334 69.9866 41.23C70.0229 41.126 70.0858 40.9458 70.1261 40.8299C70.1664 40.7139 70.2316 40.5258 70.2713 40.4121C70.3109 40.2985 70.3785 40.1047 70.4211 39.9814C70.464 39.8581 70.5249 39.6823 70.5569 39.591L70.6148 39.4248V37.3085V35.192L70.4064 34.96C70.0412 34.5529 69.4034 33.8421 69.153 33.5622C69.0731 33.473 68.9066 33.2873 68.7828 33.1495C68.5238 32.8613 67.8277 32.0853 67.7175 31.9621C67.6765 31.9163 67.6406 31.8778 67.6372 31.8764C67.6342 31.875 67.6289 31.9245 67.6256 31.9863C67.6223 32.0481 67.6079 32.2847 67.5936 32.512C67.5683 32.9208 67.5434 33.3201 67.5011 34.0111C67.4891 34.207 67.4711 34.4938 67.4615 34.6486C67.4521 34.8035 67.4342 35.0943 67.4218 35.295C67.4095 35.4957 67.3919 35.7845 67.3822 35.9367C67.3566 36.3505 67.3573 36.3368 67.3336 36.7193C67.3216 36.9151 67.302 37.2338 67.29 37.4272C67.278 37.6206 67.2657 37.8246 67.2627 37.8805L67.2567 37.9822L67.3659 38.0144C67.4258 38.032 67.564 38.0729 67.6729 38.1048C67.7821 38.137 67.8779 38.1653 67.8866 38.1679C67.9012 38.1719 67.9019 38.2723 67.9019 40.1154V42.0585L67.9552 42.4071C67.9841 42.5988 68.0178 42.8188 68.0294 42.8963C68.0414 42.9737 68.0674 43.1438 68.087 43.2744C68.107 43.4051 68.1426 43.6383 68.1659 43.7932C68.1895 43.9477 68.2415 44.29 68.2814 44.5536L68.3537 45.0328L68.4339 45.2282C68.4782 45.3359 68.5168 45.4239 68.5198 45.4239C68.5228 45.4239 68.5294 45.4133 68.5348 45.4ZM49.0826 43.0342C49.1455 42.9488 49.259 42.7956 49.3342 42.6939C49.4098 42.5925 49.6275 42.2997 49.818 42.0432C50.1965 41.5341 50.361 41.3131 50.5627 41.0422C50.819 40.6979 51.0215 40.4248 51.0604 40.3709C51.0824 40.3407 51.1027 40.3171 51.1057 40.3181C51.111 40.3197 51.6903 40.8691 51.9237 41.0937C51.9842 41.1519 52.196 41.3539 52.3947 41.5424C52.5931 41.7308 52.7649 41.8943 52.7766 41.9053C52.7882 41.9166 52.7986 41.9245 52.7996 41.9229C52.8009 41.9216 52.94 41.7145 53.1092 41.4629C53.278 41.2114 53.532 40.8335 53.6735 40.6232C53.8149 40.4128 54.0477 40.0668 54.1905 39.8538C54.3333 39.6411 54.57 39.2889 54.7161 39.0715C55.2508 38.2763 55.3147 38.1806 55.3197 38.1676C55.3254 38.1527 55.3047 38.14 55.0903 38.0294C55.0128 37.9895 54.7707 37.8635 54.553 37.7502C54.335 37.6366 54.1129 37.5209 54.0596 37.4933C54.0064 37.4654 53.8695 37.3943 53.7557 37.3348C53.6418 37.2756 53.4574 37.1796 53.3462 37.1214C53.2347 37.0636 53.0562 36.9706 52.9497 36.9151C52.8432 36.8592 52.7083 36.7891 52.6504 36.7589C52.5921 36.7286 52.4573 36.6585 52.3508 36.603C52.2443 36.5472 52.0638 36.4531 51.95 36.394C51.8361 36.3348 51.6993 36.2634 51.646 36.2358C51.5927 36.2079 51.3234 36.0673 51.0471 35.9234C50.7711 35.7799 50.3666 35.5692 50.1486 35.4555C49.9308 35.3418 49.6988 35.2209 49.6335 35.187C49.568 35.1531 49.4371 35.085 49.3426 35.0354C49.2484 34.9859 49.1035 34.9108 49.0213 34.8686C48.9387 34.8261 48.8515 34.7805 48.8275 34.7673C48.8032 34.754 48.72 34.7104 48.6424 34.6705C48.5649 34.6307 48.466 34.5792 48.4224 34.5562C48.3788 34.5333 48.2916 34.4878 48.2283 34.4552C48.0662 34.3708 47.9417 34.3057 47.8498 34.2571C47.8062 34.2342 47.707 34.1829 47.6294 34.1429C47.5518 34.1031 47.4569 34.0536 47.418 34.0331C47.3794 34.0126 47.2981 33.9701 47.2375 33.9386C47.0721 33.8527 46.7375 33.6786 46.5198 33.5648C46.4129 33.5092 46.2784 33.4389 46.2202 33.4087C45.9861 33.287 45.3293 32.9448 44.225 32.3693C43.5285 32.0062 43.4094 31.9448 43.402 31.9448C43.3987 31.9448 43.398 31.9834 43.401 32.0306C43.404 32.0777 43.414 32.2686 43.4237 32.4548C43.4417 32.808 43.4733 33.4219 43.5029 33.9848C43.5122 34.1661 43.5242 34.3977 43.5292 34.4991C43.5342 34.6008 43.5442 34.7905 43.5512 34.9211C43.5582 35.0517 43.5682 35.2418 43.5732 35.3432C43.5781 35.4449 43.5901 35.6762 43.5998 35.8576C43.6091 36.0391 43.6271 36.3814 43.6394 36.6183C43.6517 36.8553 43.6694 37.1976 43.6787 37.3787C43.6883 37.5601 43.6983 37.7638 43.7013 37.8316C43.7043 37.8994 43.708 37.9592 43.71 37.9649C43.713 37.9752 43.8175 37.9459 45.2161 37.5425C45.3419 37.5063 45.6232 37.4252 45.8413 37.3627C46.4589 37.1853 47.0588 37.0128 47.2375 36.9613C47.3271 36.9353 47.5195 36.8798 47.6647 36.838C47.8102 36.7961 47.9763 36.7482 48.0339 36.7316C48.0915 36.715 48.1394 36.7024 48.1404 36.7037C48.1414 36.705 48.1784 36.8961 48.223 37.1281C48.2673 37.3604 48.3388 37.7339 48.3818 37.9586L48.4597 38.367L48.0479 39.462C47.8211 40.0645 47.5278 40.8438 47.3963 41.1938C47.2645 41.5437 47.1603 41.8328 47.1643 41.8365C47.1683 41.8398 47.2605 41.9099 47.3697 41.9923C47.4786 42.0744 47.653 42.206 47.7572 42.2848C47.8614 42.3635 48.0299 42.4908 48.1314 42.5673C48.2333 42.644 48.4593 42.8155 48.6338 42.9481C48.8079 43.0807 48.9547 43.1894 48.9597 43.1897C48.9644 43.1897 49.02 43.1199 49.0826 43.0342ZM62.825 42.6653C63.6426 42.0468 63.8297 41.9056 63.84 41.899C63.8473 41.8946 63.6499 41.3603 63.1845 40.122L62.5187 38.3514L62.5456 38.2101C62.6508 37.6598 62.8296 36.7283 62.8333 36.709C62.8376 36.6878 62.8406 36.6861 62.8619 36.6931C62.8749 36.6974 62.9688 36.725 63.0706 36.7549C63.1722 36.7845 63.321 36.8283 63.4009 36.8519C63.4808 36.8755 63.8833 36.9935 64.2948 37.1141C64.7066 37.2348 65.3271 37.4166 65.6734 37.5182C66.6172 37.7951 66.8183 37.8536 66.8259 37.8536C66.8296 37.8536 66.8416 37.7063 66.8526 37.5259C66.8635 37.3458 66.8822 37.0443 66.8938 36.8556C66.9231 36.385 66.9458 36.0185 66.9771 35.506C66.9917 35.2664 67.0137 34.9105 67.026 34.7144C67.038 34.5187 67.0576 34.1982 67.0696 34.0023C67.0819 33.8065 67.0996 33.5196 67.1092 33.3649C67.1189 33.2101 67.1365 32.9213 67.1485 32.723C67.1605 32.5247 67.1728 32.3298 67.1755 32.2899C67.1781 32.2501 67.1785 32.2174 67.1758 32.2174C67.1708 32.2174 67.0823 32.2633 66.2769 32.6833C65.3271 33.1787 64.8937 33.4046 62.498 34.6529C62.1202 34.85 61.5872 35.1278 61.3135 35.2707C61.0395 35.4133 60.7226 35.5785 60.6087 35.6379C60.4949 35.6971 60.2708 35.8137 60.111 35.8972C59.9512 35.9806 59.5943 36.1667 59.3184 36.3106C59.042 36.4545 58.6855 36.6402 58.5257 36.7237C58.3656 36.8071 58.0546 36.9692 57.8342 37.0842C57.6138 37.1992 57.3066 37.3594 57.1514 37.4401C56.9963 37.5212 56.7686 37.6399 56.6451 37.704C56.0674 38.0048 55.9 38.0925 55.893 38.0998C55.8853 38.1071 55.932 38.1716 56.4789 38.913C56.949 39.5501 58.267 41.3373 58.3626 41.4673C58.533 41.6989 58.6642 41.876 58.6805 41.897L58.6968 41.9176L58.7354 41.8837C58.7564 41.8651 58.8962 41.7331 59.046 41.5902C59.3766 41.2745 59.6952 40.9711 59.7335 40.9355C59.7492 40.9209 59.897 40.7804 60.0621 40.6232C60.2276 40.466 60.366 40.3377 60.3704 40.3377C60.3747 40.3377 60.5362 40.55 60.7293 40.8093C60.922 41.0688 61.181 41.4171 61.3042 41.5832C61.4277 41.7491 61.5905 41.9681 61.6661 42.0698C61.7417 42.1711 61.8961 42.3792 62.0093 42.5314C62.3416 42.9787 62.3622 43.0063 62.3689 43.0059C62.3722 43.0059 62.5773 42.8527 62.825 42.6653ZM55.2531 37.6206C55.2531 37.6183 55.1366 37.388 54.9945 37.1085C54.8523 36.829 54.604 36.3415 54.4428 36.0248C54.2817 35.7081 54.0853 35.3222 54.0067 35.1674C53.4727 34.1185 53.3189 33.8159 53.262 33.7034C53.2267 33.6333 53.0998 33.384 52.9803 33.1495C52.8608 32.9149 52.6767 32.5529 52.5712 32.3449C52.4656 32.137 52.3328 31.8758 52.2759 31.7646C52.2186 31.6534 52.0305 31.2834 51.8574 30.9425C51.6843 30.6015 51.4822 30.2039 51.4083 30.0588C51.3344 29.9137 51.2086 29.6664 51.1287 29.5092C51.0488 29.3521 50.9116 29.083 50.824 28.9113C50.7365 28.7396 50.5747 28.4211 50.4642 28.2034C49.8979 27.0883 49.7957 26.8891 49.7893 26.8891C49.7853 26.889 49.5753 27.0283 49.3223 27.1985C48.8635 27.5075 48.2886 27.8944 47.5435 28.3955C47.3264 28.5414 46.9679 28.7828 46.7462 28.932C46.5248 29.0812 46.1829 29.3111 45.9868 29.4431C45.5184 29.7579 44.9171 30.1625 44.0595 30.7394L43.3618 31.209V31.267C43.3618 31.2989 43.3644 31.3508 43.3674 31.3824L43.3727 31.4398L43.4443 31.477C43.4836 31.4974 43.6131 31.5648 43.7316 31.6267C43.8505 31.6887 44.0189 31.7762 44.1062 31.8213C44.1934 31.8663 44.2846 31.914 44.3086 31.9272C44.3329 31.9405 44.4321 31.992 44.529 32.0417C44.6258 32.0914 44.7091 32.1348 44.7137 32.1382C44.7187 32.1417 44.8019 32.1852 44.8988 32.235C44.9957 32.2847 45.1445 32.3619 45.2291 32.4065C45.314 32.451 45.4428 32.5182 45.5154 32.5558C45.588 32.5934 45.6792 32.6409 45.7181 32.6614C45.7567 32.6819 45.844 32.7274 45.9119 32.7625C45.9795 32.7976 46.1203 32.8708 46.2245 32.9252C46.3287 32.9796 46.5071 33.0726 46.621 33.1318C46.7348 33.1911 46.8713 33.2624 46.9246 33.2902C46.9782 33.3181 47.2515 33.4605 47.5325 33.6066C47.8135 33.7528 48.1288 33.917 48.233 33.9715C48.4347 34.0772 49.3409 34.5492 49.554 34.6596C49.6242 34.6958 49.7094 34.7407 49.7434 34.7586C49.7774 34.7769 49.8686 34.8241 49.9461 34.864C50.0237 34.9038 50.1186 34.9534 50.1575 34.974C50.1962 34.9946 50.2794 35.0381 50.3423 35.0707C50.4052 35.1036 50.4984 35.1521 50.5494 35.1783C50.7601 35.2883 50.8414 35.3309 50.9502 35.387C51.0131 35.4199 51.1044 35.4675 51.1526 35.4927C51.2012 35.518 51.2875 35.5632 51.3444 35.5928C51.4013 35.6223 51.4925 35.6698 51.5468 35.6984C51.6014 35.7267 51.7848 35.8221 51.9543 35.9105C52.1237 35.9985 52.3062 36.0936 52.3594 36.1211C52.466 36.177 52.6587 36.2773 53.258 36.5894C54.4495 37.2102 54.7524 37.368 54.9845 37.49C55.2308 37.6193 55.2531 37.6299 55.2531 37.6206ZM56.3188 37.3876C56.4523 37.3185 56.6444 37.2185 56.7463 37.1653C56.8478 37.1121 56.9746 37.046 57.0279 37.0181C57.0812 36.9905 57.212 36.9221 57.3185 36.8666C57.4254 36.8107 57.6551 36.6911 57.8296 36.6004C58.004 36.51 58.2241 36.3953 58.3186 36.3458C58.4128 36.2963 58.5913 36.2032 58.7148 36.1391C58.8383 36.0746 59.0167 35.9819 59.1113 35.9324C59.2058 35.8829 59.3463 35.8098 59.4239 35.7699C59.5015 35.7297 59.5927 35.6821 59.6266 35.6639C59.6603 35.6459 59.7851 35.5805 59.904 35.519C60.0228 35.4572 60.2465 35.3408 60.4017 35.2598C60.5568 35.179 60.7845 35.06 60.908 34.9959C61.1131 34.8892 61.5289 34.6725 61.7933 34.5343C61.8868 34.4854 62.5277 34.1516 62.802 34.0089C62.8576 33.9799 62.9428 33.9353 62.9914 33.9099C63.1029 33.8511 63.6379 33.5728 63.8061 33.4858C63.8763 33.4494 63.9615 33.4049 63.9955 33.3867C64.0501 33.3575 64.4589 33.1445 64.7925 32.9715C64.8581 32.9376 64.9393 32.895 64.9733 32.8769C65.0072 32.8588 65.0944 32.8132 65.167 32.7757C65.2396 32.7381 65.3764 32.6669 65.471 32.6175C65.5652 32.5681 65.702 32.4969 65.7746 32.4593C65.8475 32.4217 65.9347 32.3761 65.9687 32.3579C66.0023 32.3397 66.1311 32.2725 66.2546 32.2084C66.3785 32.1444 66.511 32.0754 66.5499 32.0549C66.5886 32.0345 66.6938 31.9798 66.7833 31.9333C66.8729 31.8869 67.0057 31.8175 67.0783 31.7791L67.2104 31.7093L67.2208 31.5567C67.2264 31.4727 67.2314 31.3784 67.2317 31.3469L67.2324 31.2898L67.1818 31.2503C67.1182 31.2007 65.7719 30.1938 65.5712 30.0458C65.4893 29.9855 65.3391 29.8744 65.2376 29.799C65.0558 29.6644 64.7579 29.4443 64.4446 29.213C64.3574 29.1486 64.2305 29.0549 64.1629 29.0048C64.0105 28.8922 61.9121 27.3469 61.4424 27.0015C61.3788 26.9546 61.3225 26.916 61.3179 26.9158C61.3129 26.9156 61.0166 27.498 60.6597 28.2101C60.3025 28.9222 59.5204 30.4802 58.9215 31.6722C56.2975 36.8958 55.9666 37.5558 55.9666 37.5634C55.9666 37.5681 55.9915 37.5585 56.0215 37.5425C56.0518 37.5262 56.1856 37.4564 56.3188 37.3876ZM56.5588 35.4156C57.0855 34.3651 57.9251 32.6924 58.4245 31.6986C59.6363 29.2875 60.9523 26.6628 60.9523 26.6566C60.9523 26.6538 58.524 26.6516 55.5564 26.6516C52.5885 26.6516 50.1619 26.6546 50.1635 26.6582C50.1769 26.6869 50.4292 27.1848 50.4655 27.2539C50.4911 27.3023 50.604 27.5238 50.7168 27.7463C50.8297 27.9687 51.0378 28.3783 51.1793 28.6563C51.3207 28.9344 51.5268 29.34 51.637 29.5576C51.7475 29.7752 51.8684 30.0126 51.906 30.0852C51.9436 30.1577 52.0705 30.407 52.188 30.6391C52.3052 30.8712 52.44 31.1363 52.4873 31.2282C52.5346 31.3201 52.6574 31.5615 52.7603 31.7646C52.948 32.1346 53.1105 32.4538 53.3286 32.8813C53.3928 33.007 53.5333 33.284 53.6412 33.4968C53.749 33.7095 53.8719 33.9509 53.9142 34.0331C53.9568 34.1153 54.0796 34.3568 54.1875 34.5695C54.2953 34.7822 54.4994 35.184 54.6409 35.4618C54.7824 35.74 54.9925 36.1534 55.1077 36.3807C55.2228 36.608 55.338 36.8337 55.3633 36.8818C55.389 36.9304 55.4499 37.05 55.4988 37.148C55.5478 37.2457 55.591 37.3262 55.5944 37.3262C55.598 37.3262 56.0322 36.4664 56.5588 35.4156ZM40.0902 34.3828C40.2983 34.1521 40.5753 33.8447 40.7061 33.6997C40.8369 33.5547 40.9791 33.3965 41.022 33.3483C41.0646 33.3001 41.1169 33.2425 41.1372 33.2204C41.1579 33.1983 41.3529 32.9824 41.5707 32.7406C41.7884 32.4988 42.1446 32.1031 42.362 31.8613C42.5797 31.6195 42.863 31.3053 42.9916 31.163C43.1201 31.0207 43.2492 30.8769 43.2782 30.8433C43.3208 30.7942 43.3677 30.7573 43.5206 30.6542C44.5872 29.9328 45.0446 29.6196 46.5151 28.6037C47.8052 27.7126 48.0412 27.5505 48.7027 27.1L49.0706 26.8494L49.0283 26.8463C48.9867 26.8433 48.2959 26.8551 47.5415 26.8716C47.3281 26.8763 46.9359 26.884 46.6693 26.8887C46.4029 26.8935 46.0897 26.8995 45.9735 26.9022C45.5843 26.911 44.9384 26.9241 44.463 26.9328C43.9157 26.9428 43.6551 26.9481 43.1504 26.9597C42.9493 26.9643 42.7449 26.9681 42.6959 26.9681H42.6067L42.5321 27.0758C42.4912 27.135 42.4399 27.2092 42.4179 27.2407C42.396 27.2721 42.2122 27.5372 42.0094 27.8298C40.9208 29.4012 39.9051 30.8674 39.7753 31.0547C39.7107 31.1478 39.6201 31.2784 39.5738 31.3448C39.5276 31.4113 39.4587 31.5111 39.42 31.5667C39.3818 31.6223 39.3312 31.6955 39.3078 31.7294C39.2842 31.7632 39.2246 31.8494 39.175 31.9209C39.1257 31.9923 39.0079 32.1625 38.9133 32.299C38.2009 33.3257 37.9492 33.6911 37.9492 33.6975C37.9492 33.704 39.6947 34.8008 39.7073 34.8018C39.71 34.8021 39.8825 34.6137 40.0902 34.3828ZM39.3718 30.8804C40.001 29.9704 40.236 29.6307 40.3848 29.4169C40.4517 29.3202 40.6891 28.9779 40.9118 28.6563C41.1345 28.3347 41.4199 27.9232 41.5454 27.7419C41.6712 27.5605 41.9039 27.2242 42.0627 26.9945C42.2215 26.7648 42.3583 26.5694 42.367 26.5603C42.3816 26.5448 42.407 26.5433 42.7598 26.5368C43.2289 26.5281 43.5568 26.5215 44.0489 26.5107C44.2596 26.5061 44.6541 26.4982 44.9255 26.4933C45.1968 26.4883 45.7001 26.4784 46.044 26.4713C46.3879 26.4642 46.8813 26.4544 47.1407 26.4495C48.0915 26.4314 48.4963 26.4232 48.6468 26.4189C48.7317 26.4165 48.9694 26.412 49.1754 26.4089C49.3812 26.4058 49.5803 26.4008 49.6179 26.3977L49.6858 26.3922L49.5816 26.2164C49.5243 26.1196 49.3968 25.904 49.2986 25.7371C49.2001 25.5703 49.0366 25.2933 48.9351 25.1216C48.8335 24.95 48.6911 24.7086 48.6181 24.5853C48.5452 24.462 48.464 24.3245 48.4374 24.2797L48.3891 24.1984L45.5034 24.1987L42.6177 24.1989L42.4705 24.4119C42.2794 24.6887 41.3736 25.9965 40.3316 27.4998C40.0865 27.853 39.6904 28.4249 39.451 28.7706C38.8428 29.6487 38.2808 30.4599 38.106 30.7117C38.0245 30.829 37.9569 30.9279 37.9559 30.9315C37.9549 30.9351 38.121 31.0528 38.3248 31.193C38.5285 31.3333 38.7356 31.4765 38.7848 31.5113C38.8338 31.5461 38.8781 31.5745 38.8827 31.5746C38.8877 31.5746 39.1078 31.2623 39.3718 30.8804ZM39.749 27.5822C40.0446 27.1559 40.3629 26.6963 40.7371 26.1561C40.9671 25.8238 41.1931 25.4977 41.2394 25.4313C41.322 25.3128 41.4305 25.1557 41.4841 25.0777C41.4988 25.0559 41.6139 24.8897 41.7398 24.7084C42.0021 24.3304 42.1599 24.1027 42.2948 23.9082L42.389 23.7719L45.259 23.7697C47.9556 23.7676 48.1288 23.7666 48.1234 23.7526C48.1201 23.7444 48.0579 23.6365 47.9846 23.513C47.6667 22.9762 47.2648 22.296 47.2256 22.2281L47.2023 22.1877V21.2674V20.3472L45.2887 20.3477L43.3751 20.3481L43.1284 20.7056C42.9929 20.9022 42.6047 21.4629 42.2661 21.9515C41.1505 23.5616 40.4108 24.6294 40.21 24.9194C40.1012 25.0766 39.9847 25.2447 39.951 25.2931C39.9038 25.3612 39.2476 26.308 38.7675 27.0008L38.7113 27.0819L38.7972 27.1423C38.8441 27.1755 38.9939 27.2799 39.1294 27.3743C39.2649 27.4687 39.4354 27.5874 39.5083 27.6382C39.5808 27.689 39.6424 27.7295 39.6448 27.7282C39.6471 27.7269 39.694 27.6612 39.749 27.5822ZM65.6734 27.5757C65.6734 27.5674 65.6884 27.5358 65.9204 27.0517C65.999 26.8872 66.0782 26.7211 66.0965 26.6823C66.1145 26.6437 66.1598 26.5487 66.197 26.4713C66.3312 26.1928 66.3519 26.1454 66.3519 26.1113C66.3519 26.0931 66.3618 25.9431 66.3738 25.778C66.4198 25.1598 66.4394 24.8883 66.4624 24.5633L66.486 24.2292L66.3209 23.5565C66.1285 22.7729 66.1178 22.7296 65.999 22.242C65.9494 22.0389 65.9044 21.8698 65.8991 21.8662C65.8938 21.8627 65.8625 21.8597 65.8302 21.8597L65.7709 21.8595L65.737 21.9057C65.7183 21.9311 65.5782 22.1319 65.4253 22.3519C65.2729 22.5719 64.9939 22.9736 64.8058 23.2444C64.6177 23.5152 64.4116 23.8119 64.348 23.9038C64.2841 23.9957 64.1153 24.2391 63.9722 24.4446C63.8294 24.6501 63.7002 24.8365 63.6849 24.8587L63.6572 24.8991L63.9096 25.1225C64.0481 25.2453 64.2332 25.4096 64.3207 25.4875C64.4083 25.5654 64.5947 25.7309 64.7352 25.8553C64.8757 25.9797 64.9956 26.0905 65.0015 26.1016C65.0075 26.1127 65.0685 26.2499 65.1371 26.4064C65.2056 26.563 65.2782 26.7287 65.2985 26.7747C65.3188 26.8206 65.4064 27.0213 65.4933 27.2206C65.5802 27.4199 65.6564 27.5832 65.6624 27.5833C65.6684 27.5835 65.6734 27.5801 65.6734 27.5757ZM61.0315 26.1903C61.0871 26.1739 61.1268 26.1601 61.1194 26.1597C61.1121 26.1593 60.5911 26.1581 59.9612 26.1569L58.816 26.1548L58.1026 26.0333C57.4128 25.9159 56.5405 25.7689 55.8654 25.6565L55.5394 25.6021L55.4732 25.5437C54.9585 25.0882 54.2154 24.4303 53.9588 24.2025C53.8499 24.1059 53.7247 23.9953 53.6808 23.9566C53.5653 23.8551 53.2816 23.6038 53.2403 23.5663C53.221 23.5487 53.1198 23.4593 53.016 23.3676C52.9117 23.2758 52.8105 23.1864 52.7912 23.1689C52.7719 23.1513 52.6627 23.0546 52.5489 22.9541L52.3421 22.7712L52.209 22.4319C52.1361 22.2452 51.9839 21.8551 51.8714 21.565C51.7585 21.2748 51.5561 20.7545 51.4216 20.4087C51.2871 20.0629 51.1723 19.7658 51.1659 19.7483C51.1536 19.7136 51.132 19.7985 51.4426 18.6502C51.4982 18.4446 51.5774 18.1508 51.619 17.9973C51.6607 17.8437 51.7286 17.5925 51.7702 17.4389C51.9829 16.6516 52.0608 16.3635 52.0978 16.2243L52.1387 16.0713L52.4077 15.8328C52.5555 15.7016 52.942 15.3589 53.2666 15.0713C53.5912 14.7837 53.9361 14.4777 54.033 14.3913L54.2095 14.2343L54.544 14.2396C54.7281 14.2425 55.2039 14.2469 55.601 14.2494C55.9982 14.2519 56.4353 14.2562 56.5721 14.2591C56.7776 14.2633 56.8212 14.2621 56.8212 14.2524C56.8212 14.2458 56.7303 14.0328 56.6194 13.7789L56.4177 13.3173L56.2912 13.3196C56.2216 13.3208 56.0418 13.3277 55.8917 13.335C55.6217 13.348 54.795 13.3876 54.2401 13.414C52.1707 13.5123 52.1767 13.512 52.0908 13.5361C51.5704 13.6828 51.3484 13.7451 50.8051 13.8973C50.6379 13.9441 50.4984 13.9851 50.4954 13.9884C50.4925 13.9917 50.4505 14.0458 50.4026 14.1087C50.3546 14.1716 50.1632 14.4208 49.9771 14.6626C49.791 14.9044 49.5443 15.2249 49.4288 15.3748C49.3136 15.5247 49.1521 15.7345 49.0702 15.8409C48.754 16.2514 48.6604 16.3733 48.4001 16.7116C48.2526 16.9039 48.0199 17.206 47.8831 17.3831L47.6347 17.7049L47.6344 19.8879L47.6337 22.0708L47.7363 22.2443C47.7928 22.3398 47.903 22.5267 47.9816 22.6597C48.0602 22.7926 48.211 23.0479 48.3169 23.2268C48.4227 23.4057 48.5346 23.5957 48.5655 23.6488C48.5968 23.702 48.6278 23.7518 48.6345 23.7594C48.6411 23.7671 48.6468 23.7762 48.6468 23.7796C48.6468 23.7831 48.7573 23.9727 48.8921 24.201C49.1298 24.6031 49.237 24.7845 49.4441 25.1348C49.4984 25.2267 49.5873 25.3771 49.6415 25.469C49.6958 25.5608 49.818 25.7676 49.9129 25.9284L50.0853 26.2207L55.5078 26.2205L60.93 26.2203L61.0315 26.1903ZM62.6492 25.603C62.6971 25.5341 62.8156 25.3656 62.9122 25.2287C63.0084 25.0916 63.0883 24.9743 63.089 24.9679C63.09 24.9615 63.1619 24.854 63.2488 24.729C63.3356 24.604 63.5291 24.3257 63.6785 24.1105C64.5511 22.8537 64.8864 22.371 65.1091 22.0503C65.2462 21.853 65.3571 21.6903 65.3551 21.6887C65.3524 21.6862 63.0663 21.1287 61.2473 20.687C61.1407 20.6611 60.967 20.6186 60.8614 20.5927C60.6846 20.5493 60.6677 20.5465 60.6474 20.5584C60.6357 20.5656 60.5848 20.5979 60.5345 20.6303C59.9289 21.0214 58.9095 21.4316 58.6269 21.398C58.4521 21.3773 57.6032 20.9545 56.9443 20.56C56.8318 20.4927 56.5002 20.2836 56.4879 20.2723C56.4783 20.2636 56.5612 20.2137 56.9151 20.0153C57.6947 19.5777 57.982 19.4163 58.299 19.2377L58.6099 19.0625L59.0477 19.2174C59.2887 19.3026 59.5451 19.3936 59.6173 19.4196C59.6899 19.4456 59.7508 19.4653 59.7528 19.4634C59.7548 19.4614 59.5075 19.1184 59.2032 18.7011C58.8986 18.2838 58.5996 17.8731 58.538 17.7884C58.4315 17.6414 58.4208 17.6223 58.294 17.3576C58.2211 17.2053 58.1012 16.956 58.0277 16.8037C57.9095 16.5589 57.8222 16.378 57.6401 15.9991C57.6122 15.9411 57.5349 15.7808 57.4684 15.643C57.4018 15.5052 57.3009 15.2955 57.244 15.177C57.1867 15.0585 57.1105 14.8998 57.0742 14.8243L57.0079 14.687L56.2386 14.6814C55.8151 14.6783 55.2228 14.6733 54.9222 14.6703L54.3759 14.6648L53.7773 15.1953C53.4481 15.4871 53.0379 15.8503 52.8661 16.0023C52.694 16.1543 52.5465 16.2851 52.5382 16.2928C52.5236 16.3064 52.4949 16.4063 52.3335 17.0059C52.2962 17.1437 52.2366 17.3653 52.2006 17.4983C52.1647 17.6313 52.0838 17.93 52.0212 18.1621C51.9586 18.3943 51.8398 18.834 51.7572 19.1394L51.6074 19.6946L51.7349 20.0231C51.8051 20.2038 51.898 20.4426 51.941 20.5538C51.9839 20.665 52.1487 21.0884 52.3068 21.4946C52.465 21.9008 52.6184 22.2956 52.6477 22.372L52.7013 22.5108L52.8165 22.6138C52.8801 22.6704 52.948 22.731 52.9673 22.7484C52.9867 22.7658 53.0939 22.8606 53.205 22.9591C53.3166 23.0575 53.493 23.2136 53.5972 23.3059C53.7014 23.3981 53.9807 23.6457 54.2181 23.856C54.6872 24.2717 54.9905 24.5399 55.345 24.8536C55.4709 24.9648 55.6094 25.0879 55.653 25.1273L55.7322 25.1988L55.922 25.23C56.0265 25.2472 56.3498 25.3012 56.6404 25.35C57.6065 25.5124 58.2667 25.6235 58.574 25.6755L58.8779 25.727L60.7196 25.7276L62.5616 25.7283L62.6492 25.603ZM40.773 23.3477C40.8419 23.2474 40.9142 23.1435 40.9331 23.1169C40.9521 23.0903 41.1901 22.7471 41.4621 22.3542C42.672 20.607 42.8457 20.3562 42.9942 20.1427L43.1517 19.9163H45.1768H47.2023V18.7383V17.5602L47.424 17.2721C47.6231 17.0137 47.9383 16.6039 48.0758 16.4248C48.1041 16.3881 48.1271 16.3555 48.1271 16.3523C48.1271 16.349 47.3155 16.3465 46.3234 16.3465H44.5193L44.3748 16.5553C44.2949 16.6701 44.1641 16.8591 44.0838 16.9751C44.0033 17.0912 43.7373 17.475 43.4926 17.828C43.2479 18.1811 42.8601 18.7409 42.6307 19.0722C42.4013 19.4035 42.0544 19.904 41.86 20.1845C41.6655 20.465 41.3007 20.9912 41.0497 21.3539C40.7983 21.7166 40.4291 22.2497 40.229 22.5384C40.0286 22.8272 39.8648 23.0652 39.8648 23.0674C39.8648 23.0709 39.9644 23.1299 40.4418 23.4098C40.5243 23.4581 40.6036 23.5049 40.6179 23.5138C40.6325 23.5226 40.6452 23.5299 40.6458 23.53C40.6465 23.5301 40.7038 23.4481 40.773 23.3477ZM65.9554 21.3791C65.9554 21.376 66.0862 20.8861 66.246 20.2903L66.5366 19.2071L66.5067 19.1199C66.479 19.0384 66.4308 18.9008 66.224 18.316C66.0895 17.935 66.0073 17.7009 65.3957 15.9639C65.3634 15.8721 65.2499 15.5496 65.1434 15.2474C64.9506 14.7006 64.8907 14.5305 64.7615 14.1614C64.6979 13.9788 64.6919 13.9663 64.6577 13.9372C64.6377 13.9203 64.5498 13.8456 64.4626 13.7713C64.3111 13.6424 64.127 13.4865 63.8543 13.2558C63.7857 13.1977 63.6273 13.0632 63.5021 12.9568C63.3769 12.8504 63.2065 12.706 63.1232 12.6359C63.0404 12.5658 62.9112 12.4565 62.8363 12.393C62.6335 12.2205 62.4637 12.0766 62.2823 11.9229C62.1325 11.7961 61.8548 11.5605 61.6597 11.3943C61.6015 11.3448 61.5695 11.3242 61.5412 11.3176C61.5199 11.3127 61.3521 11.279 61.168 11.2428C60.5545 11.1222 59.0906 10.833 58.9834 10.8112C58.9252 10.7994 58.4854 10.7123 58.0057 10.6177C56.7493 10.3697 56.0362 10.2286 55.9403 10.209C55.8943 10.1996 55.5038 10.1225 55.0727 10.0377C54.6412 9.95288 54.273 9.87977 54.2537 9.87528C54.2344 9.87076 54.2171 9.8687 54.2151 9.87073C54.2108 9.87485 54.307 9.99525 54.8074 10.6135C55.3593 11.2956 55.3617 11.2986 55.7106 11.7302C56.4843 12.6881 56.6331 12.8722 56.6817 12.9312C56.71 12.9655 56.7329 12.9983 56.7329 13.0042C56.7329 13.0128 57.0782 13.7852 57.1974 14.0427C57.214 14.079 57.237 14.1304 57.2483 14.1571C57.2596 14.1836 57.2826 14.2355 57.2996 14.2723C57.3169 14.309 57.3642 14.4139 57.4054 14.5053C57.4733 14.6565 57.5835 14.889 57.768 15.2693C57.8056 15.3467 57.8549 15.4496 57.8778 15.4979C57.9008 15.5463 57.998 15.7481 58.0936 15.9464C58.1894 16.1447 58.2907 16.3544 58.3186 16.4124C58.5064 16.8033 58.5939 16.9853 58.6911 17.1876L58.8017 17.4176L59.4608 18.3213C59.8231 18.8183 60.2685 19.4287 60.4499 19.6777L60.7805 20.1303L60.8774 20.1538C61.0119 20.1865 61.3348 20.2652 61.6171 20.3342C61.748 20.3662 62.0253 20.4338 62.2337 20.4844C62.6981 20.5971 62.6528 20.5861 64.4492 21.0247C65.2556 21.2216 65.9247 21.3832 65.9354 21.3837C65.9464 21.3843 65.9554 21.3822 65.9554 21.3791ZM58.8207 20.939C59.1835 20.8461 59.8357 20.5557 60.2449 20.3047C60.2898 20.2772 60.3264 20.2517 60.3264 20.2479C60.3264 20.2441 60.3015 20.2065 60.2702 20.1643L60.2139 20.0875L60.0611 20.0335C59.9772 20.0037 59.6286 19.8801 59.2871 19.7588C58.9452 19.6375 58.6605 19.5382 58.6545 19.5382C58.6485 19.5382 58.4661 19.6379 58.2497 19.7597C58.0333 19.8815 57.7393 20.0467 57.5969 20.1269C57.4544 20.2071 57.3365 20.2766 57.3352 20.2814C57.3322 20.2909 57.3818 20.32 57.6445 20.4642C57.979 20.6476 58.3582 20.8361 58.5959 20.9372C58.6842 20.9748 58.6812 20.9747 58.8207 20.939ZM43.8954 16.0175C43.9677 16.001 44.0825 15.9749 44.1501 15.9594C44.218 15.944 44.2779 15.9278 44.2833 15.9234C44.2889 15.9188 45.1518 15.9164 46.3796 15.9178L48.4663 15.92L48.5226 15.8452C48.5539 15.8042 48.6478 15.6815 48.732 15.5727C48.9268 15.3202 49.5663 14.4888 49.8379 14.1348C49.9531 13.985 50.0474 13.8587 50.048 13.8541C50.0487 13.8459 49.9974 13.8272 49.303 13.5824C49.1045 13.5124 48.8389 13.4188 48.713 13.3743C48.5868 13.3298 48.3848 13.2587 48.2636 13.2161C47.901 13.0886 47.3221 12.8841 47.3071 12.878C47.2928 12.8723 47.2718 12.8906 46.6296 13.4663C46.2731 13.7862 46.0996 13.9414 45.6475 14.3461C45.4102 14.5586 45.1189 14.8195 45.0004 14.9259C44.8815 15.0323 44.7131 15.1833 44.6258 15.2615C44.2779 15.5732 44.0792 15.7508 43.9234 15.8892C43.7812 16.015 43.7479 16.0475 43.7609 16.0475C43.7626 16.0475 43.8228 16.034 43.8954 16.0175ZM50.6493 13.4941C50.7421 13.468 50.8916 13.4261 50.9812 13.4011C51.0707 13.376 51.2192 13.3343 51.3114 13.3083C51.4033 13.2823 51.6194 13.2218 51.7915 13.1738L52.1041 13.0866L52.2935 13.0766C52.3977 13.0712 52.6058 13.0608 52.7559 13.0536C52.9061 13.0464 53.1461 13.0345 53.2889 13.0273C53.4318 13.02 53.751 13.0041 53.998 12.992C54.8806 12.9486 55.8138 12.9023 55.9732 12.8939C56.0325 12.8908 56.0811 12.8857 56.0811 12.8827C56.0811 12.8764 55.9403 12.701 55.2015 11.7874C54.4768 10.8913 54.1848 10.5303 53.754 9.99748L53.3875 9.54409L52.9484 9.4094C52.707 9.33529 52.4796 9.26547 52.4433 9.2542C52.2852 9.20528 51.1929 8.86963 51.153 8.8578C51.098 8.84155 50.616 8.6936 50.2984 8.59563C50.1675 8.55529 49.8842 8.46825 49.6685 8.40228C49.4531 8.33628 49.1754 8.25114 49.0519 8.21306C48.9284 8.17497 48.3881 8.00908 47.8511 7.84434L46.875 7.54488H44.4224H41.9702L40.8592 8.0993C40.2483 8.40424 39.75 8.65515 39.7516 8.65688C39.7563 8.66133 40.2357 8.89977 40.3715 8.96504C40.4344 8.99532 40.7001 9.12589 40.9614 9.25516C41.2231 9.38447 41.5404 9.54073 41.6662 9.60241C41.9449 9.73883 42.3903 9.95806 42.9083 10.2135C43.1214 10.3186 43.3711 10.4413 43.4633 10.4861C43.5552 10.5308 43.8405 10.6713 44.0975 10.7982C44.3542 10.9251 44.6555 11.0735 44.7667 11.128C44.8782 11.1824 45.1478 11.3149 45.3659 11.4225C45.5836 11.5301 45.8849 11.6784 46.0351 11.7522C46.6623 12.0602 46.9 12.1771 47.2509 12.3499C47.4656 12.4558 47.667 12.5488 47.7309 12.5717C47.7915 12.5934 47.9124 12.6361 47.9996 12.6665C48.174 12.7275 49.6219 13.2384 50.1442 13.4234C50.326 13.4877 50.4758 13.5406 50.4775 13.5409C50.4791 13.5413 50.5564 13.5202 50.6493 13.4941ZM60.8464 10.7313C60.8464 10.7284 60.8351 10.7116 60.8215 10.694C60.8075 10.6763 60.6417 10.4502 60.4529 10.1915C59.871 9.39318 59.5178 8.90954 59.4092 8.76149L59.3054 8.61962L58.9595 8.44602C58.7691 8.35054 58.5104 8.22004 58.3845 8.15603C58.2587 8.09202 57.9218 7.92187 57.6358 7.77791C57.3498 7.63395 56.9813 7.44798 56.8165 7.36463C56.652 7.28128 56.2928 7.09987 56.0188 6.96145L55.5205 6.70978L55.3141 6.6921C55.2005 6.68237 54.8383 6.65259 54.5087 6.62597C54.1795 6.59935 53.789 6.56761 53.6412 6.55545C52.6328 6.4724 52.0871 6.429 52.0845 6.43166C52.0811 6.43502 52.181 6.52548 52.9058 7.17574C53.1721 7.41478 53.4081 7.62673 53.4298 7.64671C53.4517 7.66671 53.6735 7.86611 53.9231 8.08986C54.1725 8.31359 54.4282 8.54306 54.4911 8.59982C54.588 8.68702 55.3926 9.40949 55.6683 9.65701L55.7538 9.73361L56.153 9.81281C56.3727 9.85634 56.7346 9.92796 56.9577 9.97196C57.4447 10.0681 58.4058 10.2583 58.6442 10.3057C58.7388 10.3245 59.1273 10.4014 59.5075 10.4766C59.888 10.5517 60.3357 10.6406 60.5029 10.6741C60.8055 10.7346 60.8464 10.7415 60.8464 10.7313ZM72.3856 54.1332C72.9569 54.0351 73.1766 53.9963 73.6097 53.9178C74.1274 53.8238 74.188 53.8128 74.442 53.764C74.5342 53.7467 74.6391 53.7268 74.6757 53.7201C74.8562 53.6872 76.1472 53.43 76.3689 53.3828L76.4901 53.3572L76.5537 53.3014C76.9579 52.9465 77.7525 52.2183 78.1021 51.8823C78.153 51.8335 78.2915 51.7009 78.4104 51.5876C78.6897 51.321 79.7886 50.2244 80.0663 49.9349C80.1845 49.8116 80.323 49.6671 80.3742 49.6139C80.4844 49.4996 80.828 49.1343 80.9778 48.9722C81.0357 48.909 81.1076 48.8319 81.1373 48.8007C81.1669 48.7691 81.2578 48.6701 81.3393 48.5807C81.4206 48.4913 81.5055 48.3982 81.5281 48.374C81.5504 48.3501 81.6496 48.2411 81.7485 48.1324C81.8474 48.0234 81.9719 47.8871 82.0252 47.829C82.2316 47.604 82.2921 47.5379 82.5635 47.2398C82.7176 47.0706 82.9407 46.826 83.0595 46.6961L83.2756 46.4601L83.2649 42.8491C83.2523 38.473 83.2396 34.3598 83.233 32.4153C83.2303 31.6221 83.2243 29.5824 83.2197 27.8826C83.2093 24.2188 83.1957 19.6541 83.189 17.6434C83.186 16.8503 83.18 14.8819 83.175 13.2693C83.17 11.6566 83.1651 10.3362 83.1641 10.3351C83.1614 10.3327 83.0925 10.3247 82.7572 10.288C82.0062 10.2059 81.4828 10.0942 80.822 9.87462C78.6381 9.14915 76.7388 7.55688 75.5786 5.47858C75.1295 4.67386 74.7886 3.77546 74.5932 2.88031C74.5532 2.69863 74.3232 1.59784 74.3232 1.58963C74.3232 1.58619 65.4107 1.58337 54.5177 1.58337C43.6244 1.58337 34.712 1.58524 34.712 1.58753C34.712 1.58982 34.698 1.65412 34.6807 1.73041C34.6634 1.80671 34.6274 1.96608 34.6008 2.08456C33.9882 4.80868 33.4175 6.0021 32.0466 7.42618C31.4501 8.0458 30.8633 8.52468 30.1801 8.94936C29.7191 9.23595 29.1291 9.52388 28.6122 9.7145C28.0874 9.90808 27.7245 10.0078 27.0355 10.148C26.1727 10.3235 25.9525 10.369 25.9455 10.3732C25.9418 10.3754 25.9389 10.9181 25.9388 11.5791C25.9388 12.2401 25.9349 13.8889 25.9301 15.243C25.9254 16.597 25.9176 19.0502 25.9128 20.6945C25.908 22.3387 25.9018 24.4002 25.8992 25.2755C25.8965 26.1508 25.8905 28.1648 25.886 29.751C25.8814 31.3373 25.8754 33.2464 25.8727 33.9936C25.87 34.7407 25.8621 37.4787 25.8552 40.0781C25.8483 42.6776 25.8404 45.2335 25.8376 45.7583L25.8326 46.7124L26.6103 47.4903C27.0381 47.9184 27.9566 48.8382 28.6512 49.5348C29.3459 50.231 30.0276 50.9116 30.1661 51.0469C30.3046 51.1821 30.5012 51.3742 30.6029 51.4739C30.8614 51.7272 31.4998 52.3406 31.7452 52.5716L31.8041 52.6271L32.0799 52.6926C32.6866 52.8371 33.5425 53.0305 34.1571 53.1628C34.9323 53.3293 36.0596 53.5583 36.0596 53.5493C36.0596 53.546 35.9734 53.4742 35.8682 53.3898C34.96 52.6633 33.9386 51.7876 33.1443 51.0552C33.1176 51.0303 33.066 50.9834 33.0296 50.9505C32.949 50.8774 32.7408 50.6843 32.6508 50.5989C32.6145 50.5647 32.5075 50.4636 32.413 50.3746C32.0729 50.0546 31.7218 49.7119 31.2365 49.2277C30.8055 48.7974 30.5785 48.5661 30.1052 48.0752C30.0446 48.0124 29.8899 47.8519 29.7614 47.719C29.6329 47.586 29.4704 47.4176 29.4003 47.3448C29.1409 47.0753 28.7011 46.62 28.178 46.0793L27.9568 45.8506L27.9564 29.0163L27.956 12.182L28.315 12.0644C28.5124 11.9998 28.7789 11.9125 28.9073 11.8706C29.4653 11.6881 29.7919 11.5563 30.2682 11.3212C30.738 11.0893 31.0456 10.9131 31.4797 10.6272C32.1803 10.1657 32.7767 9.67888 33.3869 9.07056C33.6967 8.76166 33.7472 8.70912 33.9154 8.52089C34.9034 7.41541 35.6488 6.18265 36.0496 4.99056C36.0839 4.889 36.1871 4.56655 36.279 4.27396C36.3709 3.98138 36.4501 3.73094 36.4554 3.71741L36.4648 3.69283L37.6649 3.69801C38.9803 3.7037 45.5706 3.72382 50.6463 3.73764C53.5576 3.74557 56.1007 3.7534 60.6703 3.7685C62.6269 3.77496 67.5763 3.78853 70.3595 3.79506C71.5343 3.79782 72.5075 3.8019 72.5221 3.80414C72.5481 3.80813 72.5497 3.81199 72.6396 4.06086C72.9332 4.87378 73.0741 5.25702 73.1383 5.41704C73.8774 7.2527 75.0952 8.79596 76.7984 10.056C77.7572 10.7651 78.8864 11.3904 80.1765 11.9262C80.2637 11.9624 80.5154 12.0643 80.7358 12.1527C80.9562 12.2411 81.1416 12.3172 81.1476 12.3219C81.1562 12.3286 81.1586 15.6713 81.1582 28.985L81.1579 45.6396L81.046 45.7632C80.9845 45.8314 80.835 45.9972 80.7138 46.1318C80.5926 46.2667 80.4202 46.4585 80.3306 46.5582C79.4161 47.5757 79.2387 47.7708 78.8734 48.1586C78.3484 48.7163 77.5614 49.5052 76.9392 50.0968C75.6076 51.3633 74.2799 52.5144 72.8037 53.6819C72.6363 53.8142 72.2454 54.1162 72.2205 54.1325C72.1935 54.1501 72.1835 54.1641 72.1982 54.1641C72.2018 54.1641 72.2861 54.1501 72.3856 54.1332ZM7.3657 70.3689C3.34567 70.3503 1.66193 70.3098 1.17541 70.2191C1.06623 70.1988 1.01432 70.1805 1.00235 70.1583C0.990196 70.1357 1.02912 70.0858 1.16065 69.9559C1.69377 69.4295 3.28822 68.0915 5.22599 66.5445C6.84472 65.2521 7.98632 64.3176 8.86548 63.5659C9.35144 63.1505 9.65219 62.8723 9.65219 62.8381C9.65219 62.7952 9.38226 62.5427 8.8242 62.0638C8.23244 61.556 7.18356 60.6876 6.28739 59.9642C6.17356 59.8721 6.04076 59.7648 5.99232 59.7256C5.85689 59.6162 5.57315 59.3882 5.24919 59.1287C3.99498 58.1238 2.80257 57.1411 2.06905 56.508C1.98473 56.4352 1.89933 56.3618 1.87927 56.3448C1.64095 56.1438 1.15446 55.6981 1.07119 55.6047C0.97935 55.5017 0.978064 55.4881 1.05754 55.4582C1.25819 55.3834 1.92379 55.3422 3.35862 55.3159C4.45576 55.296 6.31585 55.29 11.2961 55.2897H16.5207L16.5262 55.5908C16.5315 55.8779 16.5477 57.1032 16.5667 58.6575C16.5837 60.0409 16.5928 60.7481 16.5974 61.0269C16.6 61.1818 16.6063 61.6923 16.6116 62.1612C16.6169 62.6304 16.6238 63.1309 16.627 63.2731L16.6328 63.5323L16.6989 63.5712C16.7352 63.5925 16.9889 63.7407 17.2626 63.9006C17.5363 64.0601 17.9545 64.3043 18.1919 64.4429C18.4293 64.5818 18.7325 64.7586 18.8657 64.8364C18.999 64.9138 19.1774 65.0178 19.2621 65.0674C19.6091 65.2704 19.999 65.4981 20.3191 65.6848C20.5056 65.7935 20.7415 65.9314 20.8432 65.9909C20.945 66.0504 21.2601 66.2341 21.5435 66.3996C22.51 66.9633 23.0288 67.2687 23.6971 67.6681C25.8126 68.9326 27.3048 69.8841 27.4974 70.0915C27.5152 70.1107 27.5175 70.1187 27.5106 70.138C27.4613 70.2776 26.6557 70.3241 23.7412 70.3563C21.8953 70.3766 10.8812 70.3852 7.3657 70.3689ZM20.6054 70.0173C22.925 70.0041 25.092 69.9831 25.5733 69.9695C25.6605 69.9672 25.825 69.9628 25.9389 69.9602C26.3604 69.9502 26.5427 69.9369 26.5197 69.918C26.4916 69.8951 25.5281 69.3178 24.9611 68.9845C24.9103 68.9546 24.6843 68.8213 24.4591 68.6884C23.987 68.4096 23.1531 67.9194 22.5168 67.5468C22.2746 67.4049 21.9615 67.2218 21.821 67.1394C21.6805 67.057 21.5437 66.9772 21.5171 66.9623C21.4904 66.947 21.3874 66.8868 21.2881 66.8287C21.1888 66.7702 20.9093 66.607 20.6671 66.4651C20.4249 66.3235 20.1474 66.1614 20.0505 66.1049C19.8729 66.0009 19.4986 65.7825 19.0684 65.5313C18.94 65.4565 18.5317 65.2179 18.1611 65.0016C17.7905 64.7852 17.4258 64.5722 17.3507 64.5283C17.2756 64.4848 17.1151 64.3907 16.994 64.32C16.8728 64.2488 16.6905 64.1422 16.5888 64.083C16.4871 64.0235 16.3679 63.9534 16.324 63.9275L16.2442 63.8806L16.2335 63.0604C16.2277 62.6095 16.2189 61.9219 16.2142 61.5324C16.2095 61.1433 16.1978 60.233 16.1882 59.5102C16.1787 58.7871 16.1666 57.8436 16.1613 57.4132C16.1456 56.1205 16.1376 55.6409 16.1317 55.635C16.1238 55.627 4.1866 55.6496 3.71976 55.6586C3.2323 55.6679 3.02798 55.6742 2.7068 55.6901C2.11062 55.7204 1.92497 55.7689 2.00728 55.8732C2.01738 55.8862 2.18089 56.0128 2.37062 56.1547C3.15984 56.7446 4.12761 57.5099 5.40656 58.5554C5.75855 58.8432 5.86758 58.933 6.46796 59.4314C7.37349 60.1828 8.52717 61.1642 9.0356 61.6155C9.10102 61.6733 9.22586 61.7843 9.31308 61.8617C9.70729 62.2117 10.12 62.6058 10.2 62.7088L10.236 62.755L10.231 62.8232C10.2181 62.999 10.1157 63.1552 9.82015 63.4496C9.39312 63.8753 8.46485 64.642 6.33985 66.3245C6.064 66.5429 5.36272 67.0985 4.84617 67.508C4.52037 67.7658 3.83065 68.3132 3.36304 68.6847C2.99876 68.9742 2.20844 69.6043 2.07923 69.7083C2.00933 69.7644 1.96254 69.8083 1.96252 69.8176C1.96252 69.8395 2.00922 69.8651 2.07666 69.8804C2.36462 69.9456 3.35272 69.9848 5.18634 70.004C5.43586 70.0067 5.81638 70.0114 6.03197 70.0143C7.36517 70.0336 17.4211 70.0356 20.6054 70.0173ZM90.6407 70.3689C85.884 70.347 84.1235 70.2945 84.0216 70.1719C84.0063 70.1533 84.0456 70.1144 84.1834 70.0114C84.6958 69.6289 86.3973 68.5714 88.3639 67.4132C88.749 67.1866 88.8775 67.1112 89.6013 66.6891C91.6141 65.5153 93.5587 64.3658 94.3044 63.9085C94.6922 63.6709 94.7372 63.6377 94.7978 63.543C94.9526 63.3017 95.0095 62.7763 95.0445 61.2732C95.0618 60.5285 95.0728 59.9186 95.0804 59.264C95.0874 58.6482 95.11 56.9543 95.12 56.2853C95.1247 55.9603 95.1287 55.6233 95.1287 55.5369V55.3797L95.677 55.3741C95.9786 55.3711 96.9267 55.3648 97.7843 55.3601C99.4569 55.3512 99.9576 55.3478 102.299 55.3316C104.388 55.3173 108.292 55.3173 108.87 55.3316C110.078 55.3618 110.51 55.4053 110.561 55.5014C110.577 55.5303 110.541 55.5758 110.373 55.7426C109.821 56.288 108.267 57.5983 106.254 59.2154C105.965 59.4471 105.658 59.6943 105.571 59.7651C104.713 60.4607 104.323 60.7794 103.787 61.224C102.995 61.8804 102.516 62.2904 102.178 62.5998C102.004 62.759 101.969 62.7992 101.977 62.8311C101.988 62.877 102.285 63.1621 102.704 63.5294C103.209 63.9723 104.363 64.9344 105.187 65.5994C105.247 65.6476 105.341 65.7237 105.395 65.7679C105.45 65.8124 105.776 66.0736 106.119 66.3478C107.029 67.0763 107.344 67.3308 107.896 67.7838C108.895 68.6033 109.718 69.3038 110.173 69.7236C110.356 69.8914 110.536 70.0755 110.555 70.1121C110.575 70.1493 110.557 70.1699 110.488 70.1925C110.297 70.2546 109.846 70.2879 108.746 70.3208C108.067 70.341 106.463 70.3583 104.206 70.3693C102.288 70.3789 92.6947 70.3786 90.6407 70.3689ZM107.275 70.0183L109.886 70.013L109.737 69.8934C109.655 69.8276 109.483 69.6893 109.354 69.586C109.087 69.3713 107.573 68.162 107.086 67.7745C106.907 67.6319 106.623 67.4056 106.455 67.272C106.157 67.0351 105.773 66.7297 105.131 66.2199C102.763 64.3372 102.2 63.8663 101.864 63.4845C101.663 63.2575 101.589 63.1126 101.58 62.9262C101.565 62.641 101.687 62.431 102.117 62.0027C102.597 61.5258 103.373 60.8744 105.377 59.2689C106.598 58.2912 106.998 57.9699 108.024 57.1457C108.406 56.8386 109.343 56.0826 109.466 55.9829C109.63 55.8486 109.641 55.8314 109.586 55.7945C109.504 55.7396 109.19 55.7041 108.588 55.6812C108.518 55.6785 108.411 55.6742 108.35 55.6719C107.65 55.6439 105.302 55.633 100.157 55.6326H95.6144L95.6104 58.6817C95.6064 61.7398 95.6044 61.9604 95.5731 62.5527C95.5298 63.3725 95.447 63.654 95.1899 63.852C94.9909 64.0056 94.3377 64.425 93.4594 64.9637C92.9844 65.2551 92.1471 65.7603 91.7286 66.0082C91.6001 66.0839 91.411 66.1963 91.3085 66.2571C90.9862 66.4485 90.2541 66.8779 89.5134 67.3096C89.1209 67.5382 88.7344 67.7635 88.6545 67.8104C88.5746 67.8576 88.4121 67.9526 88.2933 68.0217C88.1748 68.0912 87.9783 68.2058 87.8575 68.2766C87.7363 68.3477 87.5063 68.4823 87.3465 68.5757C86.35 69.1583 85.1489 69.8665 85.0543 69.927L85.0034 69.9599L85.0344 69.9662C85.1243 69.9851 87.2319 70.006 90.1476 70.017C92.2526 70.025 103.656 70.026 107.275 70.0187V70.0183ZM28.8765 69.6448C28.5125 69.5255 27.4414 68.9652 26.2648 68.2786C24.8604 67.4588 24.005 66.8941 23.8365 66.6755C23.7719 66.5917 23.7668 66.5485 23.8184 66.5203C23.8614 66.497 24.0906 66.5 24.2389 66.5259C24.7218 66.6107 25.2607 66.7489 26.4145 67.0846C26.4848 67.1048 27.1675 67.3089 27.9318 67.5379L29.3213 67.9543L29.321 68.4209C29.3206 69.3062 29.2976 69.5019 29.1814 69.6066C29.114 69.6674 28.9919 69.6827 28.8765 69.6448ZM28.8307 69.1118C28.861 69.0878 28.893 69.0177 28.9127 68.9316C28.9358 68.8313 28.9357 68.6422 28.9124 68.5754C28.8394 68.365 28.6377 68.2514 27.9614 68.0397C27.1723 67.7924 26.2854 67.5714 26.2296 67.6077C26.2186 67.615 26.2215 67.6216 26.2472 67.6485C26.4313 67.8406 28.2395 68.9144 28.6914 69.0998C28.774 69.1337 28.7999 69.136 28.8307 69.1118ZM82.4733 69.6531C82.3001 69.6112 82.2489 69.4481 82.2482 68.936C82.2475 68.4757 82.3234 68.1277 82.4533 67.9941C82.4872 67.9596 82.5102 67.947 82.6121 67.9074C82.7709 67.8459 83.4833 67.6096 83.735 67.5352C83.7593 67.5279 83.8842 67.4897 84.0123 67.4501C84.232 67.3823 84.8706 67.1906 85.065 67.1338C85.1136 67.1195 85.2125 67.0902 85.2854 67.069C85.358 67.0473 85.584 66.9822 85.7874 66.9241C86.8105 66.6319 87.3927 66.4827 87.5103 66.4827C87.6311 66.4827 87.7383 66.5774 87.7383 66.6841C87.7383 66.7137 87.7316 66.7263 87.693 66.7682C87.4736 67.0081 86.3577 67.725 85.0077 68.494C83.9041 69.1224 83.0036 69.5764 82.7106 69.6521C82.648 69.6684 82.5378 69.6687 82.4733 69.6531ZM82.9929 69.0579C83.1354 69.0091 83.3531 68.8868 84.3033 68.3205C84.9921 67.9097 85.1499 67.8064 85.292 67.6708C85.3493 67.616 85.348 67.5997 85.2857 67.5997C85.0573 67.5997 83.6411 68.0071 83.2373 68.1889C82.9943 68.2986 82.8864 68.3992 82.8451 68.5558C82.8301 68.6116 82.8165 68.9446 82.8268 68.9991C82.8298 69.0167 82.8408 69.0413 82.8508 69.0539C82.8734 69.0828 82.916 69.0842 82.9929 69.0579Z" stroke="white" stroke-width="0.5"/>
</svg>
