<svg width="140" height="140" viewBox="0 0 140 140" fill="none" xmlns="http://www.w3.org/2000/svg">
<circle cx="70" cy="70" r="70" fill="#003358"/>
<path d="M68.7877 94.668C67.7011 94.6571 66.3078 94.6205 65.4393 94.5803C65.3351 94.5756 65.119 94.5657 64.9592 94.5584C63.2181 94.4783 61.0877 94.3121 59.3216 94.1184C59.2104 94.1064 59.0656 94.0905 59.0004 94.0835C58.519 94.0316 57.4363 93.8997 56.9037 93.8279C56.4283 93.7641 56.1896 93.7312 55.8863 93.6877C55.5853 93.6445 55.4591 93.6262 55.076 93.569C54.9721 93.5538 54.4857 93.4786 54.2217 93.4371C54.1634 93.4281 53.9833 93.3989 53.8209 93.3723C53.6587 93.3454 53.4903 93.3178 53.4467 93.3108C52.2871 93.1221 50.4008 92.7665 49.1085 92.493C49.0286 92.476 48.8877 92.4464 48.7959 92.4268C48.3487 92.3325 47.8702 92.2264 47.1441 92.0613C47.0933 92.0496 46.9664 92.0201 46.8622 91.9955C46.7581 91.9709 46.6392 91.9433 46.598 91.934C46.2634 91.8582 44.9264 91.5276 44.4091 91.3926C43.1726 91.0703 42.2135 90.8048 41.1632 90.494C40.9089 90.4189 40.677 90.3505 40.648 90.3422C39.8867 90.1212 38.0712 89.5356 37.0762 89.1903C36.9623 89.1508 36.8137 89.0996 36.7458 89.076C36.6051 89.0278 36.1114 88.852 35.7857 88.7344C35.147 88.5041 34.77 88.3622 33.293 87.7965C33.0992 87.7224 32.8395 87.6234 32.716 87.5762C32.5925 87.5294 32.4478 87.4742 32.3945 87.4539C32.3412 87.4333 32.149 87.3602 31.9673 87.2911C31.7856 87.2216 31.6337 87.1621 31.6297 87.1588C31.622 87.1522 31.6071 85.348 31.5798 81.1098C31.5752 80.4013 31.5694 79.5745 31.5668 79.2721C31.5595 78.4117 31.5536 77.5659 31.5401 75.4427C31.5332 74.3596 31.5249 73.2138 31.5216 72.8967L31.5158 72.3205L31.6601 72.3398C31.7394 72.3504 31.8836 72.3693 31.9805 72.3823C32.1963 72.4105 32.2862 72.4285 32.4958 72.4853C32.7736 72.5604 33.4231 72.7628 33.7051 72.8618C33.7449 72.8758 33.8765 72.9217 33.9976 72.9632C34.4393 73.1157 34.7433 73.2254 35.2528 73.4162C37.1272 74.1177 39.0152 74.7504 40.943 75.3234C41.0084 75.3427 41.1214 75.3762 41.1941 75.3978C41.4171 75.4639 41.8982 75.6022 42.2951 75.7142C42.7502 75.8425 43.6178 76.0768 44.0744 76.1944C44.1519 76.2147 44.284 76.2486 44.3679 76.2705C44.4518 76.2921 44.5243 76.3087 44.5289 76.3071C44.5335 76.3057 44.3764 76.1502 44.1797 75.9621C43.6569 75.462 42.8853 74.6916 42.3558 74.1416C41.722 73.483 41.3248 73.0533 40.2388 71.8516C39.8402 71.4102 39.6597 71.2112 39.6252 71.174C39.605 71.152 39.5027 71.0394 39.398 70.9234L39.2074 70.7124L39.212 70.167C39.2145 69.8673 39.2186 68.7932 39.2212 67.7799C39.2291 64.6667 39.2411 60.514 39.2653 52.5948C39.2723 50.2904 39.2822 46.8896 39.2872 45.0374C39.3053 38.3773 39.3218 33.9511 39.3286 33.9448C39.3324 33.9413 39.3732 33.932 39.4192 33.9242C39.4652 33.9164 39.5564 33.9 39.6218 33.8878C39.8803 33.8395 40.0828 33.8021 40.2384 33.7739C40.8225 33.6678 40.993 33.6336 41.2337 33.5744C42.2098 33.3344 43.12 32.9396 43.9876 32.38C44.7671 31.8772 45.4949 31.2297 46.0926 30.5073C47.0875 29.3049 47.7422 27.8986 47.994 26.4231C48.0063 26.3505 48.0557 26.0168 48.1038 25.6814C48.1518 25.3461 48.1926 25.0702 48.1944 25.0684C48.2012 25.0616 50.0796 25.0546 55.2521 25.0423C58.1977 25.0352 61.9853 25.0254 63.6685 25.0204C74.5069 24.9885 80.6708 24.9937 84.9055 25.0381C85.3586 25.0428 85.8559 25.0489 86.0111 25.0516C86.623 25.0623 87.5771 25.0821 87.7023 25.0868C88.2376 25.1065 88.4963 25.1207 88.6068 25.1361C88.6857 25.1472 88.6954 25.155 88.74 25.2449C88.8468 25.4608 88.9597 25.8926 89.0536 26.4452C89.1911 27.2525 89.4138 27.9333 89.7857 28.6828C90.1985 29.5143 90.7361 30.278 91.4333 31.0217C92.6038 32.2705 93.8349 33.0348 95.3833 33.4736C95.7705 33.5833 95.902 33.6136 96.6693 33.7694C97.2829 33.8941 97.5752 33.9544 97.5779 33.9568C97.5809 33.96 97.6025 40.7296 97.6248 48.7084C97.6295 50.3309 97.6355 52.2459 97.6381 52.9641C97.6408 53.6822 97.6468 55.7121 97.6514 57.4748C97.6558 59.2375 97.6618 61.3644 97.6648 62.2008C97.6741 65.0781 97.6861 69.1574 97.6877 70.0198L97.6894 70.8838L97.6155 70.9659C97.5745 71.0108 97.454 71.1421 97.3475 71.2577C97.241 71.373 97.1278 71.4956 97.0965 71.5299C97.0648 71.5644 96.952 71.6871 96.8455 71.8027C96.7389 71.9184 96.5585 72.1144 96.4446 72.2384C95.7352 73.0097 95.3653 73.4092 95.2205 73.5611C95.1835 73.5999 95.0767 73.7126 94.9825 73.8116C94.03 74.8166 92.8322 75.9927 91.8091 76.9278C91.7036 77.0242 91.6177 77.1066 91.6177 77.111C91.6177 77.1153 91.625 77.1166 91.634 77.1139C91.6433 77.111 91.7472 77.087 91.8654 77.0608C92.1753 76.992 92.44 76.9322 92.6614 76.8807C92.7679 76.8561 92.9324 76.8178 93.0269 76.7959C93.4953 76.6876 94.6226 76.4114 95.1409 76.2778C95.4828 76.1897 96.0335 76.0455 96.2156 75.9963C97.2033 75.7301 97.9271 75.5261 98.7877 75.2709C98.8336 75.2572 98.9308 75.2287 99.0034 75.2071C99.1842 75.1536 99.4638 75.0681 99.8357 74.9532C100.008 74.9 100.178 74.8475 100.215 74.8362C100.294 74.8119 100.568 74.7252 100.884 74.6238C102.13 74.2247 103.366 73.7997 104.636 73.3341C105.908 72.8678 107.112 72.481 107.597 72.3833C107.702 72.3624 107.724 72.361 107.974 72.361H108.239V79.636V86.9112L107.999 87.0515C107.867 87.1289 107.718 87.2123 107.669 87.2372C106.779 87.6826 103.324 88.9301 100.144 89.954C99.0007 90.3222 97.8172 90.6778 96.7176 90.9835C96.6281 91.0085 96.5199 91.0387 96.4776 91.0503C96.4353 91.0623 96.3657 91.0816 96.3234 91.0935C95.8917 91.2138 95.0048 91.4481 94.4099 91.599C92.977 91.9622 91.8358 92.2264 90.2877 92.5531C88.5649 92.9167 86.308 93.3221 84.6811 93.5607C84.6182 93.5697 84.4733 93.5913 84.3595 93.6079C82.6363 93.8625 80.8046 94.0818 79.0305 94.2456C77.3546 94.4008 75.6924 94.5122 73.9832 94.5843C73.6926 94.5966 73.6017 94.5999 73.2874 94.6112C73.2218 94.6135 73.113 94.6172 73.045 94.6198C71.9774 94.6594 70.0764 94.681 68.7877 94.668ZM70.9913 94.1672C73.4685 94.142 75.2243 94.0931 76.238 94.0213C76.775 93.9834 77.2704 93.9452 77.6652 93.9117C78.0201 93.8814 78.4652 93.8419 78.6034 93.8283C78.676 93.8213 78.8601 93.8037 79.0129 93.789C80.7187 93.6252 82.5178 93.4042 84.3418 93.134C85.4961 92.9629 87.1273 92.688 88.2086 92.4823C88.3225 92.4607 88.4793 92.4312 88.5565 92.4162C88.995 92.3331 89.9002 92.1517 90.3273 92.0609C91.0707 91.9034 91.4343 91.824 92.0315 91.6884C93.0442 91.4581 94.3599 91.1371 95.1849 90.9184C96.2009 90.6492 96.388 90.598 97.2463 90.3551C97.5905 90.2577 97.7373 90.2152 98.1139 90.1049C98.6658 89.9427 99.4632 89.6988 100.003 89.5273C100.209 89.4618 100.431 89.3914 100.497 89.3704C100.914 89.2378 101.803 88.9424 102.24 88.7905C102.301 88.7696 102.41 88.732 102.483 88.7068C102.555 88.6819 102.748 88.6144 102.91 88.5572C103.072 88.5001 103.245 88.4393 103.293 88.4223C103.486 88.3542 103.653 88.2937 104.231 88.0827C104.378 88.0292 104.779 87.879 105.266 87.6955C105.996 87.421 106.764 87.1329 107.169 86.9813C107.377 86.9036 107.55 86.8375 107.553 86.8348C107.556 86.8318 107.563 86.1309 107.569 85.2775C107.574 84.4241 107.587 82.7126 107.596 81.4747C107.606 80.2365 107.617 78.6104 107.622 77.8607C107.627 77.1113 107.635 76.0272 107.64 75.4517C107.658 73.1659 107.66 72.7389 107.652 72.7389C107.648 72.7389 107.585 72.7611 107.512 72.7877C107.327 72.8562 107.222 72.8947 107.015 72.9708C106.915 73.0071 106.691 73.0888 106.517 73.153C105.916 73.373 105.802 73.4145 105.473 73.5348C105.292 73.6013 105.052 73.6893 104.94 73.7302C103.789 74.1526 102.316 74.6614 101.236 75.0093C100.699 75.1825 100.076 75.3782 99.6333 75.5131C99.4951 75.555 99.3327 75.6045 99.2721 75.6231C99.2115 75.6414 99.0727 75.6829 98.9638 75.7152C98.8549 75.7474 98.7201 75.787 98.6642 75.8036C98.25 75.9262 97.4896 76.1436 97.0965 76.2516C96.6827 76.3655 96.5645 76.3978 96.4183 76.4367C96.3334 76.4593 96.2382 76.4849 96.2069 76.4938C96.122 76.5181 95.4552 76.6919 95.1013 76.7823C94.1352 77.0292 92.8481 77.3359 91.9789 77.5267C91.8987 77.5443 91.7342 77.5802 91.613 77.6068C91.4922 77.6337 91.2998 77.6749 91.1859 77.6992C91.072 77.7231 90.9176 77.756 90.8423 77.7723C90.7674 77.7886 90.6526 77.8125 90.587 77.8254C90.5217 77.8384 90.4205 77.8587 90.3623 77.8703C90.3043 77.8823 90.1459 77.9139 90.01 77.9408C89.8745 77.9677 89.7397 77.9949 89.7108 78.0019C89.6475 78.0162 88.9887 78.1435 88.6228 78.2116C87.643 78.3947 86.6216 78.5699 85.6718 78.7181C85.5144 78.7427 85.3739 78.7663 85.3592 78.7709C85.3446 78.7752 85.2893 78.7849 85.236 78.7922C85.1828 78.7995 84.9747 78.8294 84.7736 78.8587C84.2846 78.9298 84.1601 78.9474 84.1128 78.9517C84.0912 78.9537 84.0019 78.9657 83.915 78.978C83.8278 78.9903 83.7289 79.0039 83.6947 79.0082C83.6607 79.0129 83.5139 79.0321 83.3687 79.0517C82.4589 79.1734 81.4794 79.2903 80.5676 79.3861C78.2518 79.6293 75.9058 79.7968 73.6749 79.8782C73.4109 79.8879 73.1373 79.8982 73.067 79.9008C72.9968 79.9035 72.7867 79.9095 72.6003 79.9141C72.4138 79.9188 72.0689 79.9274 71.8339 79.9334C71.2523 79.9483 68.3506 79.9487 67.7514 79.9337C65.5574 79.8792 64.0653 79.8088 62.211 79.6719C60.2088 79.5243 58.0988 79.3053 56.1859 79.0471C56.0601 79.0301 55.9292 79.0125 55.8953 79.0082C55.6562 78.977 54.7627 78.848 54.4331 78.7975C54.3362 78.7825 54.1921 78.7606 54.1125 78.7487C53.8638 78.7111 53.0036 78.5712 52.6493 78.511C52.4629 78.4791 52.2965 78.4512 52.2795 78.4486C52.2625 78.4459 52.2329 78.4386 52.2132 78.4319C52.1939 78.4253 52.1087 78.4077 52.0241 78.3931C51.9392 78.3784 51.7904 78.3525 51.6935 78.3356C51.5967 78.3183 51.4262 78.2884 51.315 78.2691C51.2035 78.2495 51.0713 78.2259 51.0211 78.2163C50.9711 78.207 50.9115 78.197 50.8892 78.1947C50.8356 78.1884 50.1292 78.0528 49.6588 77.9581C48.8398 77.7936 47.9505 77.6045 47.2587 77.4473C47.1399 77.4203 46.9913 77.3868 46.9283 77.3725C46.8653 77.3582 46.7583 77.3329 46.6905 77.3163C46.2434 77.2077 45.6194 77.0571 45.4441 77.0162C45.0458 76.9229 44.2315 76.7178 43.7353 76.5859C42.757 76.326 42.0674 76.1349 41.3177 75.9166C40.4669 75.669 39.4757 75.3679 38.9039 75.1835C38.8458 75.1649 38.6733 75.1094 38.5207 75.0605C37.5763 74.7571 36.3395 74.337 35.4995 74.0343C35.4389 74.0127 35.314 73.9678 35.222 73.9349C35.0129 73.8601 34.5761 73.7006 34.3323 73.6096C34.2306 73.5717 34.0621 73.5092 33.958 73.4707C33.8538 73.4318 33.6814 73.368 33.5748 73.3281C33.4683 73.2885 33.3275 73.2364 33.2621 73.2124C33.1967 73.1882 33.0124 73.1197 32.8526 73.0602C32.1768 72.809 32.009 72.7475 32.0069 72.7498C32.0057 72.7512 32.0001 73.4388 31.9944 74.2779C31.9887 75.117 31.9763 76.7766 31.9669 77.9664C31.9264 83.0865 31.9589 86.5663 32.0491 86.754C32.0617 86.7803 32.1137 86.8079 32.3064 86.8903C32.5959 87.0142 33.4616 87.3522 34.1606 87.6141C35.7318 88.2033 36.9909 88.6506 38.3137 89.0893C38.849 89.2671 39.0436 89.3302 39.7054 89.5409C40.3472 89.7453 41.2011 90.0042 42.0441 90.2504C43.3568 90.6333 45.2261 91.1291 46.5187 91.4372C46.9546 91.5409 47.2537 91.6113 47.4744 91.6618C47.6004 91.6904 47.7134 91.7163 47.7255 91.7193C48.5728 91.9164 49.9904 92.2141 51.064 92.4209C53.949 92.9762 57.0285 93.4308 59.9428 93.7315C60.4492 93.7837 60.635 93.802 61.1936 93.8545C62.0785 93.9373 63.2124 94.027 64.1442 94.0878C64.7711 94.1287 65.7652 94.1553 67.214 94.1699C67.8456 94.1762 70.2655 94.1745 70.9913 94.1672ZM49.6368 90.4425C49.6198 90.4405 49.5626 90.4349 49.5093 90.4299C49.0312 90.3844 48.5855 90.2192 48.21 89.9477C47.6639 89.5529 47.237 88.9208 47.0033 88.1611C46.8379 87.6231 46.756 87.0515 46.7419 86.337C46.7291 85.6833 46.7885 85.0303 46.9107 84.4819C47.2175 83.1051 47.953 82.1477 48.9783 81.7908C49.6388 81.5608 50.4541 81.5787 51.2644 81.8406C51.3553 81.8702 51.3739 81.8795 51.3843 81.8994C51.3949 81.9204 51.3826 82.0294 51.2711 82.8931C51.2022 83.4265 51.1419 83.8661 51.1379 83.8698C51.1296 83.8771 50.9928 83.908 50.9884 83.9037C50.9868 83.9024 50.9238 83.5511 50.8483 83.1231C50.773 82.6953 50.7078 82.3391 50.7038 82.3321C50.6871 82.3022 50.3196 82.1935 50.1258 82.161C49.0931 81.9878 48.3254 82.5491 47.9146 83.7784C47.7419 84.2952 47.6499 84.8618 47.6198 85.5942C47.585 86.443 47.6631 87.2648 47.8397 87.9079C48.0259 88.5858 48.3334 89.1381 48.7233 89.4954C49.2023 89.9341 49.8608 90.0653 50.5167 89.8526L50.6166 89.8201L50.6122 88.4918C50.6076 87.0495 50.6099 87.1083 50.5593 87.0425C50.5407 87.0179 50.4917 86.9917 50.2873 86.8959C50.1498 86.8318 50.0286 86.7736 50.018 86.767C49.999 86.7547 49.998 86.7494 49.998 86.6311V86.5081L50.238 86.5148C50.547 86.5237 51.4362 86.5237 51.7172 86.5148L51.9346 86.5081L51.9402 86.5457C51.9432 86.5663 51.9462 86.6241 51.9472 86.6743L51.9492 86.7653L51.7162 86.8677C51.5008 86.9624 51.4808 86.973 51.4548 87.0073C51.4392 87.0275 51.4219 87.0631 51.4162 87.0864C51.4086 87.1173 51.4046 87.5174 51.4016 88.623C51.3979 89.8812 51.3953 90.1208 51.3849 90.1371C51.3759 90.1511 51.3363 90.1683 51.2381 90.2003C50.8849 90.3159 50.5666 90.3884 50.2444 90.4262C50.1332 90.4392 49.709 90.4508 49.6368 90.4425ZM68.0816 90.4382C67.4957 90.3794 67.0256 90.1644 66.6354 89.7765C66.0372 89.1823 65.65 88.2126 65.5318 87.0143C65.5035 86.7238 65.4992 86.6341 65.4945 86.2177C65.4885 85.6823 65.5025 85.3885 65.5541 84.9698C65.6943 83.8273 66.0891 82.8951 66.685 82.3009C66.9204 82.0663 67.1471 81.9094 67.4341 81.7828C67.764 81.6372 68.0969 81.5724 68.5134 81.5724C68.803 81.5724 68.9622 81.591 69.2045 81.6522C69.6706 81.7698 70.0791 82.0264 70.3984 82.4016C70.8754 82.9629 71.1867 83.7628 71.3092 84.7411C71.4144 85.5826 71.3871 86.6045 71.2386 87.3918C71.1371 87.9295 70.9876 88.3888 70.7759 88.8121C70.5692 89.2259 70.3801 89.4921 70.1017 89.7622C69.7152 90.1371 69.2734 90.3488 68.7158 90.4259C68.594 90.4428 68.2031 90.4502 68.0816 90.4382ZM68.6848 89.9553C69.0887 89.9105 69.396 89.7646 69.6586 89.4927C70.1047 89.0308 70.3627 88.2229 70.4506 87.0143C70.4823 86.5789 70.4922 85.7627 70.4703 85.3962C70.4237 84.6208 70.3321 84.0715 70.165 83.5674C69.8441 82.599 69.3147 82.1171 68.5074 82.058C68.0184 82.0221 67.5772 82.1606 67.256 82.4511C66.6707 82.9802 66.3731 84.138 66.3731 85.8843C66.3731 87.4579 66.6311 88.6018 67.1401 89.2847C67.2247 89.398 67.4301 89.6014 67.5356 89.6758C67.6402 89.75 67.8196 89.8403 67.9408 89.8799C68.04 89.9128 68.1775 89.9424 68.2844 89.9543C68.3789 89.965 68.5923 89.9653 68.6848 89.955V89.9553ZM76.6525 90.3727C76.3073 90.3335 76.0133 90.2554 75.5565 90.0816C75.4786 90.052 75.476 90.1451 75.5882 88.9883L75.6877 87.964L75.7746 87.9438C75.8222 87.9325 75.8625 87.9242 75.8638 87.9258C75.8655 87.9275 75.9304 88.3123 76.0083 88.7816C76.1242 89.4788 76.1528 89.6363 76.1654 89.6459C76.2044 89.6748 76.4201 89.7726 76.5157 89.8048C76.7687 89.8895 77.0377 89.9131 77.291 89.8719C77.6822 89.8088 77.9808 89.5845 78.1543 89.2232C78.2711 88.9796 78.3197 88.7277 78.3207 88.3638C78.3214 88.0099 78.2718 87.7736 78.1413 87.5064C78.0517 87.3233 77.9539 87.1927 77.7784 87.0226C77.615 86.8637 77.4312 86.7258 76.9921 86.4317C76.4597 86.0748 76.2337 85.8843 76.0063 85.6012C75.8299 85.3812 75.691 85.106 75.6042 84.8053C75.4557 84.2898 75.457 83.5328 75.6075 83.0254C75.7383 82.5827 75.964 82.2464 76.2943 82.0005C76.493 81.8522 76.6958 81.7569 76.9465 81.6934C77.3639 81.588 77.9505 81.6153 78.5551 81.7685C78.7742 81.824 78.8474 81.8499 78.8624 81.8762C78.874 81.8968 78.8641 81.9858 78.7585 82.821C78.6943 83.3281 78.639 83.7508 78.635 83.7601C78.6304 83.7724 78.6077 83.7824 78.5541 83.7967C78.5135 83.8073 78.4795 83.8156 78.4789 83.815C78.4782 83.8143 78.4196 83.4813 78.3484 83.0749C78.2775 82.6688 78.2175 82.3305 78.2152 82.3228C78.2059 82.2912 77.874 82.166 77.7032 82.1294C77.5933 82.1061 77.3666 82.0968 77.2581 82.1115C76.78 82.1749 76.4364 82.5069 76.3086 83.028C76.265 83.2058 76.2527 83.3221 76.252 83.5584C76.2513 83.9166 76.2996 84.1479 76.4318 84.4201C76.5247 84.6119 76.6285 84.7534 76.806 84.9306C76.9668 85.0907 77.1369 85.2194 77.5973 85.5271C78.0235 85.8122 78.2142 85.9575 78.3833 86.1259C78.669 86.4101 78.8408 86.6882 78.9593 87.0585C79.0528 87.3502 79.0894 87.6862 79.0738 88.1043C79.0478 88.7819 78.8817 89.3016 78.5661 89.6915C78.5028 89.7696 78.343 89.9264 78.2685 89.9829C78.0088 90.1806 77.7045 90.3046 77.3423 90.3601C77.1815 90.3847 76.816 90.3913 76.6525 90.3727ZM90.3936 90.3727C90.0483 90.3335 89.7544 90.2554 89.2976 90.0816C89.2197 90.052 89.217 90.1451 89.3292 88.9883L89.4288 87.964L89.5157 87.9438C89.5633 87.9325 89.6036 87.9242 89.6049 87.9258C89.6066 87.9275 89.6715 88.3123 89.7494 88.7816C89.8652 89.4788 89.8939 89.6363 89.9065 89.6459C89.9455 89.6748 90.1612 89.7726 90.2567 89.8048C90.5098 89.8895 90.7788 89.9131 91.0321 89.8719C91.4233 89.8088 91.7219 89.5845 91.8953 89.2232C92.0122 88.9796 92.0608 88.7277 92.0618 88.3638C92.0625 88.0099 92.0129 87.7736 91.8824 87.5064C91.7928 87.3233 91.6949 87.1927 91.5195 87.0226C91.356 86.8637 91.1723 86.7258 90.7331 86.4317C90.2008 86.0748 89.9748 85.8843 89.7474 85.6012C89.5709 85.3812 89.4321 85.106 89.3452 84.8053C89.1967 84.2898 89.1981 83.5328 89.3485 83.0254C89.4794 82.5827 89.7051 82.2464 90.0353 82.0005C90.2341 81.8522 90.4368 81.7569 90.6875 81.6934C91.105 81.588 91.6916 81.6153 92.2962 81.7685C92.5152 81.824 92.5885 81.8499 92.6035 81.8762C92.6151 81.8968 92.6051 81.9858 92.4996 82.821C92.4353 83.3281 92.3801 83.7508 92.3761 83.7601C92.3714 83.7724 92.3488 83.7824 92.2952 83.7967C92.2542 83.8073 92.2206 83.8156 92.2199 83.815C92.2193 83.8143 92.1607 83.4813 92.0894 83.0749C92.0185 82.6688 91.9586 82.3305 91.9563 82.3228C91.9469 82.2912 91.615 82.166 91.4442 82.1294C91.3344 82.1061 91.1077 82.0968 90.9991 82.1115C90.5211 82.1749 90.1775 82.5069 90.0497 83.028C90.0061 83.2058 89.9937 83.3221 89.9931 83.5584C89.9924 83.9166 90.0407 84.1479 90.1728 84.4201C90.2657 84.6119 90.3696 84.7534 90.547 84.9306C90.7078 85.0907 90.878 85.2194 91.3384 85.5271C91.7645 85.8122 91.9553 85.9575 92.1244 86.1259C92.41 86.4101 92.5818 86.6882 92.7003 87.0585C92.7939 87.3502 92.8305 87.6862 92.8149 88.1043C92.7889 88.7819 92.6228 89.3016 92.3072 89.6915C92.2439 89.7696 92.0841 89.9264 92.0095 89.9829C91.7499 90.1806 91.4456 90.3046 91.0837 90.3601C90.9226 90.3847 90.557 90.3913 90.3936 90.3727ZM60.5348 90.2431C60.5254 90.2275 59.7058 88.7071 58.7137 86.8647C57.7216 85.022 56.9043 83.5086 56.8973 83.5012C56.887 83.4903 56.8857 83.9276 56.8887 86.5394C56.8917 89.2448 56.8937 89.5961 56.9057 89.6406C56.9306 89.7343 56.9346 89.737 57.2246 89.8636L57.4853 89.9769V90.1115V90.2464L57.43 90.2395C57.3588 90.2302 55.9778 90.2302 55.8893 90.2391L55.8217 90.2458L55.817 90.1906C55.8144 90.1604 55.8097 90.1019 55.807 90.0607L55.8024 89.9859L56.0597 89.8719C56.2125 89.8041 56.3297 89.747 56.3477 89.731C56.3647 89.7164 56.3866 89.6868 56.3966 89.6649L56.4149 89.6253L56.4173 86.1127C56.4186 84.143 56.4163 82.5498 56.4119 82.4857C56.4036 82.364 56.39 82.3212 56.3474 82.2823C56.336 82.2716 56.2119 82.2098 56.0714 82.1444L55.816 82.0254L55.8084 81.9011C55.8044 81.8326 55.803 81.7745 55.8054 81.7721C55.808 81.7698 55.9172 81.7722 56.0484 81.7778C56.3773 81.7918 56.7901 81.7921 56.9027 81.7788C56.9533 81.7728 56.9972 81.7712 57.0009 81.7751C57.0045 81.7791 57.7716 83.2008 58.7057 84.9346C59.6396 86.6683 60.4069 88.0907 60.4113 88.0953C60.4153 88.1 60.4176 86.8315 60.4162 85.2463C60.4142 82.8854 60.4116 82.383 60.4019 82.3537C60.3783 82.2833 60.3373 82.2573 60.0787 82.148C59.9482 82.0928 59.8386 82.0453 59.8353 82.0427C59.8323 82.0397 59.8267 81.9762 59.823 81.9018L59.8167 81.7665L59.9305 81.7725C60.3736 81.7954 60.9449 81.7954 61.3797 81.7728L61.4909 81.7668L61.4972 81.8918C61.5009 81.9606 61.5005 82.0201 61.4962 82.0244C61.4919 82.0284 61.3834 82.0795 61.2552 82.1384C60.9536 82.2763 60.9539 82.276 60.9233 82.3384L60.8983 82.3889L60.8926 82.6661C60.8897 82.8183 60.8867 84.582 60.886 86.5856C60.8857 88.5888 60.8823 90.2278 60.8787 90.2278C60.875 90.2278 60.8011 90.2378 60.7142 90.2498C60.6273 90.2621 60.5554 90.2717 60.5541 90.2717C60.5531 90.2717 60.5441 90.2591 60.5348 90.2431ZM83.1044 90.1182C83.1011 90.0474 83.0994 89.9882 83.1011 89.9866C83.1031 89.9852 83.2212 89.9321 83.3641 89.8683C83.654 89.7393 83.6693 89.729 83.6963 89.6416C83.7113 89.5928 83.712 89.4313 83.712 86.0206C83.712 83.1297 83.71 82.4411 83.7006 82.4012C83.6943 82.374 83.678 82.3341 83.6647 82.3128C83.6407 82.2753 83.6311 82.2696 83.3897 82.157C83.2522 82.0928 83.1307 82.0344 83.1197 82.0277C83.1007 82.0154 83.1001 82.0101 83.1001 81.8908V81.7665L83.2079 81.7725C83.6344 81.7957 84.5679 81.7957 84.9994 81.7725L85.1065 81.7668L85.1119 81.8363C85.1149 81.8742 85.1195 81.9317 85.1219 81.9636L85.1265 82.0217L84.8732 82.1341C84.7333 82.1959 84.6072 82.2534 84.5925 82.2623C84.5486 82.2889 84.5266 82.3388 84.5173 82.4355C84.512 82.489 84.5096 83.8515 84.5113 86.0688L84.5136 89.6167L84.5379 89.6665C84.5516 89.6938 84.5752 89.7257 84.5909 89.7377C84.6065 89.7496 84.7307 89.8101 84.8668 89.8726L85.1145 89.9862L85.1202 90.1129C85.1235 90.1823 85.1249 90.2401 85.1239 90.2411C85.1225 90.2421 85.0043 90.2395 84.8615 90.2348C84.6048 90.2265 83.2179 90.2325 83.1473 90.2421L83.1111 90.2471L83.1044 90.1182ZM71.5476 79.3767C72.1775 79.3701 73.2418 79.3545 73.6 79.3468C74.1367 79.3352 74.2662 79.3322 74.7452 79.3203C77.1133 79.2604 78.7882 79.1727 79.8671 79.0521C80.3735 78.9956 80.9255 78.9298 81.3822 78.8713C81.5154 78.8543 81.6722 78.8344 81.7301 78.8274C82.2718 78.7603 83.3135 78.6147 84.1877 78.4841C84.9061 78.3768 84.9351 78.3715 84.969 78.3479C84.985 78.3366 85.1092 78.2445 85.2447 78.1432C86.7861 76.9906 88.3128 75.7052 89.8822 74.2387C90.6276 73.5424 91.3357 72.8466 92.3401 71.8247C92.6038 71.5561 92.9227 71.2318 93.0489 71.1035C93.4248 70.722 94.2544 69.8786 94.3989 69.731L94.533 69.5938V53.094C94.533 39.9045 94.531 36.5923 94.522 36.5854C94.516 36.5807 94.2417 36.487 93.9121 36.3773C93.5829 36.2677 93.2586 36.1567 93.1924 36.1307C92.0445 35.6829 90.7331 34.8396 89.6096 33.8271C89.2823 33.5319 88.8994 33.1478 88.6974 32.9122C88.0898 32.2024 87.369 31.0816 86.8347 30.0149C86.5364 29.4201 86.3566 28.9808 86.2395 28.5618C86.2112 28.4598 86.1865 28.4188 86.1313 28.3813C85.9685 28.2706 85.4288 28.21 84.3155 28.1775C82.7775 28.1325 81.7028 28.1254 75.0755 28.1159C67.1861 28.1046 57.7236 28.1193 55.4328 28.1463C54.0023 28.1632 52.8095 28.1869 52.3454 28.2077C52.2921 28.2101 52.1893 28.2144 52.1163 28.2171C51.6266 28.2359 51.1269 28.2804 50.9688 28.3193C50.9149 28.3325 50.8419 28.3645 50.8293 28.3802C50.824 28.3871 50.817 28.4124 50.814 28.4365C50.7794 28.6999 50.0936 30.2113 49.6388 31.0261C48.9603 32.2416 48.102 33.2892 47.0911 34.1356C46.4874 34.6412 45.8098 35.0941 45.047 35.5019C44.9221 35.5688 44.2621 35.8953 44.117 35.9621C44.0581 35.9892 43.9635 36.0332 43.9069 36.0599C43.8503 36.0865 43.8027 36.1083 43.8012 36.1083C43.7997 36.1083 43.7694 36.1219 43.7339 36.1384C43.5885 36.2061 43.1745 36.3824 43.0482 36.4305C42.8888 36.4912 42.7562 36.5325 42.6558 36.5526C42.614 36.561 42.575 36.6786 42.5466 36.8821C42.5079 37.1598 42.4853 37.5266 42.4539 38.3812C42.4421 38.7029 42.4249 39.5955 42.4097 40.6718C42.3814 42.6699 42.3703 47.9748 42.3701 59.4914V69.4439L42.5571 69.6383C42.6599 69.7453 42.794 69.8845 42.855 69.9473C42.916 70.0102 43.0567 70.1567 43.1676 70.2727C43.2785 70.3887 43.4171 70.5332 43.4755 70.5937C43.6489 70.7728 43.7319 70.8592 44.4179 71.5741C45.259 72.4504 46.1707 73.3543 47.0034 74.1373C48.3617 75.4148 49.9078 76.7304 51.2358 77.739L51.3064 77.7926L51.5131 77.8298C52.0358 77.9235 52.2152 77.9554 52.3544 77.9796C52.4369 77.9936 52.5498 78.0135 52.6054 78.0232C53.1351 78.1162 54.3805 78.318 54.9661 78.4057C55.017 78.4133 55.1379 78.4316 55.2348 78.4462C55.869 78.5409 56.7742 78.6686 57.3574 78.7447C57.435 78.755 57.5878 78.7749 57.6967 78.7892C58.0389 78.8337 58.8672 78.9357 59.2251 78.9773C59.4138 78.9992 59.6003 79.0208 59.6389 79.0258C59.7371 79.0378 60.3716 79.1076 60.6739 79.1395C61.2762 79.2033 61.8964 79.2432 62.9993 79.2893C63.3552 79.3043 64.2887 79.3322 64.9106 79.3465C65.2934 79.3551 66.2229 79.3701 66.7912 79.3767C67.5236 79.3851 70.7756 79.3851 71.5479 79.3767H71.5476ZM69.5225 78.1658C69.4795 78.085 69.369 77.8786 69.2771 77.7068C69.1849 77.5353 69.0367 77.2582 68.9475 77.0913C68.8583 76.9245 68.7824 76.7856 68.7791 76.7823C68.7757 76.7793 68.6815 76.9275 68.5693 77.1119C68.4575 77.2967 68.3613 77.4476 68.3559 77.4476C68.3509 77.4476 68.3176 77.4233 68.2824 77.3941C68.2471 77.3645 67.8932 77.0721 67.496 76.7441C66.8049 76.1731 66.71 76.0947 66.3684 75.8122C65.9609 75.4749 65.8458 75.3799 65.7086 75.2665C65.627 75.1991 65.5258 75.1153 65.4842 75.0808C65.4359 75.0409 65.4073 75.0223 65.4056 75.0299C65.403 75.0416 65.4702 75.5188 65.4805 75.5607C65.4845 75.5769 65.4829 75.5809 65.4732 75.5773C65.4662 75.5746 65.2585 75.5141 65.0118 75.443C64.7648 75.3719 64.4675 75.2862 64.3513 75.2526C64.2351 75.219 64.029 75.1595 63.8932 75.1207C63.7577 75.0818 63.5952 75.0346 63.532 75.0163C63.4691 74.9977 63.3046 74.9505 63.1665 74.9106C63.0286 74.8711 62.7966 74.8043 62.6508 74.7621L62.3864 74.6856L62.1401 74.5185C61.6713 74.2001 61.4856 74.0755 61.4806 74.0755C61.4779 74.0755 61.4746 74.23 61.4733 74.4185L61.4709 74.7614L61.3158 74.6318C61.0827 74.4367 60.4269 73.8861 60.1666 73.6667C60.0401 73.5604 59.8047 73.3623 59.6432 73.2271C59.4818 73.0915 59.2441 72.8917 59.1145 72.7831C58.9854 72.6741 58.783 72.5039 58.6648 72.4049C58.2237 72.0347 57.8305 71.7043 57.7449 71.6326C57.6967 71.5917 57.6188 71.5262 57.5718 71.4873L57.4866 71.4162L57.2462 70.9061C57.1144 70.6253 56.9759 70.3325 56.9393 70.2551C56.9023 70.1776 56.8088 69.9789 56.7315 69.8138C56.6543 69.6483 56.5877 69.514 56.5834 69.515C56.5767 69.517 56.339 69.8875 56.0734 70.3102C56.0238 70.389 55.9752 70.4638 55.9652 70.4764L55.9469 70.4993L55.8317 70.1617C55.7231 69.8437 55.6715 69.6938 55.3709 68.8174C55.3037 68.6217 55.1995 68.317 55.1389 68.1405C55.0786 67.964 54.9295 67.5287 54.8076 67.1731C54.6858 66.8178 54.5583 66.446 54.5243 66.3466C54.4904 66.2476 54.3892 65.9528 54.2993 65.6916C54.2094 65.4304 54.1068 65.1316 54.0719 65.0279C54.0366 64.9239 53.96 64.7003 53.9018 64.5311C53.8438 64.3616 53.7443 64.0708 53.6807 63.8847C53.6171 63.6986 53.5602 63.5365 53.5542 63.5242C53.5459 63.5069 53.5426 63.0336 53.5389 61.3534L53.5346 59.2043L53.2263 59.0115C53.0568 58.9052 52.6803 58.6699 52.3897 58.4881C52.0987 58.3063 51.7415 58.083 51.5953 57.9916L51.3293 57.8254L51.4146 57.703C51.4615 57.6357 51.5534 57.5033 51.6186 57.4088C51.6842 57.3144 51.7911 57.1601 51.8567 57.0659C51.9219 56.9717 52.0291 56.8174 52.0944 56.7229C52.16 56.6283 52.2352 56.5196 52.2618 56.4813C52.3694 56.3265 52.4819 56.1638 52.5588 56.0519L52.6397 55.9338L52.3694 55.7475C52.2205 55.6451 51.9362 55.4493 51.7378 55.3125C51.5391 55.1757 51.3713 55.0586 51.3646 55.0524C51.353 55.0413 51.5627 54.7331 52.5085 53.3729C52.5738 53.2788 52.7039 53.0912 52.7975 52.956C52.891 52.8208 53.0575 52.5802 53.1674 52.4214C53.2772 52.2627 53.3741 52.1223 53.3824 52.1096L53.3974 52.0864L52.933 51.763C52.6776 51.5851 52.3897 51.3845 52.2928 51.3171C52.1956 51.2498 52.1153 51.1936 52.1137 51.1922C52.112 51.1908 52.1297 51.1626 52.1526 51.1295C52.1756 51.0963 52.2249 51.0257 52.2618 50.9725C52.2988 50.9193 52.355 50.8382 52.3867 50.7923C52.4183 50.7463 52.4636 50.6808 52.4875 50.6466C52.5112 50.6124 52.6257 50.4471 52.7419 50.2792C52.8581 50.1113 53.0089 49.8939 53.0768 49.7962C53.1451 49.6984 53.2799 49.5037 53.3771 49.3634C53.474 49.2232 53.741 48.8379 53.9703 48.5071C54.1994 48.1764 54.3875 47.8999 54.3882 47.8926C54.3888 47.8813 53.9946 47.6445 53.3302 47.2574L53.2403 47.205L53.3128 47.1016C53.3528 47.0447 53.423 46.9437 53.469 46.877C53.5146 46.8104 53.5915 46.6997 53.6394 46.6309C53.6874 46.5621 53.7872 46.4179 53.8615 46.3105C53.9357 46.2032 54.0096 46.0963 54.0259 46.0732C54.0423 46.05 54.265 45.7283 54.5213 45.3583C54.7777 44.9884 55.0114 44.6512 55.0403 44.6091C55.0696 44.567 55.282 44.2607 55.5121 43.9283C55.9745 43.2605 56.7322 42.167 56.9127 41.9072C57.0861 41.6572 57.2865 41.3679 57.4367 41.151C57.5102 41.0446 57.6464 40.8473 57.7396 40.7126C57.8328 40.578 57.9071 40.4656 57.9041 40.4629C57.9014 40.4602 57.8208 40.4762 57.7253 40.4985C57.6294 40.5208 57.464 40.5593 57.3574 40.5839C57.2509 40.6086 57.133 40.6359 57.0954 40.6447C57.0461 40.6561 57.0252 40.6578 57.0195 40.6507C57.0099 40.6382 56.8334 40.2974 56.8334 40.2912C56.8334 40.2886 56.9017 40.2254 56.9852 40.1508C57.159 39.9957 58.229 39.0381 58.3615 38.9189C58.4101 38.8754 58.4833 38.8095 58.5246 38.7724C58.6112 38.6946 58.787 38.5372 59.0793 38.2757C59.3386 38.0439 59.8743 37.5638 59.9914 37.4585C60.04 37.4147 60.1905 37.28 60.3257 37.1591C60.7538 36.7762 60.8807 36.6615 60.8827 36.6552C60.884 36.6518 60.7155 36.5661 60.5085 36.4646C60.3014 36.3632 59.8763 36.154 59.564 35.9998C59.2514 35.8456 58.9404 35.6926 58.8725 35.6599C58.8046 35.6271 58.5429 35.4985 58.2913 35.374C58.0392 35.2496 57.722 35.0934 57.5865 35.0269C57.2785 34.8759 56.8467 34.6634 56.3444 34.4157C56.1313 34.3106 55.8816 34.1879 55.7894 34.1431C55.6975 34.0984 55.4042 33.954 55.1379 33.8222C54.8712 33.6905 54.5859 33.55 54.5037 33.5101C54.4211 33.4701 54.1478 33.3358 53.8958 33.2116C53.6438 33.0874 53.2889 32.9125 53.1068 32.8229L52.7758 32.6599L54.3246 31.8869L55.8736 31.1139L58.4211 31.1162L60.9689 31.1184L61.2552 31.2089C61.4127 31.2587 61.5851 31.3128 61.6384 31.3291C61.6916 31.3454 61.8441 31.3924 61.9773 31.4335C62.1108 31.4746 62.2336 31.5121 62.2506 31.5168C62.2782 31.5245 63.6272 31.9386 64.2587 32.1333C64.3969 32.1759 65.2155 32.4273 66.0778 32.6921L67.6455 33.1735L67.7137 33.2595C67.773 33.3342 67.7863 33.3462 67.8153 33.3513C67.8622 33.3597 68.8656 33.5573 68.8906 33.5632C68.9019 33.5658 68.9099 33.5643 68.9082 33.5597C68.9066 33.5552 68.8576 33.5088 68.7994 33.4567C68.7414 33.4046 68.6006 33.2783 68.4868 33.176C68.3729 33.0737 68.1768 32.8975 68.0507 32.7845C67.9248 32.6714 67.784 32.5448 67.738 32.503C67.6921 32.4613 67.2383 32.0537 66.7296 31.5974C66.2209 31.1409 65.7475 30.7159 65.6776 30.6528C65.6074 30.5897 65.5082 30.5005 65.4566 30.4546C65.0171 30.0633 64.8334 29.8927 64.8557 29.8964C64.869 29.8986 64.9552 29.9064 65.0471 29.9136C65.2668 29.9308 65.7039 29.9661 66.0338 29.9932C66.179 30.0051 66.4187 30.0247 66.5665 30.0366C67.0376 30.0748 67.3828 30.1028 67.6565 30.1252C67.8033 30.1371 68.045 30.1568 68.1938 30.1689C68.3429 30.181 68.562 30.199 68.6805 30.2087C68.7994 30.2185 69.0637 30.2401 69.2685 30.2568L69.6403 30.2871L69.916 30.4268C70.0674 30.5036 70.3934 30.6684 70.6404 30.7931C70.8874 30.9177 71.2483 31.0998 71.4421 31.1976C71.6358 31.2954 72.1968 31.5783 72.6885 31.8263C73.1802 32.0742 73.5907 32.2854 73.601 32.2956C73.6113 32.3059 73.7405 32.4804 73.888 32.6835C74.0358 32.8866 74.2795 33.221 74.4296 33.4265C74.5794 33.6321 74.8411 33.9901 75.0106 34.2223C75.18 34.4544 75.3551 34.6941 75.3997 34.7549L75.4806 34.8655L75.5932 34.8886C75.6548 34.9014 75.72 34.9143 75.738 34.9175C75.7706 34.9231 75.8159 34.9593 76.1721 35.2637C76.2157 35.301 76.4634 35.511 76.7228 35.7303C76.9818 35.9496 77.2314 36.1612 77.2777 36.2005C77.3946 36.3003 77.5314 36.4163 77.9822 36.7984C78.5055 37.2415 78.7975 37.4893 78.9426 37.6134L79.0628 37.716L79.1251 37.8948C79.1913 38.085 79.4576 38.8421 79.6424 39.3661C79.7423 39.6483 80.1927 40.9274 80.3256 41.3048C80.4384 41.6259 80.7187 42.4224 80.8492 42.7935L80.9881 43.1874L80.8978 43.5233C80.8482 43.708 80.7806 43.9601 80.7477 44.0834C80.6844 44.3209 80.6841 44.322 80.5886 44.6769C80.3562 45.5407 80.3166 45.6917 80.3166 45.708C80.3166 45.7181 80.3525 45.874 80.3968 46.0545C80.4411 46.235 80.494 46.4519 80.5146 46.5365C80.5353 46.6212 80.6355 47.0307 80.737 47.4466L80.9218 48.2028L80.9012 48.4798C80.8898 48.6321 80.8705 48.8952 80.8582 49.0645C80.8263 49.5078 80.8026 49.8257 80.7843 50.0669L80.7683 50.2779L80.6801 50.4625C80.6315 50.5641 80.5323 50.7718 80.4594 50.9241C80.3868 51.0765 80.2809 51.2981 80.224 51.4165C80.1674 51.535 80.0842 51.7091 80.0392 51.8034C79.9943 51.8977 79.932 52.0283 79.9008 52.0936C79.8695 52.1589 79.7989 52.3063 79.744 52.4213C79.6894 52.5363 79.6434 52.6292 79.6417 52.6277C79.6404 52.6263 79.5812 52.4927 79.5102 52.3308C79.4393 52.1689 79.3345 51.9296 79.2772 51.799C79.2199 51.6685 79.0655 51.3163 78.9333 51.0165C78.8015 50.7166 78.6813 50.4431 78.666 50.4085L78.6383 50.3457L78.0321 49.8078C77.6985 49.5119 77.4212 49.2717 77.4155 49.2738C77.4099 49.276 77.2707 49.4696 77.1059 49.704L76.8066 50.1303L76.1648 50.3139C75.8119 50.4149 75.5186 50.5004 75.5133 50.5037C75.5076 50.5071 75.5049 50.5117 75.5073 50.5138C75.5096 50.5158 75.6245 50.6004 75.7626 50.7015C76.0443 50.9081 76.5366 51.2698 76.6039 51.3197C76.6492 51.3536 76.779 51.4491 77.1176 51.6983C77.2258 51.7779 77.4042 51.9094 77.5141 51.9905C77.6236 52.0717 77.7511 52.1655 77.7974 52.199C77.9106 52.2815 78.946 53.0461 79.3694 53.3601C81.036 54.595 81.6103 55.0277 81.6635 55.0882C81.6895 55.1179 81.6905 55.1218 81.6905 55.202V55.2851L81.803 55.41C81.8646 55.4787 81.9845 55.6126 82.0694 55.7075C82.2175 55.8733 82.4692 56.1542 82.8224 56.5471C82.9136 56.6487 83.169 56.9334 83.3897 57.1799C83.6108 57.4264 83.8252 57.6655 83.8661 57.7113C83.9074 57.7571 83.9786 57.8367 84.0249 57.8881C84.0708 57.9395 84.2413 58.1294 84.4034 58.31C84.5659 58.4908 84.777 58.726 84.8725 58.8327L85.0466 59.0268V61.262V63.4972L84.9065 63.8997C84.467 65.1609 84.249 65.788 84.1507 66.0698C84.0902 66.2439 84.0232 66.4357 84.0026 66.4961C83.9816 66.5566 83.935 66.6912 83.8987 66.7952C83.7985 67.0824 83.4972 67.9477 83.2173 68.7516C83.0794 69.1481 82.9353 69.5615 82.8973 69.6705C82.859 69.7792 82.8124 69.9138 82.7931 69.9693C82.7372 70.1315 82.6074 70.5043 82.5824 70.5744C82.5687 70.6133 82.5574 70.6343 82.5538 70.6273C82.5504 70.621 82.4572 70.399 82.346 70.1341C82.2352 69.8692 82.1426 69.6529 82.1399 69.6532C82.1373 69.6532 82.1246 69.6762 82.1116 69.7038C82.0987 69.7313 81.9712 69.9912 81.8287 70.2813C81.6862 70.5715 81.4898 70.9712 81.3925 71.1696L81.2154 71.5299L80.8825 71.81C80.5216 72.1138 80.4038 72.2128 79.9554 72.5893C79.7929 72.7256 79.6164 72.8738 79.5632 72.9187C79.5099 72.9639 79.2742 73.1619 79.0392 73.359C78.8041 73.5564 78.4932 73.8176 78.3477 73.9399C77.309 74.8133 77.2341 74.8757 77.2294 74.8757C77.2268 74.8757 77.2248 74.7491 77.2248 74.5942C77.2248 74.4397 77.2228 74.3131 77.2205 74.3131C77.2181 74.3131 77.1019 74.3955 76.9624 74.4962C76.8226 74.5972 76.6988 74.686 76.6868 74.6936C76.6751 74.7013 76.5902 74.7239 76.498 74.7438C76.4061 74.7637 76.3069 74.7857 76.278 74.7927C76.2487 74.7996 75.9098 74.8747 75.5246 74.9595C75.1394 75.0442 74.7829 75.123 74.7319 75.1346C74.681 75.1462 74.4196 75.2041 74.1507 75.2632C73.7618 75.3486 73.6563 75.3746 73.6353 75.3908C73.6206 75.4018 73.4266 75.562 73.2038 75.7464C72.9808 75.9309 72.6795 76.1801 72.5343 76.3001C72.3889 76.42 72.1944 76.5809 72.1019 76.6577C71.4128 77.2279 71.1278 77.4622 71.1255 77.4596C71.1181 77.4509 70.6424 76.7687 70.6357 76.7574C70.6291 76.7457 70.6267 76.7457 70.6158 76.7574C70.6041 76.7693 70.42 77.0528 69.8274 77.9707C69.7136 78.1471 69.616 78.2964 69.6107 78.3023C69.6037 78.31 69.5811 78.2751 69.5225 78.1658ZM69.7845 77.2429C69.861 77.1232 69.9636 76.9641 70.0125 76.8893C70.0611 76.8142 70.1893 76.6165 70.2968 76.4496C70.4047 76.2828 70.8022 75.6683 71.1807 75.0841L71.8688 74.0217L71.9088 73.6684C71.9311 73.474 71.9667 73.1586 71.9884 72.9675C72.0097 72.7768 72.0513 72.4086 72.0806 72.15C72.1099 71.8911 72.1395 71.6279 72.1465 71.5651C72.1535 71.5023 72.1815 71.257 72.2084 71.0201C72.2634 70.5336 72.3063 70.1544 72.4015 69.3099C72.4378 68.9883 72.4778 68.636 72.4901 68.5273C72.5024 68.4186 72.5204 68.2601 72.5297 68.1757C72.5393 68.091 72.569 67.8278 72.5959 67.5908C72.6226 67.3539 72.6569 67.0531 72.6715 66.9225C72.6865 66.7919 72.6971 66.6753 72.6951 66.6633C72.6935 66.651 72.5154 66.4018 72.2996 66.1093C72.0842 65.8165 71.6305 65.2014 71.2916 64.7421C70.9527 64.2825 70.4416 63.5893 70.1557 63.2015C69.87 62.8133 69.6327 62.4969 69.628 62.4986C69.6237 62.4999 69.5325 62.6312 69.4256 62.7904C69.0507 63.349 68.4718 64.2104 68.1169 64.7375C67.7024 65.3536 67.3382 65.8953 67.0416 66.338L66.8322 66.65L66.8445 66.7381C66.8512 66.7863 66.8848 67.0415 66.9191 67.305C66.9956 67.8939 67.0406 68.2392 67.0812 68.5492C67.1305 68.9278 67.1381 68.9863 67.1664 69.1999C67.1811 69.3113 67.2007 69.4622 67.21 69.5353C67.2194 69.6087 67.2487 69.8344 67.2753 70.0367C67.3256 70.4196 67.3289 70.4445 67.3858 70.8838C67.4188 71.1377 67.4444 71.3325 67.4827 71.6223C67.492 71.6924 67.5117 71.8429 67.5263 71.9566C67.541 72.0702 67.5673 72.27 67.5842 72.4006C67.6894 73.2058 67.7157 73.4075 67.7683 73.8163C67.781 73.913 67.7933 74.002 67.796 74.014C67.7986 74.026 67.8985 74.2181 68.0174 74.4404C68.2534 74.8814 68.6779 75.6733 68.7381 75.7856C68.7591 75.8245 68.847 75.9887 68.9335 76.1505C69.5042 77.2176 69.6353 77.4609 69.64 77.4606C69.6426 77.4606 69.7079 77.3625 69.7845 77.2429ZM71.5006 76.5949C71.6525 76.4692 71.8579 76.2994 71.9574 76.2173C72.0566 76.1349 72.2071 76.0106 72.292 75.9405C72.4481 75.8112 72.5996 75.6859 72.827 75.4982C72.9948 75.3596 73.1709 75.214 73.358 75.0595C73.4425 74.9897 73.5774 74.8784 73.6573 74.8123C73.7372 74.7465 73.9359 74.5823 74.0984 74.4477C74.2612 74.3131 74.43 74.1739 74.4732 74.1383L74.5525 74.0732L74.8355 73.1799C74.9909 72.6884 75.1823 72.0845 75.2606 71.8379C75.3388 71.591 75.488 71.1201 75.5922 70.7915C75.7736 70.2189 75.8452 69.9932 76.032 69.4043C76.0782 69.2581 76.2034 68.864 76.3093 68.5286L76.5024 67.9188L76.227 67.5486C75.4317 66.4782 74.8967 65.7584 74.6573 65.4367C74.5458 65.2868 74.4246 65.1236 74.3884 65.0741C74.3521 65.0249 74.3191 64.9844 74.3151 64.9841C74.3111 64.9841 74.143 65.1409 73.9412 65.3333C73.7398 65.5254 73.4482 65.8036 73.2934 65.9511C73.1386 66.0984 73.0008 66.2283 72.9868 66.2396C72.9728 66.2509 72.9615 66.2642 72.9615 66.2692C72.9615 66.2745 73.0034 66.3356 73.055 66.4054L73.1486 66.5327L73.1169 66.8155C73.0757 67.1837 72.9848 67.9876 72.9572 68.2282C72.9455 68.3322 72.9215 68.5419 72.9045 68.6945C72.8876 68.8467 72.8579 69.1099 72.8386 69.279C72.8193 69.4482 72.7977 69.6403 72.7904 69.7054C72.7661 69.9211 72.6985 70.5209 72.6489 70.9586C72.6063 71.3338 72.54 71.922 72.4991 72.2863C72.4917 72.3491 72.4724 72.5212 72.4554 72.6688C72.4105 73.0636 72.3482 73.6159 72.3183 73.8864C72.3036 74.017 72.2887 74.1376 72.2847 74.1546C72.2807 74.1715 72.1069 74.4487 71.8985 74.7701C71.6901 75.0917 71.3918 75.5527 71.2356 75.7946C71.0792 76.0362 70.9344 76.2599 70.9137 76.2914L70.8761 76.3486L70.9127 76.4011C71.1464 76.7364 71.212 76.8281 71.218 76.8258C71.2217 76.8245 71.3488 76.7205 71.5006 76.5949ZM68.2764 76.764C68.289 76.7434 68.3533 76.6374 68.4192 76.5284L68.5397 76.3303L68.2524 75.7943C67.6035 74.5823 67.5856 74.5487 67.3895 74.1812C67.3832 74.1689 67.3658 74.0642 67.3509 73.9482C67.3362 73.8319 67.3102 73.6302 67.2929 73.4996C67.276 73.369 67.248 73.1553 67.231 73.0247C67.214 72.8941 67.1824 72.6528 67.1611 72.4883C67.1395 72.3241 67.1162 72.144 67.1088 72.0885C67.1015 72.0327 67.0719 71.8054 67.0426 71.5827C67.0136 71.3604 66.9837 71.1308 66.976 71.0729C66.9187 70.6323 66.8888 70.4026 66.8658 70.2242C66.8512 70.1105 66.8335 69.9763 66.8265 69.9254C66.8195 69.8746 66.8039 69.7559 66.7916 69.6615C66.7792 69.5672 66.7516 69.3535 66.73 69.1867C66.708 69.0198 66.6824 68.8221 66.6727 68.747C66.6451 68.5343 66.5429 67.7503 66.5176 67.5603C66.5053 67.4659 66.47 67.1987 66.4393 66.9667L66.3834 66.5447L66.475 66.4064C66.5252 66.3303 66.5605 66.2705 66.5532 66.2732C66.5412 66.2778 66.4643 66.2074 66.0735 65.8322C65.8974 65.6633 65.2448 65.0439 65.1996 65.0027L65.1583 64.9651L64.9882 65.1934C64.8946 65.3191 64.7185 65.556 64.597 65.7195C64.4755 65.883 64.2597 66.1731 64.1176 66.3642C63.9758 66.5553 63.833 66.7471 63.8007 66.7906C63.6455 67.0003 63.0449 67.8078 63.011 67.8527L62.9727 67.9035L63.0836 68.2528C63.1445 68.4449 63.2294 68.7128 63.2723 68.8483C63.3466 69.0833 63.5313 69.6662 63.7081 70.2242C63.9125 70.8682 64.0267 71.2281 64.2028 71.7851C64.4019 72.4139 64.5384 72.8439 64.7222 73.4228C64.7831 73.6149 64.8533 73.8362 64.8776 73.915L64.9223 74.0575L65.3987 74.451C65.9976 74.9455 66.1367 75.0605 66.3288 75.2194C66.4137 75.2895 66.6574 75.4912 66.8705 75.667C67.3432 76.0575 67.4184 76.12 68.054 76.6457C68.1572 76.7311 68.2444 76.8012 68.2477 76.8012C68.2511 76.8012 68.2637 76.7846 68.2764 76.764ZM64.9545 74.9635C64.9545 74.9532 64.9023 74.6102 64.8993 74.6019C64.8983 74.5989 64.824 74.5361 64.7345 74.4623C64.6449 74.3885 64.5667 74.3237 64.561 74.3184C64.555 74.3131 64.5101 74.1818 64.4612 74.0273C64.1532 73.0566 63.9288 72.3487 63.8579 72.1234C63.813 71.9808 63.7377 71.7436 63.6908 71.596C63.6439 71.4485 63.5203 71.0586 63.4161 70.73C63.2057 70.065 63.0749 69.6522 62.8655 68.9932C62.7879 68.749 62.6731 68.3861 62.6098 68.1867L62.4953 67.8238L62.5938 67.6905C62.6481 67.6174 62.694 67.5529 62.696 67.5476C62.698 67.5423 62.6175 67.4758 62.5169 67.3997C62.2253 67.1791 62.0013 67.0096 61.6647 66.7557C61.4919 66.6251 61.2685 66.4559 61.1683 66.3798C61.0684 66.3037 60.9839 66.2416 60.9809 66.2413C60.9775 66.2413 60.9396 66.2974 60.8963 66.3665C60.7858 66.542 60.375 67.194 60.0527 67.7051C59.5833 68.4496 59.5287 68.537 59.5287 68.5449C59.5287 68.5532 59.6196 68.7839 59.9382 69.5825C60.0434 69.846 60.1985 70.2358 60.2834 70.4485C60.368 70.6612 60.5278 71.063 60.6386 71.3411C60.7495 71.6189 60.9695 72.1709 61.1277 72.5677C61.2855 72.9642 61.4356 73.3407 61.4613 73.4045L61.5075 73.5208L61.5728 73.5677C61.6324 73.6102 61.7626 73.7039 62.2593 74.0622C62.3538 74.1303 62.465 74.2104 62.5066 74.2403C62.5905 74.3005 62.5389 74.2829 63.1182 74.4494C63.4361 74.5407 63.7018 74.6172 64.0034 74.7043C64.1269 74.7401 64.2994 74.7897 64.3866 74.8149C64.4738 74.8398 64.6303 74.8854 64.7345 74.9156C64.9316 74.9731 64.9545 74.9781 64.9545 74.9635ZM75.463 74.5321C76.008 74.4118 76.4624 74.3114 76.4724 74.3088C76.4824 74.3065 76.7301 74.1323 77.023 73.9216L77.555 73.5385L77.6043 73.4178C77.6316 73.3517 77.7341 73.0955 77.8324 72.8489C78.1822 71.9702 78.3703 71.4976 78.5415 71.0683C78.637 70.829 78.7639 70.5106 78.8234 70.3604C78.883 70.2105 79.0259 69.8526 79.1407 69.5648C79.2552 69.277 79.3911 68.9367 79.4417 68.8088C79.4926 68.6805 79.5359 68.5715 79.5379 68.5665C79.5402 68.5615 79.5242 68.53 79.5029 68.4961C79.4553 68.4206 79.2236 68.0534 78.7882 67.3622C78.6054 67.0721 78.374 66.7052 78.2741 66.5467C78.1743 66.3885 78.0894 66.2589 78.0854 66.2589C78.0784 66.2589 77.9299 66.3702 77.0676 67.0226C76.8416 67.1934 76.6492 67.3386 76.6399 67.3452C76.6219 67.3579 76.6209 67.3569 76.8749 67.6955L76.9798 67.8351L76.9668 67.8803C76.9594 67.9049 76.8915 68.1209 76.8153 68.3602C76.7394 68.5998 76.6419 68.9062 76.5992 69.0418C76.52 69.293 76.4158 69.622 76.269 70.0836C76.0902 70.6466 76.011 70.8968 75.8036 71.5521C75.6847 71.9267 75.5356 72.3976 75.472 72.5983C75.4084 72.799 75.2593 73.2696 75.1404 73.6441C75.0219 74.0187 74.9194 74.3291 74.913 74.3344C74.8488 74.3856 74.4639 74.7056 74.437 74.7302L74.4017 74.7624L74.437 74.7568C74.4563 74.7538 74.918 74.6527 75.463 74.5321ZM60.9672 73.48C60.8777 73.249 60.7259 72.8562 60.63 72.6073C60.5338 72.358 60.3973 72.0044 60.3264 71.821L60.1972 71.488L60.085 71.3508C60.0231 71.2753 59.4844 70.6113 58.8878 69.8756L57.8029 68.5376L57.5558 67.7344C57.42 67.2927 57.3052 66.9235 57.3008 66.9139C57.2908 66.8906 57.2955 66.8747 57.2166 67.1997C57.153 67.4622 57.0991 67.6815 56.8764 68.5871C56.8238 68.8015 56.7805 68.9819 56.7805 68.9879C56.7805 68.9942 56.9077 69.2581 57.0635 69.5745C57.2189 69.8909 57.3791 70.2169 57.419 70.2989C57.4593 70.3814 57.5692 70.605 57.6634 70.7961L57.8345 71.1437L57.9227 71.2182C57.9713 71.259 58.1687 71.4252 58.3618 71.587C58.5546 71.7492 58.8043 71.9589 58.9168 72.0533C59.029 72.1473 59.2527 72.3354 59.4142 72.4707C59.5753 72.6063 59.825 72.816 59.9685 72.9369C60.1123 73.0579 60.388 73.2892 60.581 73.4514C60.7745 73.6132 60.9722 73.7801 61.0212 73.8223C61.0698 73.8641 61.1144 73.8987 61.1197 73.899C61.1254 73.8994 61.0568 73.7106 60.9672 73.48ZM78.1589 73.5348C78.2568 73.4527 78.4662 73.2766 78.6244 73.1437C78.7822 73.0111 79.0265 72.8057 79.167 72.688C79.3075 72.5701 79.5036 72.4052 79.6031 72.3218C79.7686 72.1826 80.1827 71.835 80.6751 71.4215L80.8705 71.2574L80.9102 71.174C80.9318 71.1281 81.0297 70.928 81.1272 70.73C81.2251 70.5316 81.3416 70.2943 81.3866 70.2022C81.4312 70.1105 81.5713 69.8247 81.6982 69.5672L81.9285 69.0989L81.9019 68.9251C81.8873 68.8297 81.8613 68.6586 81.8443 68.5449C81.8273 68.4313 81.7994 68.2472 81.7824 68.1362C81.7654 68.0248 81.7378 67.8427 81.7208 67.7314C81.7038 67.6204 81.6765 67.4403 81.6599 67.3316C81.6436 67.2226 81.6283 67.1239 81.6266 67.1116L81.6233 67.0897L81.6123 67.1159C81.6063 67.1306 81.5051 67.4529 81.3879 67.8328L81.1745 68.523L81.0523 68.6812C80.8725 68.9135 80.7204 69.1102 80.4574 69.4505C80.3282 69.6173 80.0273 70.0072 79.7882 70.3166C79.2792 70.9756 79.1484 71.1447 78.9436 71.4089L78.7922 71.6047L78.6214 72.0334C78.4076 72.5711 78.1892 73.1191 78.0624 73.4368C78.0085 73.5717 77.9645 73.6837 77.9645 73.686C77.9645 73.6963 77.9915 73.6754 78.1589 73.5348ZM59.6382 70.0434C59.6162 69.9856 59.587 69.9088 59.5733 69.8726C59.5597 69.8364 59.4701 69.6047 59.3746 69.3581C59.1851 68.8699 59.1472 68.7716 59.0846 68.6081L59.043 68.5001L59.0596 68.4718C59.0746 68.4466 59.1818 68.2764 59.6748 67.4941C59.9432 67.0684 60.1003 66.8192 60.4762 66.2236C60.6227 65.9913 60.6573 65.9302 60.6896 65.8455C60.7109 65.79 61.0172 64.9754 61.3707 64.0356L62.0136 62.3268L61.96 62.0483C61.9307 61.8954 61.899 61.7306 61.8897 61.6821C61.8804 61.6339 61.8581 61.5169 61.8401 61.4229C61.8225 61.3285 61.8068 61.2504 61.8062 61.2494C61.8052 61.2481 61.7512 61.263 61.6863 61.2826C61.6211 61.3019 61.5282 61.3295 61.4799 61.3434C61.4313 61.3577 61.3244 61.389 61.2419 61.4132C61.1596 61.4375 60.8683 61.5229 60.5944 61.603C60.3207 61.6831 60.0174 61.7721 59.9205 61.8007C59.8237 61.8293 59.6948 61.8672 59.6346 61.8848C59.4122 61.9496 59.3536 61.9666 59.1895 62.0147C59.0976 62.042 58.8143 62.1251 58.5599 62.1995C58.3056 62.2743 57.9657 62.374 57.8045 62.4212L57.5116 62.5076V64.3181V66.1289L57.7017 66.7457C57.8062 67.0847 57.9307 67.4888 57.9783 67.6437C58.0262 67.7985 58.0932 68.0155 58.1271 68.1259C58.1614 68.2365 58.1927 68.3316 58.1974 68.3369C58.2193 68.3645 59.4608 69.8958 59.5587 70.0161C59.6206 70.0926 59.6732 70.1534 59.6752 70.1514C59.6768 70.1497 59.6605 70.1009 59.6382 70.0434ZM79.5242 69.9517C79.5935 69.8623 79.708 69.7137 79.7792 69.622C79.8502 69.5303 80.0506 69.2711 80.224 69.0461C80.3978 68.8211 80.5799 68.5858 80.6285 68.523C80.7737 68.3356 80.7896 68.3133 80.7993 68.2811C80.8043 68.2641 80.8482 68.1219 80.8968 67.9647C80.9451 67.8075 81.0939 67.324 81.2278 66.8903L81.4704 66.102L81.4681 64.2968L81.4658 62.4916L81.3999 62.4727C81.3636 62.462 81.2564 62.4308 81.1622 62.4032C81.0676 62.3753 80.9368 62.3371 80.8715 62.3182C80.762 62.2862 80.6485 62.253 80.246 62.1344C80.1661 62.1108 79.944 62.0456 79.7526 61.9898C79.2795 61.8516 79.0931 61.7967 78.9423 61.7519C78.872 61.7313 78.7512 61.6957 78.6736 61.6731C78.5381 61.6336 78.4845 61.6179 78.3124 61.5674C78.2688 61.5548 78.1816 61.5292 78.1187 61.5109C77.8244 61.4249 77.4112 61.3039 77.3017 61.2713C77.2351 61.2514 77.1778 61.2378 77.1748 61.2411C77.1679 61.2481 76.9701 62.271 76.9694 62.3022C76.9691 62.3142 77.0244 62.4707 77.0916 62.6495C77.1589 62.8283 77.4405 63.5773 77.7175 64.3138L78.2212 65.653L78.4772 66.0591C78.8601 66.666 79.1953 67.198 79.44 67.5865C79.7263 68.0411 79.9687 68.4253 79.9996 68.4738L80.0243 68.5127L80.0083 68.5529C79.8948 68.8374 79.6338 69.4931 79.5266 69.7622C79.4517 69.9503 79.3884 70.1082 79.3854 70.1128C79.3827 70.1175 79.3844 70.1195 79.3894 70.1178C79.3947 70.1158 79.4553 70.0411 79.5242 69.9517ZM56.2255 69.2637C56.3094 69.1318 56.3813 69.0142 56.3853 69.0022C56.3893 68.9899 56.403 68.8872 56.4153 68.7736C56.4359 68.5861 56.4446 68.5396 56.5088 68.2767C56.5907 67.9431 56.6766 67.5935 56.912 66.6351L57.0801 65.9521V64.335V62.7183L57.186 62.4757L57.2918 62.2327L57.2609 61.6366C57.2436 61.3085 57.2219 60.8858 57.2123 60.6974C57.2026 60.5086 57.1906 60.2793 57.1856 60.1873C57.1753 59.9969 57.158 59.6642 57.1327 59.1674C57.1234 58.9789 57.1094 58.7138 57.1021 58.5782C57.0948 58.4429 57.0788 58.1362 57.0665 57.8968C57.0545 57.6575 57.0365 57.3152 57.0272 57.1363C57.0179 56.9573 57.0075 56.7595 57.0045 56.6966C56.9776 56.1583 56.9603 55.8561 56.9563 55.8545C56.9519 55.8527 56.7149 56.1141 55.9182 57C55.7897 57.1426 55.6526 57.295 55.613 57.3385C55.5733 57.382 55.4824 57.4829 55.4109 57.5627C55.3393 57.6425 55.2644 57.7256 55.2444 57.7473C55.2244 57.7691 55.1389 57.8641 55.0543 57.9584C54.9701 58.0527 54.8789 58.1536 54.8519 58.1826C54.8249 58.2116 54.6505 58.4054 54.4637 58.6131C54.2773 58.8211 54.0902 59.0288 54.0479 59.0747L53.971 59.1587L53.9707 61.28L53.9703 63.4012L54.0313 63.5793C54.0649 63.677 54.1468 63.9156 54.213 64.1091C54.4531 64.8096 54.5466 65.0824 54.6618 65.4191C54.8219 65.8863 55.1166 66.7457 55.1682 66.8963C55.2148 67.0309 55.3926 67.549 55.5737 68.079C55.9529 69.1857 56.0627 69.5034 56.0677 69.5034C56.0707 69.5034 56.1416 69.3954 56.2255 69.2637ZM82.5348 69.4C82.5398 69.3867 82.6436 69.089 82.7655 68.7383C83.0202 68.0062 83.3288 67.1189 83.3804 66.971C83.4 66.9152 83.4619 66.7374 83.5182 66.5752C83.5745 66.4134 83.6381 66.2313 83.659 66.1708C83.6803 66.1103 83.7479 65.9166 83.8092 65.7401C83.8704 65.5633 83.9503 65.334 83.9866 65.23C84.0229 65.126 84.0858 64.9458 84.1261 64.8299C84.1664 64.7139 84.2316 64.5258 84.2713 64.4121C84.3109 64.2985 84.3785 64.1047 84.4211 63.9814C84.464 63.8581 84.5249 63.6823 84.5569 63.591L84.6148 63.4248V61.3085V59.192L84.4064 58.96C84.0412 58.5529 83.4034 57.8421 83.153 57.5622C83.0731 57.473 82.9066 57.2873 82.7828 57.1495C82.5238 56.8613 81.8277 56.0853 81.7175 55.9621C81.6765 55.9163 81.6406 55.8778 81.6372 55.8764C81.6342 55.875 81.6289 55.9245 81.6256 55.9863C81.6223 56.0481 81.6079 56.2847 81.5936 56.512C81.5683 56.9208 81.5434 57.3201 81.5011 58.0111C81.4891 58.207 81.4711 58.4938 81.4615 58.6486C81.4521 58.8035 81.4342 59.0943 81.4218 59.295C81.4095 59.4957 81.3919 59.7845 81.3822 59.9367C81.3566 60.3505 81.3573 60.3368 81.3336 60.7193C81.3216 60.9151 81.302 61.2338 81.29 61.4272C81.278 61.6206 81.2657 61.8246 81.2627 61.8805L81.2567 61.9822L81.3659 62.0144C81.4258 62.032 81.564 62.0729 81.6729 62.1048C81.7821 62.137 81.8779 62.1653 81.8866 62.1679C81.9012 62.1719 81.9019 62.2723 81.9019 64.1154V66.0585L81.9552 66.4071C81.9841 66.5988 82.0178 66.8188 82.0294 66.8963C82.0414 66.9737 82.0674 67.1438 82.087 67.2744C82.107 67.4051 82.1426 67.6383 82.1659 67.7932C82.1895 67.9477 82.2415 68.29 82.2814 68.5536L82.3537 69.0328L82.4339 69.2282C82.4782 69.3359 82.5168 69.4239 82.5198 69.4239C82.5228 69.4239 82.5294 69.4133 82.5348 69.4ZM63.0826 67.0342C63.1455 66.9488 63.259 66.7956 63.3342 66.6939C63.4098 66.5925 63.6275 66.2997 63.818 66.0432C64.1965 65.5341 64.361 65.3131 64.5627 65.0422C64.819 64.6979 65.0215 64.4248 65.0604 64.3709C65.0824 64.3407 65.1027 64.3171 65.1057 64.3181C65.111 64.3197 65.6903 64.8691 65.9237 65.0937C65.9842 65.1519 66.196 65.3539 66.3947 65.5424C66.5931 65.7308 66.7649 65.8943 66.7766 65.9053C66.7882 65.9166 66.7986 65.9245 66.7996 65.9229C66.8009 65.9216 66.94 65.7145 67.1092 65.4629C67.278 65.2114 67.532 64.8335 67.6735 64.6232C67.8149 64.4128 68.0477 64.0668 68.1905 63.8538C68.3333 63.6411 68.57 63.2889 68.7161 63.0715C69.2508 62.2763 69.3147 62.1806 69.3197 62.1676C69.3254 62.1527 69.3047 62.14 69.0903 62.0294C69.0128 61.9895 68.7707 61.8635 68.553 61.7502C68.335 61.6366 68.1129 61.5209 68.0596 61.4933C68.0064 61.4654 67.8695 61.3943 67.7557 61.3348C67.6418 61.2756 67.4574 61.1796 67.3462 61.1214C67.2347 61.0636 67.0562 60.9706 66.9497 60.9151C66.8432 60.8592 66.7083 60.7891 66.6504 60.7589C66.5921 60.7286 66.4573 60.6585 66.3508 60.603C66.2443 60.5472 66.0638 60.4531 65.95 60.394C65.8361 60.3348 65.6993 60.2634 65.646 60.2358C65.5927 60.2079 65.3234 60.0673 65.0471 59.9234C64.7711 59.7799 64.3666 59.5692 64.1486 59.4555C63.9308 59.3418 63.6988 59.2209 63.6335 59.187C63.568 59.1531 63.4371 59.085 63.3426 59.0354C63.2484 58.9859 63.1035 58.9108 63.0213 58.8686C62.9387 58.8261 62.8515 58.7805 62.8275 58.7673C62.8032 58.754 62.72 58.7104 62.6424 58.6705C62.5649 58.6307 62.466 58.5792 62.4224 58.5562C62.3788 58.5333 62.2916 58.4878 62.2283 58.4552C62.0662 58.3708 61.9417 58.3057 61.8498 58.2571C61.8062 58.2342 61.707 58.1829 61.6294 58.1429C61.5518 58.1031 61.4569 58.0536 61.418 58.0331C61.3794 58.0126 61.2981 57.9701 61.2375 57.9386C61.0721 57.8527 60.7375 57.6786 60.5198 57.5648C60.4129 57.5092 60.2784 57.4389 60.2202 57.4087C59.9861 57.287 59.3293 56.9448 58.225 56.3693C57.5285 56.0062 57.4094 55.9448 57.402 55.9448C57.3987 55.9448 57.398 55.9834 57.401 56.0306C57.404 56.0777 57.414 56.2686 57.4237 56.4548C57.4417 56.808 57.4733 57.4219 57.5029 57.9848C57.5122 58.1661 57.5242 58.3977 57.5292 58.4991C57.5342 58.6008 57.5442 58.7905 57.5512 58.9211C57.5582 59.0517 57.5682 59.2418 57.5732 59.3432C57.5781 59.4449 57.5901 59.6762 57.5998 59.8576C57.6091 60.0391 57.6271 60.3814 57.6394 60.6183C57.6517 60.8553 57.6694 61.1976 57.6787 61.3787C57.6883 61.5601 57.6983 61.7638 57.7013 61.8316C57.7043 61.8994 57.708 61.9592 57.71 61.9649C57.713 61.9752 57.8175 61.9459 59.2161 61.5425C59.3419 61.5063 59.6232 61.4252 59.8413 61.3627C60.4589 61.1853 61.0588 61.0128 61.2375 60.9613C61.3271 60.9353 61.5195 60.8798 61.6647 60.838C61.8102 60.7961 61.9763 60.7482 62.0339 60.7316C62.0915 60.715 62.1394 60.7024 62.1404 60.7037C62.1414 60.705 62.1784 60.8961 62.223 61.1281C62.2673 61.3604 62.3388 61.7339 62.3818 61.9586L62.4597 62.367L62.0479 63.462C61.8211 64.0645 61.5278 64.8438 61.3963 65.1938C61.2645 65.5437 61.1603 65.8328 61.1643 65.8365C61.1683 65.8398 61.2605 65.9099 61.3697 65.9923C61.4786 66.0744 61.653 66.206 61.7572 66.2848C61.8614 66.3635 62.0299 66.4908 62.1314 66.5673C62.2333 66.644 62.4593 66.8155 62.6338 66.9481C62.8079 67.0807 62.9547 67.1894 62.9597 67.1897C62.9644 67.1897 63.02 67.1199 63.0826 67.0342ZM76.825 66.6653C77.6426 66.0468 77.8297 65.9056 77.84 65.899C77.8473 65.8946 77.6499 65.3603 77.1845 64.122L76.5187 62.3514L76.5456 62.2101C76.6508 61.6598 76.8296 60.7283 76.8333 60.709C76.8376 60.6878 76.8406 60.6861 76.8619 60.6931C76.8749 60.6974 76.9688 60.725 77.0706 60.7549C77.1722 60.7845 77.321 60.8283 77.4009 60.8519C77.4808 60.8755 77.8833 60.9935 78.2948 61.1141C78.7066 61.2348 79.3271 61.4166 79.6734 61.5182C80.6172 61.7951 80.8183 61.8536 80.8259 61.8536C80.8296 61.8536 80.8416 61.7063 80.8526 61.5259C80.8635 61.3458 80.8822 61.0443 80.8938 60.8556C80.9231 60.385 80.9458 60.0185 80.9771 59.506C80.9917 59.2664 81.0137 58.9105 81.026 58.7144C81.038 58.5187 81.0576 58.1982 81.0696 58.0023C81.0819 57.8065 81.0996 57.5196 81.1092 57.3649C81.1189 57.2101 81.1365 56.9213 81.1485 56.723C81.1605 56.5247 81.1728 56.3298 81.1755 56.2899C81.1781 56.2501 81.1785 56.2174 81.1758 56.2174C81.1708 56.2174 81.0823 56.2633 80.2769 56.6833C79.3271 57.1787 78.8937 57.4046 76.498 58.6529C76.1202 58.85 75.5872 59.1278 75.3135 59.2707C75.0395 59.4133 74.7226 59.5785 74.6087 59.6379C74.4949 59.6971 74.2708 59.8137 74.111 59.8972C73.9512 59.9806 73.5943 60.1667 73.3184 60.3106C73.042 60.4545 72.6855 60.6402 72.5257 60.7237C72.3656 60.8071 72.0546 60.9692 71.8342 61.0842C71.6138 61.1992 71.3066 61.3594 71.1514 61.4401C70.9963 61.5212 70.7686 61.6399 70.6451 61.704C70.0674 62.0048 69.9 62.0925 69.893 62.0998C69.8853 62.1071 69.932 62.1716 70.4789 62.913C70.949 63.5501 72.267 65.3373 72.3626 65.4673C72.533 65.6989 72.6642 65.876 72.6805 65.897L72.6968 65.9176L72.7354 65.8837C72.7564 65.8651 72.8962 65.7331 73.046 65.5902C73.3766 65.2745 73.6952 64.9711 73.7335 64.9355C73.7492 64.9209 73.897 64.7804 74.0621 64.6232C74.2276 64.466 74.366 64.3377 74.3704 64.3377C74.3747 64.3377 74.5362 64.55 74.7293 64.8093C74.922 65.0688 75.181 65.4171 75.3042 65.5832C75.4277 65.7491 75.5905 65.9681 75.6661 66.0698C75.7417 66.1711 75.8961 66.3792 76.0093 66.5314C76.3416 66.9787 76.3622 67.0063 76.3689 67.0059C76.3722 67.0059 76.5773 66.8527 76.825 66.6653ZM69.2531 61.6206C69.2531 61.6183 69.1366 61.388 68.9945 61.1085C68.8523 60.829 68.604 60.3415 68.4428 60.0248C68.2817 59.7081 68.0853 59.3222 68.0067 59.1674C67.4727 58.1185 67.3189 57.8159 67.262 57.7034C67.2267 57.6333 67.0998 57.384 66.9803 57.1495C66.8608 56.9149 66.6767 56.5529 66.5712 56.3449C66.4656 56.137 66.3328 55.8758 66.2759 55.7646C66.2186 55.6534 66.0305 55.2834 65.8574 54.9425C65.6843 54.6015 65.4822 54.2039 65.4083 54.0588C65.3344 53.9137 65.2086 53.6664 65.1287 53.5092C65.0488 53.3521 64.9116 53.083 64.824 52.9113C64.7365 52.7396 64.5747 52.4211 64.4642 52.2034C63.8979 51.0883 63.7957 50.8891 63.7893 50.8891C63.7853 50.889 63.5753 51.0283 63.3223 51.1985C62.8635 51.5075 62.2886 51.8944 61.5435 52.3955C61.3264 52.5414 60.9679 52.7828 60.7462 52.932C60.5248 53.0812 60.1829 53.3111 59.9868 53.4431C59.5184 53.7579 58.9171 54.1625 58.0595 54.7394L57.3618 55.209V55.267C57.3618 55.2989 57.3644 55.3508 57.3674 55.3824L57.3727 55.4398L57.4443 55.477C57.4836 55.4974 57.6131 55.5648 57.7316 55.6267C57.8505 55.6887 58.0189 55.7762 58.1062 55.8213C58.1934 55.8663 58.2846 55.914 58.3086 55.9272C58.3329 55.9405 58.4321 55.992 58.529 56.0417C58.6258 56.0914 58.7091 56.1348 58.7137 56.1382C58.7187 56.1417 58.8019 56.1852 58.8988 56.235C58.9957 56.2847 59.1445 56.3619 59.2291 56.4065C59.314 56.451 59.4428 56.5182 59.5154 56.5558C59.588 56.5934 59.6792 56.6409 59.7181 56.6614C59.7567 56.6819 59.844 56.7274 59.9119 56.7625C59.9795 56.7976 60.1203 56.8708 60.2245 56.9252C60.3287 56.9796 60.5071 57.0726 60.621 57.1318C60.7348 57.1911 60.8713 57.2624 60.9246 57.2902C60.9782 57.3181 61.2515 57.4605 61.5325 57.6066C61.8135 57.7528 62.1288 57.917 62.233 57.9715C62.4347 58.0772 63.3409 58.5492 63.554 58.6596C63.6242 58.6958 63.7094 58.7407 63.7434 58.7586C63.7774 58.7769 63.8686 58.8241 63.9461 58.864C64.0237 58.9038 64.1186 58.9534 64.1575 58.974C64.1962 58.9946 64.2794 59.0381 64.3423 59.0707C64.4052 59.1036 64.4984 59.1521 64.5494 59.1783C64.7601 59.2883 64.8414 59.3309 64.9502 59.387C65.0131 59.4199 65.1044 59.4675 65.1526 59.4927C65.2012 59.518 65.2875 59.5632 65.3444 59.5928C65.4013 59.6223 65.4925 59.6698 65.5468 59.6984C65.6014 59.7267 65.7848 59.8221 65.9543 59.9105C66.1237 59.9985 66.3062 60.0936 66.3594 60.1211C66.466 60.177 66.6587 60.2773 67.258 60.5894C68.4495 61.2102 68.7524 61.368 68.9845 61.49C69.2308 61.6193 69.2531 61.6299 69.2531 61.6206ZM70.3188 61.3876C70.4523 61.3185 70.6444 61.2185 70.7463 61.1653C70.8478 61.1121 70.9746 61.046 71.0279 61.0181C71.0812 60.9905 71.212 60.9221 71.3185 60.8666C71.4254 60.8107 71.6551 60.6911 71.8296 60.6004C72.004 60.51 72.2241 60.3953 72.3186 60.3458C72.4128 60.2963 72.5913 60.2032 72.7148 60.1391C72.8383 60.0746 73.0167 59.9819 73.1113 59.9324C73.2058 59.8829 73.3463 59.8098 73.4239 59.7699C73.5015 59.7297 73.5927 59.6821 73.6266 59.6639C73.6603 59.6459 73.7851 59.5805 73.904 59.519C74.0228 59.4572 74.2465 59.3408 74.4017 59.2598C74.5568 59.179 74.7845 59.06 74.908 58.9959C75.1131 58.8892 75.5289 58.6725 75.7933 58.5343C75.8868 58.4854 76.5277 58.1516 76.802 58.0089C76.8576 57.9799 76.9428 57.9353 76.9914 57.9099C77.1029 57.8511 77.6379 57.5728 77.8061 57.4858C77.8763 57.4494 77.9615 57.4049 77.9955 57.3867C78.0501 57.3575 78.4589 57.1445 78.7925 56.9715C78.8581 56.9376 78.9393 56.895 78.9733 56.8769C79.0072 56.8588 79.0944 56.8132 79.167 56.7757C79.2396 56.7381 79.3764 56.6669 79.471 56.6175C79.5652 56.5681 79.702 56.4969 79.7746 56.4593C79.8475 56.4217 79.9347 56.3761 79.9687 56.3579C80.0023 56.3397 80.1311 56.2725 80.2546 56.2084C80.3785 56.1444 80.511 56.0754 80.5499 56.0549C80.5886 56.0345 80.6938 55.9798 80.7833 55.9333C80.8729 55.8869 81.0057 55.8175 81.0783 55.7791L81.2104 55.7093L81.2208 55.5567C81.2264 55.4727 81.2314 55.3784 81.2317 55.3469L81.2324 55.2898L81.1818 55.2503C81.1182 55.2007 79.7719 54.1938 79.5712 54.0458C79.4893 53.9855 79.3391 53.8744 79.2376 53.799C79.0558 53.6644 78.7579 53.4443 78.4446 53.213C78.3574 53.1486 78.2305 53.0549 78.1629 53.0048C78.0105 52.8922 75.9121 51.3469 75.4424 51.0015C75.3788 50.9546 75.3225 50.916 75.3179 50.9158C75.3129 50.9156 75.0166 51.498 74.6597 52.2101C74.3025 52.9222 73.5204 54.4802 72.9215 55.6722C70.2975 60.8958 69.9666 61.5558 69.9666 61.5634C69.9666 61.5681 69.9915 61.5585 70.0215 61.5425C70.0518 61.5262 70.1856 61.4564 70.3188 61.3876ZM70.5588 59.4156C71.0855 58.3651 71.9251 56.6924 72.4245 55.6986C73.6363 53.2875 74.9523 50.6628 74.9523 50.6566C74.9523 50.6538 72.524 50.6516 69.5564 50.6516C66.5885 50.6516 64.1619 50.6546 64.1635 50.6582C64.1769 50.6869 64.4292 51.1848 64.4655 51.2539C64.4911 51.3023 64.604 51.5238 64.7168 51.7463C64.8297 51.9687 65.0378 52.3783 65.1793 52.6563C65.3207 52.9344 65.5268 53.34 65.637 53.5576C65.7475 53.7752 65.8684 54.0126 65.906 54.0852C65.9436 54.1577 66.0705 54.407 66.188 54.6391C66.3052 54.8712 66.44 55.1363 66.4873 55.2282C66.5346 55.3201 66.6574 55.5615 66.7603 55.7646C66.948 56.1346 67.1105 56.4538 67.3286 56.8813C67.3928 57.007 67.5333 57.284 67.6412 57.4968C67.749 57.7095 67.8719 57.9509 67.9142 58.0331C67.9568 58.1153 68.0796 58.3568 68.1875 58.5695C68.2953 58.7822 68.4994 59.184 68.6409 59.4618C68.7824 59.74 68.9925 60.1534 69.1077 60.3807C69.2228 60.608 69.338 60.8337 69.3633 60.8818C69.389 60.9304 69.4499 61.05 69.4988 61.148C69.5478 61.2457 69.591 61.3262 69.5944 61.3262C69.598 61.3262 70.0322 60.4664 70.5588 59.4156ZM54.0902 58.3828C54.2983 58.1521 54.5753 57.8447 54.7061 57.6997C54.8369 57.5547 54.9791 57.3965 55.022 57.3483C55.0646 57.3001 55.1169 57.2425 55.1372 57.2204C55.1579 57.1983 55.3529 56.9824 55.5707 56.7406C55.7884 56.4988 56.1446 56.1031 56.362 55.8613C56.5797 55.6195 56.863 55.3053 56.9916 55.163C57.1201 55.0207 57.2492 54.8769 57.2782 54.8433C57.3208 54.7942 57.3677 54.7573 57.5206 54.6542C58.5872 53.9328 59.0446 53.6196 60.5151 52.6037C61.8052 51.7126 62.0412 51.5505 62.7027 51.1L63.0706 50.8494L63.0283 50.8463C62.9867 50.8433 62.2959 50.8551 61.5415 50.8716C61.3281 50.8763 60.9359 50.884 60.6693 50.8887C60.4029 50.8935 60.0897 50.8995 59.9735 50.9022C59.5843 50.911 58.9384 50.9241 58.463 50.9328C57.9157 50.9428 57.6551 50.9481 57.1504 50.9597C56.9493 50.9643 56.7449 50.9681 56.6959 50.9681H56.6067L56.5321 51.0758C56.4912 51.135 56.4399 51.2092 56.4179 51.2407C56.396 51.2721 56.2122 51.5372 56.0094 51.8298C54.9208 53.4012 53.9051 54.8674 53.7753 55.0547C53.7107 55.1478 53.6201 55.2784 53.5738 55.3448C53.5276 55.4113 53.4587 55.5111 53.42 55.5667C53.3818 55.6223 53.3312 55.6955 53.3078 55.7294C53.2842 55.7632 53.2246 55.8494 53.175 55.9209C53.1257 55.9923 53.0079 56.1625 52.9133 56.299C52.2009 57.3257 51.9492 57.6911 51.9492 57.6975C51.9492 57.704 53.6947 58.8008 53.7073 58.8018C53.71 58.8021 53.8825 58.6137 54.0902 58.3828ZM53.3718 54.8804C54.001 53.9704 54.236 53.6307 54.3848 53.4169C54.4517 53.3202 54.6891 52.9779 54.9118 52.6563C55.1345 52.3347 55.4199 51.9232 55.5454 51.7419C55.6712 51.5605 55.9039 51.2242 56.0627 50.9945C56.2215 50.7648 56.3583 50.5694 56.367 50.5603C56.3816 50.5448 56.407 50.5433 56.7598 50.5368C57.2289 50.5281 57.5568 50.5215 58.0489 50.5107C58.2596 50.5061 58.6541 50.4982 58.9255 50.4933C59.1968 50.4883 59.7001 50.4784 60.044 50.4713C60.3879 50.4642 60.8813 50.4544 61.1407 50.4495C62.0915 50.4314 62.4963 50.4232 62.6468 50.4189C62.7317 50.4165 62.9694 50.412 63.1754 50.4089C63.3812 50.4058 63.5803 50.4008 63.6179 50.3977L63.6858 50.3922L63.5816 50.2164C63.5243 50.1196 63.3968 49.904 63.2986 49.7371C63.2001 49.5703 63.0366 49.2933 62.9351 49.1216C62.8335 48.95 62.6911 48.7086 62.6181 48.5853C62.5452 48.462 62.464 48.3245 62.4374 48.2797L62.3891 48.1984L59.5034 48.1987L56.6177 48.1989L56.4705 48.4119C56.2794 48.6887 55.3736 49.9965 54.3316 51.4998C54.0865 51.853 53.6904 52.4249 53.451 52.7706C52.8428 53.6487 52.2808 54.4599 52.106 54.7117C52.0245 54.829 51.9569 54.9279 51.9559 54.9315C51.9549 54.9351 52.121 55.0528 52.3248 55.193C52.5285 55.3333 52.7356 55.4765 52.7848 55.5113C52.8338 55.5461 52.8781 55.5745 52.8827 55.5746C52.8877 55.5746 53.1078 55.2623 53.3718 54.8804ZM53.749 51.5822C54.0446 51.1559 54.3629 50.6963 54.7371 50.1561C54.9671 49.8238 55.1931 49.4977 55.2394 49.4313C55.322 49.3128 55.4305 49.1557 55.4841 49.0777C55.4988 49.0559 55.6139 48.8897 55.7398 48.7084C56.0021 48.3304 56.1599 48.1027 56.2948 47.9082L56.389 47.7719L59.259 47.7697C61.9556 47.7676 62.1288 47.7666 62.1234 47.7526C62.1201 47.7444 62.0579 47.6365 61.9846 47.513C61.6667 46.9762 61.2648 46.296 61.2256 46.2281L61.2023 46.1877V45.2674V44.3472L59.2887 44.3477L57.3751 44.3481L57.1284 44.7056C56.9929 44.9022 56.6047 45.4629 56.2661 45.9515C55.1505 47.5616 54.4108 48.6294 54.21 48.9194C54.1012 49.0766 53.9847 49.2447 53.951 49.2931C53.9038 49.3612 53.2476 50.308 52.7675 51.0008L52.7113 51.0819L52.7972 51.1423C52.8441 51.1755 52.9939 51.2799 53.1294 51.3743C53.2649 51.4687 53.4354 51.5874 53.5083 51.6382C53.5808 51.689 53.6424 51.7295 53.6448 51.7282C53.6471 51.7269 53.694 51.6612 53.749 51.5822ZM79.6734 51.5757C79.6734 51.5674 79.6884 51.5358 79.9204 51.0517C79.999 50.8872 80.0782 50.7211 80.0965 50.6823C80.1145 50.6437 80.1598 50.5487 80.197 50.4713C80.3312 50.1928 80.3519 50.1454 80.3519 50.1113C80.3519 50.0931 80.3618 49.9431 80.3738 49.778C80.4198 49.1598 80.4394 48.8883 80.4624 48.5633L80.486 48.2292L80.3209 47.5565C80.1285 46.7729 80.1178 46.7296 79.999 46.242C79.9494 46.0389 79.9044 45.8698 79.8991 45.8662C79.8938 45.8627 79.8625 45.8597 79.8302 45.8597L79.7709 45.8595L79.737 45.9057C79.7183 45.9311 79.5782 46.1319 79.4253 46.3519C79.2729 46.5719 78.9939 46.9736 78.8058 47.2444C78.6177 47.5152 78.4116 47.8119 78.348 47.9038C78.2841 47.9957 78.1153 48.2391 77.9722 48.4446C77.8294 48.6501 77.7002 48.8365 77.6849 48.8587L77.6572 48.8991L77.9096 49.1225C78.0481 49.2453 78.2332 49.4096 78.3207 49.4875C78.4083 49.5654 78.5947 49.7309 78.7352 49.8553C78.8757 49.9797 78.9956 50.0905 79.0015 50.1016C79.0075 50.1127 79.0685 50.2499 79.1371 50.4064C79.2056 50.563 79.2782 50.7287 79.2985 50.7747C79.3188 50.8206 79.4064 51.0213 79.4933 51.2206C79.5802 51.4199 79.6564 51.5832 79.6624 51.5833C79.6684 51.5835 79.6734 51.5801 79.6734 51.5757ZM75.0315 50.1903C75.0871 50.1739 75.1268 50.1601 75.1194 50.1597C75.1121 50.1593 74.5911 50.1581 73.9612 50.1569L72.816 50.1548L72.1026 50.0333C71.4128 49.9159 70.5405 49.7689 69.8654 49.6565L69.5394 49.6021L69.4732 49.5437C68.9585 49.0882 68.2154 48.4303 67.9588 48.2025C67.8499 48.1059 67.7247 47.9953 67.6808 47.9566C67.5653 47.8551 67.2816 47.6038 67.2403 47.5663C67.221 47.5487 67.1198 47.4593 67.016 47.3676C66.9117 47.2758 66.8105 47.1864 66.7912 47.1689C66.7719 47.1513 66.6627 47.0546 66.5489 46.9541L66.3421 46.7712L66.209 46.4319C66.1361 46.2452 65.9839 45.8551 65.8714 45.565C65.7585 45.2748 65.5561 44.7545 65.4216 44.4087C65.2871 44.0629 65.1723 43.7658 65.1659 43.7483C65.1536 43.7136 65.132 43.7985 65.4426 42.6502C65.4982 42.4446 65.5774 42.1508 65.619 41.9973C65.6607 41.8437 65.7286 41.5925 65.7702 41.4389C65.9829 40.6516 66.0608 40.3635 66.0978 40.2243L66.1387 40.0713L66.4077 39.8328C66.5555 39.7016 66.942 39.3589 67.2666 39.0713C67.5912 38.7837 67.9361 38.4777 68.033 38.3913L68.2095 38.2343L68.544 38.2396C68.7281 38.2425 69.2039 38.2469 69.601 38.2494C69.9982 38.2519 70.4353 38.2562 70.5721 38.2591C70.7776 38.2633 70.8212 38.2621 70.8212 38.2524C70.8212 38.2458 70.7303 38.0328 70.6194 37.7789L70.4177 37.3173L70.2912 37.3196C70.2216 37.3208 70.0418 37.3277 69.8917 37.335C69.6217 37.348 68.795 37.3876 68.2401 37.414C66.1707 37.5123 66.1767 37.512 66.0908 37.5361C65.5704 37.6828 65.3484 37.7451 64.8051 37.8973C64.6379 37.9441 64.4984 37.9851 64.4954 37.9884C64.4925 37.9917 64.4505 38.0458 64.4026 38.1087C64.3546 38.1716 64.1632 38.4208 63.9771 38.6626C63.791 38.9044 63.5443 39.2249 63.4288 39.3748C63.3136 39.5247 63.1521 39.7345 63.0702 39.8409C62.754 40.2514 62.6604 40.3733 62.4001 40.7116C62.2526 40.9039 62.0199 41.206 61.8831 41.3831L61.6347 41.7049L61.6344 43.8879L61.6337 46.0708L61.7363 46.2443C61.7928 46.3398 61.903 46.5267 61.9816 46.6597C62.0602 46.7926 62.211 47.0479 62.3169 47.2268C62.4227 47.4057 62.5346 47.5957 62.5655 47.6488C62.5968 47.702 62.6278 47.7518 62.6345 47.7594C62.6411 47.7671 62.6468 47.7762 62.6468 47.7796C62.6468 47.7831 62.7573 47.9727 62.8921 48.201C63.1298 48.6031 63.237 48.7845 63.4441 49.1348C63.4984 49.2267 63.5873 49.3771 63.6415 49.469C63.6958 49.5608 63.818 49.7676 63.9129 49.9284L64.0853 50.2207L69.5078 50.2205L74.93 50.2203L75.0315 50.1903ZM76.6492 49.603C76.6971 49.5341 76.8156 49.3656 76.9122 49.2287C77.0084 49.0916 77.0883 48.9743 77.089 48.9679C77.09 48.9615 77.1619 48.854 77.2488 48.729C77.3356 48.604 77.5291 48.3257 77.6785 48.1105C78.5511 46.8537 78.8864 46.371 79.1091 46.0503C79.2462 45.853 79.3571 45.6903 79.3551 45.6887C79.3524 45.6862 77.0663 45.1287 75.2473 44.687C75.1407 44.6611 74.967 44.6186 74.8614 44.5927C74.6846 44.5493 74.6677 44.5465 74.6474 44.5584C74.6357 44.5656 74.5848 44.5979 74.5345 44.6303C73.9289 45.0214 72.9095 45.4316 72.6269 45.398C72.4521 45.3773 71.6032 44.9545 70.9443 44.56C70.8318 44.4927 70.5002 44.2836 70.4879 44.2723C70.4783 44.2636 70.5612 44.2137 70.9151 44.0153C71.6947 43.5777 71.982 43.4163 72.299 43.2377L72.6099 43.0625L73.0477 43.2174C73.2887 43.3026 73.5451 43.3936 73.6173 43.4196C73.6899 43.4456 73.7508 43.4653 73.7528 43.4634C73.7548 43.4614 73.5075 43.1184 73.2032 42.7011C72.8986 42.2838 72.5996 41.8731 72.538 41.7884C72.4315 41.6414 72.4208 41.6223 72.294 41.3576C72.2211 41.2053 72.1012 40.956 72.0277 40.8037C71.9095 40.5589 71.8222 40.378 71.6401 39.9991C71.6122 39.9411 71.5349 39.7808 71.4684 39.643C71.4018 39.5052 71.3009 39.2955 71.244 39.177C71.1867 39.0585 71.1105 38.8998 71.0742 38.8243L71.0079 38.687L70.2386 38.6814C69.8151 38.6783 69.2228 38.6733 68.9222 38.6703L68.3759 38.6648L67.7773 39.1953C67.4481 39.4871 67.0379 39.8503 66.8661 40.0023C66.694 40.1543 66.5465 40.2851 66.5382 40.2928C66.5236 40.3064 66.4949 40.4063 66.3335 41.0059C66.2962 41.1437 66.2366 41.3653 66.2006 41.4983C66.1647 41.6313 66.0838 41.93 66.0212 42.1621C65.9586 42.3943 65.8398 42.834 65.7572 43.1394L65.6074 43.6946L65.7349 44.0231C65.8051 44.2038 65.898 44.4426 65.941 44.5538C65.9839 44.665 66.1487 45.0884 66.3068 45.4946C66.465 45.9008 66.6184 46.2956 66.6477 46.372L66.7013 46.5108L66.8165 46.6138C66.8801 46.6704 66.948 46.731 66.9673 46.7484C66.9867 46.7658 67.0939 46.8606 67.205 46.9591C67.3166 47.0575 67.493 47.2136 67.5972 47.3059C67.7014 47.3981 67.9807 47.6457 68.2181 47.856C68.6872 48.2717 68.9905 48.5399 69.345 48.8536C69.4709 48.9648 69.6094 49.0879 69.653 49.1273L69.7322 49.1988L69.922 49.23C70.0265 49.2472 70.3498 49.3012 70.6404 49.35C71.6065 49.5124 72.2667 49.6235 72.574 49.6755L72.8779 49.727L74.7196 49.7276L76.5616 49.7283L76.6492 49.603ZM54.773 47.3477C54.8419 47.2474 54.9142 47.1435 54.9331 47.1169C54.9521 47.0903 55.1901 46.7471 55.4621 46.3542C56.672 44.607 56.8457 44.3562 56.9942 44.1427L57.1517 43.9163H59.1768H61.2023V42.7383V41.5602L61.424 41.2721C61.6231 41.0137 61.9383 40.6039 62.0758 40.4248C62.1041 40.3881 62.1271 40.3555 62.1271 40.3523C62.1271 40.349 61.3155 40.3465 60.3234 40.3465H58.5193L58.3748 40.5553C58.2949 40.6701 58.1641 40.8591 58.0838 40.9751C58.0033 41.0912 57.7373 41.475 57.4926 41.828C57.2479 42.1811 56.8601 42.7409 56.6307 43.0722C56.4013 43.4035 56.0544 43.904 55.86 44.1845C55.6655 44.465 55.3007 44.9912 55.0497 45.3539C54.7983 45.7166 54.4291 46.2497 54.229 46.5384C54.0286 46.8272 53.8648 47.0652 53.8648 47.0674C53.8648 47.0709 53.9644 47.1299 54.4418 47.4098C54.5243 47.4581 54.6036 47.5049 54.6179 47.5138C54.6325 47.5226 54.6452 47.5299 54.6458 47.53C54.6465 47.5301 54.7038 47.4481 54.773 47.3477ZM79.9554 45.3791C79.9554 45.376 80.0862 44.8861 80.246 44.2903L80.5366 43.2071L80.5067 43.1199C80.479 43.0384 80.4308 42.9008 80.224 42.316C80.0895 41.935 80.0073 41.7009 79.3957 39.9639C79.3634 39.8721 79.2499 39.5496 79.1434 39.2474C78.9506 38.7006 78.8907 38.5305 78.7615 38.1614C78.6979 37.9788 78.6919 37.9663 78.6577 37.9372C78.6377 37.9203 78.5498 37.8456 78.4626 37.7713C78.3111 37.6424 78.127 37.4865 77.8543 37.2558C77.7857 37.1977 77.6273 37.0632 77.5021 36.9568C77.3769 36.8504 77.2065 36.706 77.1232 36.6359C77.0404 36.5658 76.9112 36.4565 76.8363 36.393C76.6335 36.2205 76.4637 36.0766 76.2823 35.9229C76.1325 35.7961 75.8548 35.5605 75.6597 35.3943C75.6015 35.3448 75.5695 35.3242 75.5412 35.3176C75.5199 35.3127 75.3521 35.279 75.168 35.2428C74.5545 35.1222 73.0906 34.833 72.9834 34.8112C72.9252 34.7994 72.4854 34.7123 72.0057 34.6177C70.7493 34.3697 70.0362 34.2286 69.9403 34.209C69.8943 34.1996 69.5038 34.1225 69.0727 34.0377C68.6412 33.9529 68.273 33.8798 68.2537 33.8753C68.2344 33.8708 68.2171 33.8687 68.2151 33.8707C68.2108 33.8748 68.307 33.9953 68.8074 34.6135C69.3593 35.2956 69.3617 35.2986 69.7106 35.7302C70.4843 36.6881 70.6331 36.8722 70.6817 36.9312C70.71 36.9655 70.7329 36.9983 70.7329 37.0042C70.7329 37.0128 71.0782 37.7852 71.1974 38.0427C71.214 38.079 71.237 38.1304 71.2483 38.1571C71.2596 38.1836 71.2826 38.2355 71.2996 38.2723C71.3169 38.309 71.3642 38.4139 71.4054 38.5053C71.4733 38.6565 71.5835 38.889 71.768 39.2693C71.8056 39.3467 71.8549 39.4496 71.8778 39.4979C71.9008 39.5463 71.998 39.7481 72.0936 39.9464C72.1894 40.1447 72.2907 40.3544 72.3186 40.4124C72.5064 40.8033 72.5939 40.9853 72.6911 41.1876L72.8017 41.4176L73.4608 42.3213C73.8231 42.8183 74.2685 43.4287 74.4499 43.6777L74.7805 44.1303L74.8774 44.1538C75.0119 44.1865 75.3348 44.2652 75.6171 44.3342C75.748 44.3662 76.0253 44.4338 76.2337 44.4844C76.6981 44.5971 76.6528 44.5861 78.4492 45.0247C79.2556 45.2216 79.9247 45.3832 79.9354 45.3837C79.9464 45.3843 79.9554 45.3822 79.9554 45.3791ZM72.8207 44.939C73.1835 44.8461 73.8357 44.5557 74.2449 44.3047C74.2898 44.2772 74.3264 44.2517 74.3264 44.2479C74.3264 44.2441 74.3015 44.2065 74.2702 44.1643L74.2139 44.0875L74.0611 44.0335C73.9772 44.0037 73.6286 43.8801 73.2871 43.7588C72.9452 43.6375 72.6605 43.5382 72.6545 43.5382C72.6485 43.5382 72.4661 43.6379 72.2497 43.7597C72.0333 43.8815 71.7393 44.0467 71.5969 44.1269C71.4544 44.2071 71.3365 44.2766 71.3352 44.2814C71.3322 44.2909 71.3818 44.32 71.6445 44.4642C71.979 44.6476 72.3582 44.8361 72.5959 44.9372C72.6842 44.9748 72.6812 44.9747 72.8207 44.939ZM57.8954 40.0175C57.9677 40.001 58.0825 39.9749 58.1501 39.9594C58.218 39.944 58.2779 39.9278 58.2833 39.9234C58.2889 39.9188 59.1518 39.9164 60.3796 39.9178L62.4663 39.92L62.5226 39.8452C62.5539 39.8042 62.6478 39.6815 62.732 39.5727C62.9268 39.3202 63.5663 38.4888 63.8379 38.1348C63.9531 37.985 64.0474 37.8587 64.048 37.8541C64.0487 37.8459 63.9974 37.8272 63.303 37.5824C63.1045 37.5124 62.8389 37.4188 62.713 37.3743C62.5868 37.3298 62.3848 37.2587 62.2636 37.2161C61.901 37.0886 61.3221 36.8841 61.3071 36.878C61.2928 36.8723 61.2718 36.8906 60.6296 37.4663C60.2731 37.7862 60.0996 37.9414 59.6475 38.3461C59.4102 38.5586 59.1189 38.8195 59.0004 38.9259C58.8815 39.0323 58.7131 39.1833 58.6258 39.2615C58.2779 39.5732 58.0792 39.7508 57.9234 39.8892C57.7812 40.015 57.7479 40.0475 57.7609 40.0475C57.7626 40.0475 57.8228 40.034 57.8954 40.0175ZM64.6493 37.4941C64.7421 37.468 64.8916 37.4261 64.9812 37.4011C65.0707 37.376 65.2192 37.3343 65.3114 37.3083C65.4033 37.2823 65.6194 37.2218 65.7915 37.1738L66.1041 37.0866L66.2935 37.0766C66.3977 37.0712 66.6058 37.0608 66.7559 37.0536C66.9061 37.0464 67.1461 37.0345 67.2889 37.0273C67.4318 37.02 67.751 37.0041 67.998 36.992C68.8806 36.9486 69.8138 36.9023 69.9732 36.8939C70.0325 36.8908 70.0811 36.8857 70.0811 36.8827C70.0811 36.8764 69.9403 36.701 69.2015 35.7874C68.4768 34.8913 68.1848 34.5303 67.754 33.9975L67.3875 33.5441L66.9484 33.4094C66.707 33.3353 66.4796 33.2655 66.4433 33.2542C66.2852 33.2053 65.1929 32.8696 65.153 32.8578C65.098 32.8416 64.616 32.6936 64.2984 32.5956C64.1675 32.5553 63.8842 32.4682 63.6685 32.4023C63.4531 32.3363 63.1754 32.2511 63.0519 32.2131C62.9284 32.175 62.3881 32.0091 61.8511 31.8443L60.875 31.5449H58.4224H55.9702L54.8592 32.0993C54.2483 32.4042 53.75 32.6551 53.7516 32.6569C53.7563 32.6613 54.2357 32.8998 54.3715 32.965C54.4344 32.9953 54.7001 33.1259 54.9614 33.2552C55.2231 33.3845 55.5404 33.5407 55.6662 33.6024C55.9449 33.7388 56.3903 33.9581 56.9083 34.2135C57.1214 34.3186 57.3711 34.4413 57.4633 34.4861C57.5552 34.5308 57.8405 34.6713 58.0975 34.7982C58.3542 34.9251 58.6555 35.0735 58.7667 35.128C58.8782 35.1824 59.1478 35.3149 59.3659 35.4225C59.5836 35.5301 59.8849 35.6784 60.0351 35.7522C60.6623 36.0602 60.9 36.1771 61.2509 36.3499C61.4656 36.4558 61.667 36.5488 61.7309 36.5717C61.7915 36.5934 61.9124 36.6361 61.9996 36.6665C62.174 36.7275 63.6219 37.2384 64.1442 37.4234C64.326 37.4877 64.4758 37.5406 64.4775 37.5409C64.4791 37.5413 64.5564 37.5202 64.6493 37.4941ZM74.8464 34.7313C74.8464 34.7284 74.8351 34.7116 74.8215 34.694C74.8075 34.6763 74.6417 34.4502 74.4529 34.1915C73.871 33.3932 73.5178 32.9095 73.4092 32.7615L73.3054 32.6196L72.9595 32.446C72.7691 32.3505 72.5104 32.22 72.3845 32.156C72.2587 32.092 71.9218 31.9219 71.6358 31.7779C71.3498 31.6339 70.9813 31.448 70.8165 31.3646C70.652 31.2813 70.2928 31.0999 70.0188 30.9615L69.5205 30.7098L69.3141 30.6921C69.2005 30.6824 68.8383 30.6526 68.5087 30.626C68.1795 30.5994 67.789 30.5676 67.6412 30.5555C66.6328 30.4724 66.0871 30.429 66.0845 30.4317C66.0811 30.435 66.181 30.5255 66.9058 31.1757C67.1721 31.4148 67.4081 31.6267 67.4298 31.6467C67.4517 31.6667 67.6735 31.8661 67.9231 32.0899C68.1725 32.3136 68.4282 32.5431 68.4911 32.5998C68.588 32.687 69.3926 33.4095 69.6683 33.657L69.7538 33.7336L70.153 33.8128C70.3727 33.8563 70.7346 33.928 70.9577 33.972C71.4447 34.0681 72.4058 34.2583 72.6442 34.3057C72.7388 34.3245 73.1273 34.4014 73.5075 34.4766C73.888 34.5517 74.3357 34.6406 74.5029 34.6741C74.8055 34.7346 74.8464 34.7415 74.8464 34.7313ZM86.3856 78.1332C86.9569 78.0351 87.1766 77.9963 87.6097 77.9178C88.1274 77.8238 88.188 77.8128 88.442 77.764C88.5342 77.7467 88.6391 77.7268 88.6757 77.7201C88.8562 77.6872 90.1472 77.43 90.3689 77.3828L90.4901 77.3572L90.5537 77.3014C90.9579 76.9465 91.7525 76.2183 92.1021 75.8823C92.153 75.8335 92.2915 75.7009 92.4104 75.5876C92.6897 75.321 93.7886 74.2244 94.0663 73.9349C94.1845 73.8116 94.323 73.6671 94.3742 73.6139C94.4844 73.4996 94.828 73.1343 94.9778 72.9722C95.0357 72.909 95.1076 72.8319 95.1373 72.8007C95.1669 72.7691 95.2578 72.6701 95.3393 72.5807C95.4206 72.4913 95.5055 72.3982 95.5281 72.374C95.5504 72.3501 95.6496 72.2411 95.7485 72.1324C95.8474 72.0234 95.9719 71.8871 96.0252 71.829C96.2316 71.604 96.2921 71.5379 96.5635 71.2398C96.7176 71.0706 96.9407 70.826 97.0595 70.6961L97.2756 70.4601L97.2649 66.8491C97.2523 62.473 97.2396 58.3598 97.233 56.4153C97.2303 55.6221 97.2243 53.5824 97.2197 51.8826C97.2093 48.2188 97.1957 43.6541 97.189 41.6434C97.186 40.8503 97.18 38.8819 97.175 37.2693C97.17 35.6566 97.1651 34.3362 97.1641 34.3351C97.1614 34.3327 97.0925 34.3247 96.7572 34.288C96.0062 34.2059 95.4828 34.0942 94.822 33.8746C92.6381 33.1492 90.7388 31.5569 89.5786 29.4786C89.1295 28.6739 88.7886 27.7755 88.5932 26.8803C88.5532 26.6986 88.3232 25.5978 88.3232 25.5896C88.3232 25.5862 79.4107 25.5834 68.5177 25.5834C57.6244 25.5834 48.712 25.5852 48.712 25.5875C48.712 25.5898 48.698 25.6541 48.6807 25.7304C48.6634 25.8067 48.6274 25.9661 48.6008 26.0846C47.9882 28.8087 47.4175 30.0021 46.0466 31.4262C45.4501 32.0458 44.8633 32.5247 44.1801 32.9494C43.7191 33.236 43.1291 33.5239 42.6122 33.7145C42.0874 33.9081 41.7245 34.0078 41.0355 34.148C40.1727 34.3235 39.9525 34.369 39.9455 34.3732C39.9418 34.3754 39.9389 34.9181 39.9388 35.5791C39.9388 36.2401 39.9349 37.8889 39.9301 39.243C39.9254 40.597 39.9176 43.0502 39.9128 44.6945C39.908 46.3387 39.9018 48.4002 39.8992 49.2755C39.8965 50.1508 39.8905 52.1648 39.886 53.751C39.8814 55.3373 39.8754 57.2464 39.8727 57.9936C39.87 58.7407 39.8621 61.4787 39.8552 64.0781C39.8483 66.6776 39.8404 69.2335 39.8376 69.7583L39.8326 70.7124L40.6103 71.4903C41.0381 71.9184 41.9566 72.8382 42.6512 73.5348C43.3459 74.231 44.0276 74.9116 44.1661 75.0469C44.3046 75.1821 44.5012 75.3742 44.6029 75.4739C44.8614 75.7272 45.4998 76.3406 45.7452 76.5716L45.8041 76.6271L46.0799 76.6926C46.6866 76.8371 47.5425 77.0305 48.1571 77.1628C48.9323 77.3293 50.0596 77.5583 50.0596 77.5493C50.0596 77.546 49.9734 77.4742 49.8682 77.3898C48.96 76.6633 47.9386 75.7876 47.1443 75.0552C47.1176 75.0303 47.066 74.9834 47.0296 74.9505C46.949 74.8774 46.7408 74.6843 46.6508 74.5989C46.6145 74.5647 46.5075 74.4636 46.413 74.3746C46.0729 74.0546 45.7218 73.7119 45.2365 73.2277C44.8055 72.7974 44.5785 72.5661 44.1052 72.0752C44.0446 72.0124 43.8899 71.8519 43.7614 71.719C43.6329 71.586 43.4704 71.4176 43.4003 71.3448C43.1409 71.0753 42.7011 70.62 42.178 70.0793L41.9568 69.8506L41.9564 53.0163L41.956 36.182L42.315 36.0644C42.5124 35.9998 42.7789 35.9125 42.9073 35.8706C43.4653 35.6881 43.7919 35.5563 44.2682 35.3212C44.738 35.0893 45.0456 34.9131 45.4797 34.6272C46.1803 34.1657 46.7767 33.6789 47.3869 33.0706C47.6967 32.7617 47.7472 32.7091 47.9154 32.5209C48.9034 31.4154 49.6488 30.1826 50.0496 28.9906C50.0839 28.889 50.1871 28.5665 50.279 28.274C50.3709 27.9814 50.4501 27.7309 50.4554 27.7174L50.4648 27.6928L51.6649 27.698C52.9803 27.7037 59.5706 27.7238 64.6463 27.7376C67.5576 27.7456 70.1007 27.7534 74.6703 27.7685C76.6269 27.775 81.5763 27.7885 84.3595 27.7951C85.5343 27.7978 86.5075 27.8019 86.5221 27.8041C86.5481 27.8081 86.5497 27.812 86.6396 28.0609C86.9332 28.8738 87.0741 29.257 87.1383 29.417C87.8774 31.2527 89.0952 32.796 90.7984 34.056C91.7572 34.7651 92.8864 35.3904 94.1765 35.9262C94.2637 35.9624 94.5154 36.0643 94.7358 36.1527C94.9562 36.2411 95.1416 36.3172 95.1476 36.3219C95.1562 36.3286 95.1586 39.6713 95.1582 52.985L95.1579 69.6396L95.046 69.7632C94.9845 69.8314 94.835 69.9972 94.7138 70.1318C94.5926 70.2667 94.4202 70.4585 94.3306 70.5582C93.4161 71.5757 93.2387 71.7708 92.8734 72.1586C92.3484 72.7163 91.5614 73.5052 90.9392 74.0968C89.6076 75.3633 88.2799 76.5144 86.8037 77.6819C86.6363 77.8142 86.2454 78.1162 86.2205 78.1325C86.1935 78.1501 86.1835 78.1641 86.1982 78.1641C86.2018 78.1641 86.2861 78.1501 86.3856 78.1332ZM21.3657 94.3689C17.3457 94.3503 15.6619 94.3098 15.1754 94.2191C15.0662 94.1988 15.0143 94.1805 15.0023 94.1583C14.9902 94.1357 15.0291 94.0858 15.1607 93.9559C15.6938 93.4295 17.2882 92.0915 19.226 90.5445C20.8447 89.2521 21.9863 88.3176 22.8655 87.5659C23.3514 87.1505 23.6522 86.8723 23.6522 86.8381C23.6522 86.7952 23.3823 86.5427 22.8242 86.0638C22.2324 85.556 21.1836 84.6876 20.2874 83.9642C20.1736 83.8721 20.0408 83.7648 19.9923 83.7256C19.8569 83.6162 19.5732 83.3882 19.2492 83.1287C17.995 82.1238 16.8026 81.1411 16.069 80.508C15.9847 80.4352 15.8993 80.3618 15.8793 80.3448C15.6409 80.1438 15.1545 79.6981 15.0712 79.6047C14.9793 79.5017 14.9781 79.4881 15.0575 79.4582C15.2582 79.3834 15.9238 79.3422 17.3586 79.3159C18.4558 79.296 20.3159 79.29 25.2961 79.2897H30.5207L30.5262 79.5908C30.5315 79.8779 30.5477 81.1032 30.5667 82.6575C30.5837 84.0409 30.5928 84.7481 30.5974 85.0269C30.6 85.1818 30.6063 85.6923 30.6116 86.1612C30.6169 86.6304 30.6238 87.1309 30.627 87.2731L30.6328 87.5323L30.6989 87.5712C30.7352 87.5925 30.9889 87.7407 31.2626 87.9006C31.5363 88.0601 31.9545 88.3043 32.1919 88.4429C32.4293 88.5818 32.7325 88.7586 32.8657 88.8364C32.999 88.9138 33.1774 89.0178 33.2621 89.0674C33.6091 89.2704 33.999 89.4981 34.3191 89.6848C34.5056 89.7935 34.7415 89.9314 34.8432 89.9909C34.945 90.0504 35.2601 90.2341 35.5435 90.3996C36.51 90.9633 37.0288 91.2687 37.6971 91.6681C39.8126 92.9326 41.3048 93.8841 41.4974 94.0915C41.5152 94.1107 41.5175 94.1187 41.5106 94.138C41.4613 94.2776 40.6557 94.3241 37.7412 94.3563C35.8953 94.3766 24.8812 94.3852 21.3657 94.3689ZM34.6054 94.0173C36.925 94.0041 39.092 93.9831 39.5733 93.9695C39.6605 93.9672 39.825 93.9628 39.9389 93.9602C40.3604 93.9502 40.5427 93.9369 40.5197 93.918C40.4916 93.8951 39.5281 93.3178 38.9611 92.9845C38.9103 92.9546 38.6843 92.8213 38.4591 92.6884C37.987 92.4096 37.1531 91.9194 36.5168 91.5468C36.2746 91.4049 35.9615 91.2218 35.821 91.1394C35.6805 91.057 35.5437 90.9772 35.5171 90.9623C35.4904 90.947 35.3874 90.8868 35.2881 90.8287C35.1888 90.7702 34.9093 90.607 34.6671 90.4651C34.4249 90.3235 34.1474 90.1614 34.0505 90.1049C33.8729 90.0009 33.4986 89.7825 33.0684 89.5313C32.94 89.4565 32.5317 89.2179 32.1611 89.0016C31.7905 88.7852 31.4258 88.5722 31.3507 88.5283C31.2756 88.4848 31.1151 88.3907 30.994 88.32C30.8728 88.2488 30.6905 88.1422 30.5888 88.083C30.4871 88.0235 30.3679 87.9534 30.324 87.9275L30.2442 87.8806L30.2335 87.0604C30.2277 86.6095 30.2189 85.9219 30.2142 85.5324C30.2095 85.1433 30.1978 84.233 30.1882 83.5102C30.1787 82.7871 30.1666 81.8436 30.1613 81.4132C30.1456 80.1205 30.1376 79.6409 30.1317 79.635C30.1238 79.627 18.1866 79.6496 17.7198 79.6586C17.2323 79.6679 17.028 79.6742 16.7068 79.6901C16.1106 79.7204 15.925 79.7689 16.0073 79.8732C16.0174 79.8862 16.1809 80.0128 16.3706 80.1547C17.1598 80.7446 18.1276 81.5099 19.4066 82.5554C19.7586 82.8432 19.8676 82.933 20.468 83.4314C21.3735 84.1828 22.5272 85.1642 23.0356 85.6155C23.101 85.6733 23.2259 85.7843 23.3131 85.8617C23.7073 86.2117 24.12 86.6058 24.2 86.7088L24.236 86.755L24.231 86.8232C24.2181 86.999 24.1157 87.1552 23.8201 87.4496C23.3931 87.8753 22.4649 88.642 20.3399 90.3245C20.064 90.5429 19.3627 91.0985 18.8462 91.508C18.5204 91.7658 17.8307 92.3132 17.363 92.6847C16.9988 92.9742 16.2084 93.6043 16.0792 93.7083C16.0093 93.7644 15.9625 93.8083 15.9625 93.8176C15.9625 93.8395 16.0092 93.8651 16.0767 93.8804C16.3646 93.9456 17.3527 93.9848 19.1863 94.004C19.4359 94.0067 19.8164 94.0114 20.032 94.0143C21.3652 94.0336 31.4211 94.0356 34.6054 94.0173ZM104.641 94.3689C99.884 94.347 98.1235 94.2945 98.0216 94.1719C98.0063 94.1533 98.0456 94.1144 98.1834 94.0114C98.6958 93.6289 100.397 92.5714 102.364 91.4132C102.749 91.1866 102.878 91.1112 103.601 90.6891C105.614 89.5153 107.559 88.3658 108.304 87.9085C108.692 87.6709 108.737 87.6377 108.798 87.543C108.953 87.3017 109.009 86.7763 109.044 85.2732C109.062 84.5285 109.073 83.9186 109.08 83.264C109.087 82.6482 109.11 80.9543 109.12 80.2853C109.125 79.9603 109.129 79.6233 109.129 79.5369V79.3797L109.677 79.3741C109.979 79.3711 110.927 79.3648 111.784 79.3601C113.457 79.3512 113.958 79.3478 116.299 79.3316C118.388 79.3173 122.292 79.3173 122.87 79.3316C124.078 79.3618 124.51 79.4053 124.561 79.5014C124.577 79.5303 124.541 79.5758 124.373 79.7426C123.821 80.288 122.267 81.5983 120.254 83.2154C119.965 83.4471 119.658 83.6943 119.571 83.7651C118.713 84.4607 118.323 84.7794 117.787 85.224C116.995 85.8804 116.516 86.2904 116.178 86.5998C116.004 86.759 115.969 86.7992 115.977 86.8311C115.988 86.877 116.285 87.1621 116.704 87.5294C117.209 87.9723 118.363 88.9344 119.187 89.5994C119.247 89.6476 119.341 89.7237 119.395 89.7679C119.45 89.8124 119.776 90.0736 120.119 90.3478C121.029 91.0763 121.344 91.3308 121.896 91.7838C122.895 92.6033 123.718 93.3038 124.173 93.7236C124.356 93.8914 124.536 94.0755 124.555 94.1121C124.575 94.1493 124.557 94.1699 124.488 94.1925C124.297 94.2546 123.846 94.2879 122.746 94.3208C122.067 94.341 120.463 94.3583 118.206 94.3693C116.288 94.3789 106.695 94.3786 104.641 94.3689ZM121.275 94.0183L123.886 94.013L123.737 93.8934C123.655 93.8276 123.483 93.6893 123.354 93.586C123.087 93.3713 121.573 92.162 121.086 91.7745C120.907 91.6319 120.623 91.4056 120.455 91.272C120.157 91.0351 119.773 90.7297 119.131 90.2199C116.763 88.3372 116.2 87.8663 115.864 87.4845C115.663 87.2575 115.589 87.1126 115.58 86.9262C115.565 86.641 115.687 86.431 116.117 86.0027C116.597 85.5258 117.373 84.8744 119.377 83.2689C120.598 82.2912 120.998 81.9699 122.024 81.1457C122.406 80.8386 123.343 80.0826 123.466 79.9829C123.63 79.8486 123.641 79.8314 123.586 79.7945C123.504 79.7396 123.19 79.7041 122.588 79.6812C122.518 79.6785 122.411 79.6742 122.35 79.6719C121.65 79.6439 119.302 79.633 114.157 79.6326H109.614L109.61 82.6817C109.606 85.7398 109.604 85.9604 109.573 86.5527C109.53 87.3725 109.447 87.654 109.19 87.852C108.991 88.0056 108.338 88.425 107.459 88.9637C106.984 89.2551 106.147 89.7603 105.729 90.0082C105.6 90.0839 105.411 90.1963 105.308 90.2571C104.986 90.4485 104.254 90.8779 103.513 91.3096C103.121 91.5382 102.734 91.7635 102.654 91.8104C102.575 91.8576 102.412 91.9526 102.293 92.0217C102.175 92.0912 101.978 92.2058 101.857 92.2766C101.736 92.3477 101.506 92.4823 101.346 92.5757C100.35 93.1583 99.1489 93.8665 99.0543 93.927L99.0034 93.9599L99.0344 93.9662C99.1243 93.9851 101.232 94.006 104.148 94.017C106.253 94.025 117.656 94.026 121.275 94.0187V94.0183ZM42.8765 93.6448C42.5125 93.5255 41.4414 92.9652 40.2648 92.2786C38.8604 91.4588 38.005 90.8941 37.8365 90.6755C37.7719 90.5917 37.7668 90.5485 37.8184 90.5203C37.8614 90.497 38.0906 90.5 38.2389 90.5259C38.7218 90.6107 39.2607 90.7489 40.4145 91.0846C40.4848 91.1048 41.1675 91.3089 41.9318 91.5379L43.3213 91.9543L43.321 92.4209C43.3206 93.3062 43.2976 93.5019 43.1814 93.6066C43.114 93.6674 42.9919 93.6827 42.8765 93.6448ZM42.8307 93.1118C42.861 93.0878 42.893 93.0177 42.9127 92.9316C42.9358 92.8313 42.9357 92.6422 42.9124 92.5754C42.8394 92.365 42.6377 92.2514 41.9614 92.0397C41.1723 91.7924 40.2854 91.5714 40.2296 91.6077C40.2186 91.615 40.2215 91.6216 40.2472 91.6485C40.4313 91.8406 42.2395 92.9144 42.6914 93.0998C42.774 93.1337 42.7999 93.136 42.8307 93.1118ZM96.4733 93.6531C96.3001 93.6112 96.2489 93.4481 96.2482 92.936C96.2475 92.4757 96.3234 92.1277 96.4533 91.9941C96.4872 91.9596 96.5102 91.947 96.6121 91.9074C96.7709 91.8459 97.4833 91.6096 97.735 91.5352C97.7593 91.5279 97.8842 91.4897 98.0123 91.4501C98.232 91.3823 98.8706 91.1906 99.065 91.1338C99.1136 91.1195 99.2125 91.0902 99.2854 91.069C99.358 91.0473 99.584 90.9822 99.7874 90.9241C100.81 90.6319 101.393 90.4827 101.51 90.4827C101.631 90.4827 101.738 90.5774 101.738 90.6841C101.738 90.7137 101.732 90.7263 101.693 90.7682C101.474 91.0081 100.358 91.725 99.0077 92.494C97.9041 93.1224 97.0036 93.5764 96.7106 93.6521C96.648 93.6684 96.5378 93.6687 96.4733 93.6531ZM96.9929 93.0579C97.1354 93.0091 97.3531 92.8868 98.3033 92.3205C98.9921 91.9097 99.1499 91.8064 99.292 91.6708C99.3493 91.616 99.348 91.5997 99.2857 91.5997C99.0573 91.5997 97.6411 92.0071 97.2373 92.1889C96.9943 92.2986 96.8864 92.3992 96.8451 92.5558C96.8301 92.6116 96.8165 92.9446 96.8268 92.9991C96.8298 93.0167 96.8408 93.0413 96.8508 93.0539C96.8734 93.0828 96.916 93.0842 96.9929 93.0579Z" stroke="white" stroke-width="0.5"/>
</svg>
